<svg xmlns="http://www.w3.org/2000/svg" viewBox="0 0 1896 24" width="1896" height="24"><path d="M20 4H4c-1.1 0-1.99.9-1.99 2L2 18c0 1.1.9 2 2 2h16c1.1 0 2-.9 2-2V6c0-1.1-.9-2-2-2zm0 14H4V8l8 5 8-5v10zm-8-7L4 6h16l-8 5zM44 4H28c-1.1 0-1.99.9-1.99 2L26 18c0 1.1.9 2 2 2h16c1.1 0 2-.9 2-2V6c0-1.1-.9-2-2-2zm0 14H28V8l8 5 8-5v10zm-8-7l-8-5h16l-8 5zM68 4H52c-1.1 0-1.99.9-1.99 2L50 18c0 1.1.9 2 2 2h16c1.1 0 2-.9 2-2V6c0-1.1-.9-2-2-2zm0 14H52V8l8 5 8-5v10zm-8-7l-8-5h16l-8 5zM92 4H76c-1.1 0-1.99.9-1.99 2L74 18c0 1.1.9 2 2 2h16c1.1 0 2-.9 2-2V6c0-1.1-.9-2-2-2zm0 14H76V8l8 5 8-5v10zm-8-7l-8-5h16l-8 5zM116 4h-16c-1.1 0-1.99.9-1.99 2L98 18c0 1.1.9 2 2 2h16c1.1 0 2-.9 2-2V6c0-1.1-.9-2-2-2zm0 14h-16V8l8 5 8-5v10zm-8-7l-8-5h16l-8 5zM140 4h-16c-1.1 0-1.99.9-1.99 2L122 18c0 1.1.9 2 2 2h16c1.1 0 2-.9 2-2V6c0-1.1-.9-2-2-2zm0 14h-16V8l8 5 8-5v10zm-8-7l-8-5h16l-8 5z" fill="#000000"/><path d="M164 4h-16c-1.1 0-1.99.9-1.99 2L146 18c0 1.1.9 2 2 2h16c1.1 0 2-.9 2-2V6c0-1.1-.9-2-2-2zm0 14h-16V8l8 5 8-5v10zm-8-7l-8-5h16l-8 5z" fill="#000000" stroke="#445566" stroke-dasharray="0.9939553714263135,67.55960508357403" stroke-dashoffset="68.55356"/><path d="M188 4h-16c-1.1 0-1.99.9-1.99 2L170 18c0 1.1.9 2 2 2h16c1.1 0 2-.9 2-2V6c0-1.1-.9-2-2-2zm0 14h-16V8l8 5 8-5v10zm-8-7l-8-5h16l-8 5z" fill="#000000" stroke="#445566" stroke-dasharray="1.3936503662700424,67.1599100887303" stroke-dashoffset="68.55356"/><path d="M212 4h-16c-1.1 0-1.99.9-1.99 2L194 18c0 1.1.9 2 2 2h16c1.1 0 2-.9 2-2V6c0-1.1-.9-2-2-2zm0 14h-16V8l8 5 8-5v10zm-8-7l-8-5h16l-8 5z" fill="#000000" stroke="#445566" stroke-dasharray="1.8766132958771529,66.67694715912319" stroke-dashoffset="68.55356"/><path d="M236 4h-16c-1.1 0-1.99.9-1.99 2L218 18c0 1.1.9 2 2 2h16c1.1 0 2-.9 2-2V6c0-1.1-.9-2-2-2zm0 14h-16V8l8 5 8-5v10zm-8-7l-8-5h16l-8 5z" fill="#000000" stroke="#445566" stroke-dasharray="2.4505162100110907,66.10304424498925" stroke-dashoffset="68.55356"/><path d="M260 4h-16c-1.1 0-1.99.9-1.99 2L242 18c0 1.1.9 2 2 2h16c1.1 0 2-.9 2-2V6c0-1.1-.9-2-2-2zm0 14h-16V8l8 5 8-5v10zm-8-7l-8-5h16l-8 5z" fill="#000000" stroke="#445465" stroke-dasharray="3.1237805813722614,65.42977987362808" stroke-dashoffset="68.55356"/><path d="M284 4h-16c-1.1 0-1.99.9-1.99 2L266 18c0 1.1.9 2 2 2h16c1.1 0 2-.9 2-2V6c0-1.1-.9-2-2-2zm0 14h-16V8l8 5 8-5v10zm-8-7l-8-5h16l-8 5z" fill="#000000" stroke="#435465" stroke-dasharray="3.905558970985456,64.64800148401488" stroke-dashoffset="68.55356"/><path d="M308 4h-16c-1.1 0-1.99.9-1.99 2L290 18c0 1.1.9 2 2 2h16c1.1 0 2-.9 2-2V6c0-1.1-.9-2-2-2zm0 14h-16V8l8 5 8-5v10zm-8-7l-8-5h16l-8 5z" fill="#000000" stroke="#435464" stroke-dasharray="4.805646970060895,63.747913484939446" stroke-dashoffset="68.55356"/><path d="M332 4h-16c-1.1 0-1.99.9-1.99 2L314 18c0 1.1.9 2 2 2h16c1.1 0 2-.9 2-2V6c0-1.1-.9-2-2-2zm0 14h-16V8l8 5 8-5v10zm-8-7l-8-5h16l-8 5z" fill="#000000" stroke="#425364" stroke-dasharray="5.8342837782980945,62.71927667670224" stroke-dashoffset="68.55356"/><path d="M356 4h-16c-1.1 0-1.99.9-1.99 2L338 18c0 1.1.9 2 2 2h16c1.1 0 2-.9 2-2V6c0-1.1-.9-2-2-2zm0 14h-16V8l8 5 8-5v10zm-8-7l-8-5h16l-8 5z" fill="#000000" stroke="#425263" stroke-dasharray="7.001784239178699,61.55177621582164" stroke-dashoffset="68.55356"/><path d="M380 4h-16c-1.1 0-1.99.9-1.99 2L362 18c0 1.1.9 2 2 2h16c1.1 0 2-.9 2-2V6c0-1.1-.9-2-2-2zm0 14h-16V8l8 5 8-5v10zm-8-7l-8-5h16l-8 5z" fill="#000000" stroke="#415162" stroke-dasharray="8.317930611659408,60.23562984334093" stroke-dashoffset="68.55356"/><path d="M404 4h-16c-1.1 0-1.99.9-1.99 2L386 18c0 1.1.9 2 2 2h16c1.1 0 2-.9 2-2V6c0-1.1-.9-2-2-2zm0 14h-16V8l8 5 8-5v10zm-8-7l-8-5h16l-8 5z" fill="#000000" stroke="#405060" stroke-dasharray="9.791047611730502,58.76251284326984" stroke-dashoffset="68.55356"/><path d="M428 4h-16c-1.1 0-1.99.9-1.99 2L410 18c0 1.1.9 2 2 2h16c1.1 0 2-.9 2-2V6c0-1.1-.9-2-2-2zm0 14h-16V8l8 5 8-5v10zm-8-7l-8-5h16l-8 5z" fill="#000000" stroke="#3f4f5f" stroke-dasharray="11.42670633257428,57.12685412242605" stroke-dashoffset="68.55356"/><path d="M452 4h-16c-1.1 0-1.99.9-1.99 2L434 18c0 1.1.9 2 2 2h16c1.1 0 2-.9 2-2V6c0-1.1-.9-2-2-2zm0 14h-16V8l8 5 8-5v10zm-8-7l-8-5h16l-8 5z" fill="#000000" stroke="#3e4e5d" stroke-dasharray="13.226076841337932,55.32748361366241" stroke-dashoffset="68.55356"/><path d="M476 4h-16c-1.1 0-1.99.9-1.99 2L458 18c0 1.1.9 2 2 2h16c1.1 0 2-.9 2-2V6c0-1.1-.9-2-2-2zm0 14h-16V8l8 5 8-5v10zm-8-7l-8-5h16l-8 5z" fill="#000000" stroke="#3d4c5b" stroke-dasharray="15.184098839360606,53.36946161563973" stroke-dashoffset="68.55356"/><path d="M500 4h-16c-1.1 0-1.99.9-1.99 2L482 18c0 1.1.9 2 2 2h16c1.1 0 2-.9 2-2V6c0-1.1-.9-2-2-2zm0 14h-16V8l8 5 8-5v10zm-8-7l-8-5h16l-8 5z" fill="#000000" stroke="#3c4a59" stroke-dasharray="17.287856529962376,51.26570392503796" stroke-dashoffset="68.55356"/><path d="M524 4h-16c-1.1 0-1.99.9-1.99 2L506 18c0 1.1.9 2 2 2h16c1.1 0 2-.9 2-2V6c0-1.1-.9-2-2-2zm0 14h-16V8l8 5 8-5v10zm-8-7l-8-5h16l-8 5z" fill="#000000" stroke="#3a4857" stroke-dasharray="19.5157447118869,49.03781574311344" stroke-dashoffset="68.55356"/><path d="M548 4h-16c-1.1 0-1.99.9-1.99 2L530 18c0 1.1.9 2 2 2h16c1.1 0 2-.9 2-2V6c0-1.1-.9-2-2-2zm0 14h-16V8l8 5 8-5v10zm-8-7l-8-5h16l-8 5z" fill="#000000" stroke="#384654" stroke-dasharray="21.838029126913824,46.71553132808651" stroke-dashoffset="68.55356"/><path d="M572 4h-16c-1.1 0-1.99.9-1.99 2L554 18c0 1.1.9 2 2 2h16c1.1 0 2-.9 2-2V6c0-1.1-.9-2-2-2zm0 14h-16V8l8 5 8-5v10zm-8-7l-8-5h16l-8 5z" fill="#000000" stroke="#364451" stroke-dasharray="24.21907666791711,44.33448378708323" stroke-dashoffset="68.55356"/><path d="M596 4h-16c-1.1 0-1.99.9-1.99 2L578 18c0 1.1.9 2 2 2h16c1.1 0 2-.9 2-2V6c0-1.1-.9-2-2-2zm0 14h-16V8l8 5 8-5v10zm-8-7l-8-5h16l-8 5z" fill="#000000" stroke="#34414e" stroke-dasharray="26.620906879609738,41.932653575390596" stroke-dashoffset="68.55356"/><path d="M620 4h-16c-1.1 0-1.99.9-1.99 2L602 18c0 1.1.9 2 2 2h16c1.1 0 2-.9 2-2V6c0-1.1-.9-2-2-2zm0 14h-16V8l8 5 8-5v10zm-8-7l-8-5h16l-8 5z" fill="#000000" stroke="#323e4a" stroke-dasharray="29.00713469950486,39.54642575549547" stroke-dashoffset="68.55356"/><path d="M644 4h-16c-1.1 0-1.99.9-1.99 2L626 18c0 1.1.9 2 2 2h16c1.1 0 2-.9 2-2V6c0-1.1-.9-2-2-2zm0 14h-16V8l8 5 8-5v10zm-8-7l-8-5h16l-8 5z" fill="#000000" stroke="#2f3b47" stroke-dasharray="31.346234788689987,37.20732566631035" stroke-dashoffset="68.55356"/><path d="M668 4h-16c-1.1 0-1.99.9-1.99 2L650 18c0 1.1.9 2 2 2h16c1.1 0 2-.9 2-2V6c0-1.1-.9-2-2-2zm0 14h-16V8l8 5 8-5v10zm-8-7l-8-5h16l-8 5z" fill="#000000" stroke="#2d3843" stroke-dasharray="33.61344227345079,34.94011818154955" stroke-dashoffset="68.55356"/><path d="M692 4h-16c-1.1 0-1.99.9-1.99 2L674 18c0 1.1.9 2 2 2h16c1.1 0 2-.9 2-2V6c0-1.1-.9-2-2-2zm0 14h-16V8l8 5 8-5v10zm-8-7l-8-5h16l-8 5z" fill="#000000" stroke="#2a343f" stroke-dasharray="35.7912092363267,32.762351218673636" stroke-dashoffset="68.55356"/><path d="M716 4h-16c-1.1 0-1.99.9-1.99 2L698 18c0 1.1.9 2 2 2h16c1.1 0 2-.9 2-2V6c0-1.1-.9-2-2-2zm0 14h-16V8l8 5 8-5v10zm-8-7l-8-5h16l-8 5z" fill="#000000" stroke="#27313b" stroke-dasharray="37.868585122126795,30.684975332873538" stroke-dashoffset="68.55356"/><path d="M740 4h-16c-1.1 0-1.99.9-1.99 2L722 18c0 1.1.9 2 2 2h16c1.1 0 2-.9 2-2V6c0-1.1-.9-2-2-2zm0 14h-16V8l8 5 8-5v10zm-8-7l-8-5h16l-8 5z" fill="#000000" stroke="#252e37" stroke-dasharray="39.8400311373177,28.71352931768264" stroke-dashoffset="68.55356"/><path d="M764 4h-16c-1.1 0-1.99.9-1.99 2L746 18c0 1.1.9 2 2 2h16c1.1 0 2-.9 2-2V6c0-1.1-.9-2-2-2zm0 14h-16V8l8 5 8-5v10zm-8-7l-8-5h16l-8 5z" fill="#000000" stroke="#222b34" stroke-dasharray="41.704092412326204,26.849468042674136" stroke-dashoffset="68.55356"/><path d="M788 4h-16c-1.1 0-1.99.9-1.99 2L770 18c0 1.1.9 2 2 2h16c1.1 0 2-.9 2-2V6c0-1.1-.9-2-2-2zm0 14h-16V8l8 5 8-5v10zm-8-7l-8-5h16l-8 5z" fill="#000000" stroke="#202830" stroke-dasharray="43.46218499779547,25.09137545720487" stroke-dashoffset="68.55356"/><path d="M812 4h-16c-1.1 0-1.99.9-1.99 2L794 18c0 1.1.9 2 2 2h16c1.1 0 2-.9 2-2V6c0-1.1-.9-2-2-2zm0 14h-16V8l8 5 8-5v10zm-8-7l-8-5h16l-8 5z" fill="#000000" stroke="#1e252d" stroke-dasharray="45.117607893063145,23.435952561937196" stroke-dashoffset="68.55356"/><path d="M836 4h-16c-1.1 0-1.99.9-1.99 2L818 18c0 1.1.9 2 2 2h16c1.1 0 2-.9 2-2V6c0-1.1-.9-2-2-2zm0 14h-16V8l8 5 8-5v10zm-8-7l-8-5h16l-8 5z" fill="#000000" stroke="#1c232a" stroke-dasharray="46.674796768635936,21.878763686364398" stroke-dashoffset="68.55356"/><path d="M860 4h-16c-1.1 0-1.99.9-1.99 2L842 18c0 1.1.9 2 2 2h16c1.1 0 2-.9 2-2V6c0-1.1-.9-2-2-2zm0 14h-16V8l8 5 8-5v10zm-8-7l-8-5h16l-8 5z" fill="#000000" stroke="#1a2027" stroke-dasharray="48.13879033442264,20.4147701205777" stroke-dashoffset="68.55356"/><path d="M884 4h-16c-1.1 0-1.99.9-1.99 2L866 18c0 1.1.9 2 2 2h16c1.1 0 2-.9 2-2V6c0-1.1-.9-2-2-2zm0 14h-16V8l8 5 8-5v10zm-8-7l-8-5h16l-8 5z" fill="#000000" stroke="#181e24" stroke-dasharray="49.51486537474913,19.03869508025121" stroke-dashoffset="68.55356"/><path d="M908 4h-16c-1.1 0-1.99.9-1.99 2L890 18c0 1.1.9 2 2 2h16c1.1 0 2-.9 2-2V6c0-1.1-.9-2-2-2zm0 14h-16V8l8 5 8-5v10zm-8-7l-8-5h16l-8 5z" fill="#000000" stroke="#161c22" stroke-dasharray="50.80829732504889,17.74526312995145" stroke-dashoffset="68.55356"/><path d="M932 4h-16c-1.1 0-1.99.9-1.99 2L914 18c0 1.1.9 2 2 2h16c1.1 0 2-.9 2-2V6c0-1.1-.9-2-2-2zm0 14h-16V8l8 5 8-5v10zm-8-7l-8-5h16l-8 5z" fill="#000000" stroke="#151a1f" stroke-dasharray="52.02421035110624,16.529350103894092" stroke-dashoffset="68.55356"/><path d="M956 4h-16c-1.1 0-1.99.9-1.99 2L938 18c0 1.1.9 2 2 2h16c1.1 0 2-.9 2-2V6c0-1.1-.9-2-2-2zm0 14h-16V8l8 5 8-5v10zm-8-7l-8-5h16l-8 5z" fill="#000000" stroke="#13181d" stroke-dasharray="53.16748922816359,15.38607122683675" stroke-dashoffset="68.55356"/><path d="M980 4h-16c-1.1 0-1.99.9-1.99 2L962 18c0 1.1.9 2 2 2h16c1.1 0 2-.9 2-2V6c0-1.1-.9-2-2-2zm0 14h-16V8l8 5 8-5v10zm-8-7l-8-5h16l-8 5z" fill="#000000" stroke="#12161b" stroke-dasharray="54.24273277223185,14.310827682768489" stroke-dashoffset="68.55356"/><path d="M1004 4h-16c-1.1 0-1.99.9-1.99 2L986 18c0 1.1.9 2 2 2h16c1.1 0 2-.9 2-2V6c0-1.1-.9-2-2-2zm0 14h-16V8l8 5 8-5v10zm-8-7l-8-5h16l-8 5z" fill="#000000" stroke="#101519" stroke-dasharray="55.25423450710094,13.2993259478994" stroke-dashoffset="68.55356"/><path d="M1028 4h-16c-1.1 0-1.99.9-1.99 2l-.01 12c0 1.1.9 2 2 2h16c1.1 0 2-.9 2-2V6c0-1.1-.9-2-2-2zm0 14h-16V8l8 5 8-5v10zm-8-7l-8-5h16l-8 5z" fill="#000000" stroke="#0f1317" stroke-dasharray="56.20598067915772,12.347579775842622" stroke-dashoffset="68.55356"/><path d="M1052 4h-16c-1.1 0-1.99.9-1.99 2l-.01 12c0 1.1.9 2 2 2h16c1.1 0 2-.9 2-2V6c0-1.1-.9-2-2-2zm0 14h-16V8l8 5 8-5v10zm-8-7l-8-5h16l-8 5z" fill="#000000" stroke="#0e1215" stroke-dasharray="57.10165891393212,11.451901541068214" stroke-dashoffset="68.55356"/><path d="M1076 4h-16c-1.1 0-1.99.9-1.99 2l-.01 12c0 1.1.9 2 2 2h16c1.1 0 2-.9 2-2V6c0-1.1-.9-2-2-2zm0 14h-16V8l8 5 8-5v10zm-8-7l-8-5h16l-8 5z" fill="#000000" stroke="#0d1014" stroke-dasharray="57.94467303788878,10.60888741711155" stroke-dashoffset="68.55356"/><path d="M1100 4h-16c-1.1 0-1.99.9-1.99 2l-.01 12c0 1.1.9 2 2 2h16c1.1 0 2-.9 2-2V6c0-1.1-.9-2-2-2zm0 14h-16V8l8 5 8-5v10zm-8-7l-8-5h16l-8 5z" fill="#000000" stroke="#0c0f12" stroke-dasharray="58.73816112468845,9.815399330311887" stroke-dashoffset="68.55356"/><path d="M1124 4h-16c-1.1 0-1.99.9-1.99 2l-.01 12c0 1.1.9 2 2 2h16c1.1 0 2-.9 2-2V6c0-1.1-.9-2-2-2zm0 14h-16V8l8 5 8-5v10zm-8-7l-8-5h16l-8 5z" fill="#000000" stroke="#0b0e11" stroke-dasharray="59.485014869565376,9.068545585434958" stroke-dashoffset="68.55356"/><path d="M1148 4h-16c-1.1 0-1.99.9-1.99 2l-.01 12c0 1.1.9 2 2 2h16c1.1 0 2-.9 2-2V6c0-1.1-.9-2-2-2zm0 14h-16V8l8 5 8-5v10zm-8-7l-8-5h16l-8 5z" fill="#000000" stroke="#0a0d0f" stroke-dasharray="60.18789909846327,8.365661356537064" stroke-dashoffset="68.55356"/><path d="M1172 4h-16c-1.1 0-1.99.9-1.99 2l-.01 12c0 1.1.9 2 2 2h16c1.1 0 2-.9 2-2V6c0-1.1-.9-2-2-2zm0 14h-16V8l8 5 8-5v10zm-8-7l-8-5h16l-8 5z" fill="#000000" stroke="#090c0e" stroke-dasharray="60.84927068722681,7.704289767773528" stroke-dashoffset="68.55356"/><path d="M1196 4h-16c-1.1 0-1.99.9-1.99 2l-.01 12c0 1.1.9 2 2 2h16c1.1 0 2-.9 2-2V6c0-1.1-.9-2-2-2zm0 14h-16V8l8 5 8-5v10zm-8-7l-8-5h16l-8 5z" fill="#000000" stroke="#090b0d" stroke-dasharray="61.471396475376054,7.0821639796242835" stroke-dashoffset="68.55356"/><path d="M1220 4h-16c-1.1 0-1.99.9-1.99 2l-.01 12c0 1.1.9 2 2 2h16c1.1 0 2-.9 2-2V6c0-1.1-.9-2-2-2zm0 14h-16V8l8 5 8-5v10zm-8-7l-8-5h16l-8 5z" fill="#000000" stroke="#080a0c" stroke-dasharray="62.05636996049118,6.497190494509153" stroke-dashoffset="68.55356"/><path d="M1244 4h-16c-1.1 0-1.99.9-1.99 2l-.01 12c0 1.1.9 2 2 2h16c1.1 0 2-.9 2-2V6c0-1.1-.9-2-2-2zm0 14h-16V8l8 5 8-5v10zm-8-7l-8-5h16l-8 5z" fill="#000000" stroke="#07090b" stroke-dasharray="62.60612668835949,5.947433766640852" stroke-dashoffset="68.55356"/><path d="M1268 4h-16c-1.1 0-1.99.9-1.99 2l-.01 12c0 1.1.9 2 2 2h16c1.1 0 2-.9 2-2V6c0-1.1-.9-2-2-2zm0 14h-16V8l8 5 8-5v10zm-8-7l-8-5h16l-8 5z" fill="#000000" stroke="#07080a" stroke-dasharray="63.122458334824344,5.43110212017599" stroke-dashoffset="68.55356"/><path d="M1292 4h-16c-1.1 0-1.99.9-1.99 2l-.01 12c0 1.1.9 2 2 2h16c1.1 0 2-.9 2-2V6c0-1.1-.9-2-2-2zm0 14h-16V8l8 5 8-5v10zm-8-7l-8-5h16l-8 5z" fill="#000000" stroke="#060709" stroke-dasharray="63.6070255239955,4.946534931004834" stroke-dashoffset="68.55356"/><path d="M1316 4h-16c-1.1 0-1.99.9-1.99 2l-.01 12c0 1.1.9 2 2 2h16c1.1 0 2-.9 2-2V6c0-1.1-.9-2-2-2zm0 14h-16V8l8 5 8-5v10zm-8-7l-8-5h16l-8 5z" fill="#000000" stroke="#050708" stroke-dasharray="64.06136945510993,4.492190999890411" stroke-dashoffset="68.55356"/><path d="M1340 4h-16c-1.1 0-1.99.9-1.99 2l-.01 12c0 1.1.9 2 2 2h16c1.1 0 2-.9 2-2V6c0-1.1-.9-2-2-2zm0 14h-16V8l8 5 8-5v10zm-8-7l-8-5h16l-8 5z" fill="#000000" stroke="#050607" stroke-dasharray="64.48692242425744,4.0666380307428875" stroke-dashoffset="68.55356"/><path d="M1364 4h-16c-1.1 0-1.99.9-1.99 2l-.01 12c0 1.1.9 2 2 2h16c1.1 0 2-.9 2-2V6c0-1.1-.9-2-2-2zm0 14h-16V8l8 5 8-5v10zm-8-7l-8-5h16l-8 5z" fill="#000000" stroke="#040507" stroke-dasharray="64.88501733234857,3.6685431226517657" stroke-dashoffset="68.55356"/><path d="M1388 4h-16c-1.1 0-1.99.9-1.99 2l-.01 12c0 1.1.9 2 2 2h16c1.1 0 2-.9 2-2V6c0-1.1-.9-2-2-2zm0 14h-16V8l8 5 8-5v10zm-8-7l-8-5h16l-8 5z" fill="#000000" stroke="#040506" stroke-dasharray="65.25689627040973,3.2966641845906044" stroke-dashoffset="68.55356"/><path d="M1412 4h-16c-1.1 0-1.99.9-1.99 2l-.01 12c0 1.1.9 2 2 2h16c1.1 0 2-.9 2-2V6c0-1.1-.9-2-2-2zm0 14h-16V8l8 5 8-5v10zm-8-7l-8-5h16l-8 5z" fill="#000000" stroke="#040405" stroke-dasharray="65.6037182697286,2.949842185271735" stroke-dashoffset="68.55356"/><path d="M1436 4h-16c-1.1 0-1.99.9-1.99 2l-.01 12c0 1.1.9 2 2 2h16c1.1 0 2-.9 2-2V6c0-1.1-.9-2-2-2zm0 14h-16V8l8 5 8-5v10zm-8-7l-8-5h16l-8 5z" fill="#000000" stroke="#030405" stroke-dasharray="65.92656629898062,2.6269941560197196" stroke-dashoffset="68.55356"/><path d="M1460 4h-16c-1.1 0-1.99.9-1.99 2l-.01 12c0 1.1.9 2 2 2h16c1.1 0 2-.9 2-2V6c0-1.1-.9-2-2-2zm0 14h-16V8l8 5 8-5v10zm-8-7l-8-5h16l-8 5z" fill="#000000" stroke="#030304" stroke-dasharray="66.2264535841808,2.3271068708195313" stroke-dashoffset="68.55356"/><path d="M1484 4h-16c-1.1 0-1.99.9-1.99 2l-.01 12c0 1.1.9 2 2 2h16c1.1 0 2-.9 2-2V6c0-1.1-.9-2-2-2zm0 14h-16V8l8 5 8-5v10zm-8-7l-8-5h16l-8 5z" fill="#000000" stroke="#020304" stroke-dasharray="66.50432932071955,2.049231134280782" stroke-dashoffset="68.55356"/><path d="M1508 4h-16c-1.1 0-1.99.9-1.99 2l-.01 12c0 1.1.9 2 2 2h16c1.1 0 2-.9 2-2V6c0-1.1-.9-2-2-2zm0 14h-16V8l8 5 8-5v10zm-8-7l-8-5h16l-8 5z" fill="#000000" stroke="#020303" stroke-dasharray="66.76108384022601,1.7924766147743247" stroke-dashoffset="68.55356"/><path d="M1532 4h-16c-1.1 0-1.99.9-1.99 2l-.01 12c0 1.1.9 2 2 2h16c1.1 0 2-.9 2-2V6c0-1.1-.9-2-2-2zm0 14h-16V8l8 5 8-5v10zm-8-7l-8-5h16l-8 5z" fill="#000000" stroke="#020203" stroke-dasharray="66.99755328877875,1.5560071662215962" stroke-dashoffset="68.55356"/><path d="M1556 4h-16c-1.1 0-1.99.9-1.99 2l-.01 12c0 1.1.9 2 2 2h16c1.1 0 2-.9 2-2V6c0-1.1-.9-2-2-2zm0 14h-16V8l8 5 8-5v10zm-8-7l-8-5h16l-8 5z" fill="#000000" stroke="#020202" stroke-dasharray="67.2145238671705,1.3390365878298343" stroke-dashoffset="68.55356"/><path d="M1580 4h-16c-1.1 0-1.99.9-1.99 2l-.01 12c0 1.1.9 2 2 2h16c1.1 0 2-.9 2-2V6c0-1.1-.9-2-2-2zm0 14h-16V8l8 5 8-5v10zm-8-7l-8-5h16l-8 5z" fill="#000000" stroke="#010202" stroke-dasharray="67.41273567859055,1.1408247764097845" stroke-dashoffset="68.55356"/><path d="M1604 4h-16c-1.1 0-1.99.9-1.99 2l-.01 12c0 1.1.9 2 2 2h16c1.1 0 2-.9 2-2V6c0-1.1-.9-2-2-2zm0 14h-16V8l8 5 8-5v10zm-8-7l-8-5h16l-8 5z" fill="#000000" stroke="#010102" stroke-dasharray="67.59288622422767,0.960674230772669" stroke-dashoffset="68.55356"/><path d="M1628 4h-16c-1.1 0-1.99.9-1.99 2l-.01 12c0 1.1.9 2 2 2h16c1.1 0 2-.9 2-2V6c0-1.1-.9-2-2-2zm0 14h-16V8l8 5 8-5v10zm-8-7l-8-5h16l-8 5z" fill="#000000" stroke="#010101" stroke-dasharray="67.75563358291393,0.7979268720864099" stroke-dashoffset="68.55356"/><path d="M1652 4h-16c-1.1 0-1.99.9-1.99 2l-.01 12c0 1.1.9 2 2 2h16c1.1 0 2-.9 2-2V6c0-1.1-.9-2-2-2zm0 14h-16V8l8 5 8-5v10zm-8-7l-8-5h16l-8 5z" fill="#000000" stroke="#010101" stroke-dasharray="67.90159930699608,0.6519611480042616" stroke-dashoffset="68.55356"/><path d="M1676 4h-16c-1.1 0-1.99.9-1.99 2l-.01 12c0 1.1.9 2 2 2h16c1.1 0 2-.9 2-2V6c0-1.1-.9-2-2-2zm0 14h-16V8l8 5 8-5v10zm-8-7l-8-5h16l-8 5z" fill="#000000" stroke="#010101" stroke-dasharray="68.03137106310903,0.5221893918913064" stroke-dashoffset="68.55356"/><path d="M1700 4h-16c-1.1 0-1.99.9-1.99 2l-.01 12c0 1.1.9 2 2 2h16c1.1 0 2-.9 2-2V6c0-1.1-.9-2-2-2zm0 14h-16V8l8 5 8-5v10zm-8-7l-8-5h16l-8 5z" fill="#000000" stroke="#000101" stroke-dasharray="68.14550504339726,0.40805541160306724" stroke-dashoffset="68.55356"/><path d="M1724 4h-16c-1.1 0-1.99.9-1.99 2l-.01 12c0 1.1.9 2 2 2h16c1.1 0 2-.9 2-2V6c0-1.1-.9-2-2-2zm0 14h-16V8l8 5 8-5v10zm-8-7l-8-5h16l-8 5z" fill="#000000" stroke="#000001" stroke-dasharray="68.24452816994886,0.3090322850514723" stroke-dashoffset="68.55356"/><path d="M1748 4h-16c-1.1 0-1.99.9-1.99 2l-.01 12c0 1.1.9 2 2 2h16c1.1 0 2-.9 2-2V6c0-1.1-.9-2-2-2zm0 14h-16V8l8 5 8-5v10zm-8-7l-8-5h16l-8 5z" fill="#000000" stroke="#000000" stroke-dasharray="68.32894011273964,0.22462034226069805" stroke-dashoffset="68.55356"/><path d="M1772 4h-16c-1.1 0-1.99.9-1.99 2l-.01 12c0 1.1.9 2 2 2h16c1.1 0 2-.9 2-2V6c0-1.1-.9-2-2-2zm0 14h-16V8l8 5 8-5v10zm-8-7l-8-5h16l-8 5z" fill="#000000" stroke="#000000" stroke-dasharray="68.39921513919532,0.15434531580502373" stroke-dashoffset="68.55356"/><path d="M1796 4h-16c-1.1 0-1.99.9-1.99 2l-.01 12c0 1.1.9 2 2 2h16c1.1 0 2-.9 2-2V6c0-1.1-.9-2-2-2zm0 14h-16V8l8 5 8-5v10zm-8-7l-8-5h16l-8 5z" fill="#000000" stroke="#000000" stroke-dasharray="68.45580381154089,0.09775664345944696" stroke-dashoffset="68.55356"/><path d="M1820 4h-16c-1.1 0-1.99.9-1.99 2l-.01 12c0 1.1.9 2 2 2h16c1.1 0 2-.9 2-2V6c0-1.1-.9-2-2-2zm0 14h-16V8l8 5 8-5v10zm-8-7l-8-5h16l-8 5z" fill="#000000" stroke="#000000" stroke-dasharray="68.49913454638603,0.05442590861430471" stroke-dashoffset="68.55356"/><path d="M1844 4h-16c-1.1 0-1.99.9-1.99 2l-.01 12c0 1.1.9 2 2 2h16c1.1 0 2-.9 2-2V6c0-1.1-.9-2-2-2zm0 14h-16V8l8 5 8-5v10zm-8-7l-8-5h16l-8 5z" fill="#000000" stroke="#000000" stroke-dasharray="68.52961504947226,0.023945405528075375" stroke-dashoffset="68.55356"/><path d="M1868 4h-16c-1.1 0-1.99.9-1.99 2l-.01 12c0 1.1.9 2 2 2h16c1.1 0 2-.9 2-2V6c0-1.1-.9-2-2-2zm0 14h-16V8l8 5 8-5v10zm-8-7l-8-5h16l-8 5z" fill="#000000" stroke="#000000" stroke-dasharray="68.54763363715564,0.005926817844695862" stroke-dashoffset="68.55356"/><path d="M1892 4h-16c-1.1 0-1.99.9-1.99 2l-.01 12c0 1.1.9 2 2 2h16c1.1 0 2-.9 2-2V6c0-1.1-.9-2-2-2zm0 14h-16V8l8 5 8-5v10zm-8-7l-8-5h16l-8 5z" fill="#000000" stroke="#000000"/></svg>