<svg xmlns="http://www.w3.org/2000/svg" viewBox="0 0 1896 24" width="1896" height="24"><g fill="#000000"><path d="M18 8h-1V6c0-2.76-2.24-5-5-5S7 3.24 7 6v2H6c-1.1 0-2 .9-2 2v10c0 1.1.9 2 2 2h12c1.1 0 2-.9 2-2V10c0-1.1-.9-2-2-2zm-6 9c-1.1 0-2-.9-2-2s.9-2 2-2 2 .9 2 2-.9 2-2 2zm3.1-9H8.9V6c0-1.71 1.39-3.1 3.1-3.1 1.71 0 3.1 1.39 3.1 3.1v2z"/><path d="M12.051 9.051c1.196 0 2.371.066 3.407.191 1.035.125 1.896.304 2.494.521.598.216.912.462.912.712v8.949c0 .377-.718.74-1.995 1.006-1.278.267-3.012.417-4.818.417-1.807 0-3.541-.15-4.818-.417-1.277-.266-1.996-.629-1.996-1.006v-8.949c0-.378.719-.74 1.996-1.007 1.277-.267 3.011-.417 4.818-.417" fill-opacity=".761615"/></g><path d="M42 8h-1V6c0-2.76-2.24-5-5-5s-5 2.24-5 5v2h-1c-1.1 0-2 .9-2 2v10c0 1.1.9 2 2 2h12c1.1 0 2-.9 2-2V10c0-1.1-.9-2-2-2zm-6 9c-1.1 0-2-.9-2-2s.9-2 2-2 2 .9 2 2-.9 2-2 2zm3.1-9h-6.2V6c0-1.71 1.39-3.1 3.1-3.1 1.71 0 3.1 1.39 3.1 3.1v2z" fill="#000000"/><path d="M36.051 9.051c1.196 0 2.371.066 3.407.191 1.035.125 1.896.304 2.494.521.598.216.912.462.912.712v8.949c0 .377-.718.74-1.995 1.006-1.278.267-3.012.417-4.818.417-1.807 0-3.541-.15-4.818-.417-1.277-.266-1.996-.629-1.996-1.006v-8.949c0-.378.719-.74 1.996-1.007 1.277-.267 3.011-.417 4.818-.417" fill="#010101" fill-opacity=".761615"/><path d="M66 8h-1V6c0-2.76-2.24-5-5-5s-5 2.24-5 5v2h-1c-1.1 0-2 .9-2 2v10c0 1.1.9 2 2 2h12c1.1 0 2-.9 2-2V10c0-1.1-.9-2-2-2zm-6 9c-1.1 0-2-.9-2-2s.9-2 2-2 2 .9 2 2-.9 2-2 2zm3.1-9h-6.2V6c0-1.71 1.39-3.1 3.1-3.1 1.71 0 3.1 1.39 3.1 3.1v2z" fill="#000000"/><path d="M60.051 9.051c1.196 0 2.371.066 3.407.191 1.035.125 1.896.304 2.494.521.598.216.912.462.912.712v8.949c0 .377-.718.74-1.995 1.006-1.278.267-3.012.417-4.818.417-1.807 0-3.541-.15-4.818-.417-1.277-.266-1.996-.629-1.996-1.006v-8.949c0-.378.719-.74 1.996-1.007 1.277-.267 3.011-.417 4.818-.417" fill="#040404" fill-opacity=".761615"/><path d="M90 8h-1V6c0-2.76-2.24-5-5-5s-5 2.24-5 5v2h-1c-1.1 0-2 .9-2 2v10c0 1.1.9 2 2 2h12c1.1 0 2-.9 2-2V10c0-1.1-.9-2-2-2zm-6 9c-1.1 0-2-.9-2-2s.9-2 2-2 2 .9 2 2-.9 2-2 2zm3.1-9h-6.2V6c0-1.71 1.39-3.1 3.1-3.1 1.71 0 3.1 1.39 3.1 3.1v2z" fill="#000000"/><path d="M84.051 9.051c1.196 0 2.371.066 3.407.191 1.035.125 1.896.304 2.494.521.598.216.912.462.912.712v8.949c0 .377-.718.74-1.995 1.006-1.278.267-3.012.417-4.818.417-1.807 0-3.541-.15-4.818-.417-1.277-.266-1.996-.629-1.996-1.006v-8.949c0-.378.719-.74 1.996-1.007 1.277-.267 3.011-.417 4.818-.417" fill="#090909" fill-opacity=".761615"/><path d="M114 8h-1V6c0-2.76-2.24-5-5-5s-5 2.24-5 5v2h-1c-1.1 0-2 .9-2 2v10c0 1.1.9 2 2 2h12c1.1 0 2-.9 2-2V10c0-1.1-.9-2-2-2zm-6 9c-1.1 0-2-.9-2-2s.9-2 2-2 2 .9 2 2-.9 2-2 2zm3.1-9h-6.2V6c0-1.71 1.39-3.1 3.1-3.1 1.71 0 3.1 1.39 3.1 3.1v2z" fill="#000000"/><path d="M108.051 9.051c1.196 0 2.371.066 3.407.191 1.035.125 1.896.304 2.494.521.598.216.912.462.912.712v8.949c0 .377-.718.74-1.995 1.006-1.278.267-3.012.417-4.818.417-1.807 0-3.541-.15-4.818-.417-1.277-.266-1.996-.629-1.996-1.006v-8.949c0-.378.719-.74 1.996-1.007 1.277-.267 3.011-.417 4.818-.417" fill="#121212" fill-opacity=".761615"/><path d="M138 8h-1V6c0-2.76-2.24-5-5-5s-5 2.24-5 5v2h-1c-1.1 0-2 .9-2 2v10c0 1.1.9 2 2 2h12c1.1 0 2-.9 2-2V10c0-1.1-.9-2-2-2zm-6 9c-1.1 0-2-.9-2-2s.9-2 2-2 2 .9 2 2-.9 2-2 2zm3.1-9h-6.2V6c0-1.71 1.39-3.1 3.1-3.1 1.71 0 3.1 1.39 3.1 3.1v2z" fill="#000000"/><path d="M132.051 9.051c1.196 0 2.371.066 3.407.191 1.035.125 1.896.304 2.494.521.598.216.912.462.912.712v8.949c0 .377-.718.74-1.995 1.006-1.278.267-3.012.417-4.818.417-1.807 0-3.541-.15-4.818-.417-1.277-.266-1.996-.629-1.996-1.006v-8.949c0-.378.719-.74 1.996-1.007 1.277-.267 3.011-.417 4.818-.417" fill="#1f1f1f" fill-opacity=".761615"/><path d="M162 8h-1V6c0-2.76-2.24-5-5-5s-5 2.24-5 5v2h-1c-1.1 0-2 .9-2 2v10c0 1.1.9 2 2 2h12c1.1 0 2-.9 2-2V10c0-1.1-.9-2-2-2zm-6 9c-1.1 0-2-.9-2-2s.9-2 2-2 2 .9 2 2-.9 2-2 2zm3.1-9h-6.2V6c0-1.71 1.39-3.1 3.1-3.1 1.71 0 3.1 1.39 3.1 3.1v2z" fill="#000000"/><path d="M156.051 9.051c1.196 0 2.371.066 3.407.191 1.035.125 1.896.304 2.494.521.598.216.912.462.912.712v8.949c0 .377-.718.74-1.995 1.006-1.278.267-3.012.417-4.818.417-1.807 0-3.541-.15-4.818-.417-1.277-.266-1.996-.629-1.996-1.006v-8.949c0-.378.719-.74 1.996-1.007 1.277-.267 3.011-.417 4.818-.417" fill="#323232" fill-opacity=".761615"/><path d="M186 8h-1V6c0-2.76-2.24-5-5-5s-5 2.24-5 5v2h-1c-1.1 0-2 .9-2 2v10c0 1.1.9 2 2 2h12c1.1 0 2-.9 2-2V10c0-1.1-.9-2-2-2zm-6 9c-1.1 0-2-.9-2-2s.9-2 2-2 2 .9 2 2-.9 2-2 2zm3.1-9h-6.2V6c0-1.71 1.39-3.1 3.1-3.1 1.71 0 3.1 1.39 3.1 3.1v2z" fill="#000000"/><path d="M180.051 9.051c1.196 0 2.371.066 3.407.191 1.035.125 1.896.304 2.494.521.598.216.912.462.912.712v8.949c0 .377-.718.74-1.995 1.006-1.278.267-3.012.417-4.818.417-1.807 0-3.541-.15-4.818-.417-1.277-.266-1.996-.629-1.996-1.006v-8.949c0-.378.719-.74 1.996-1.007 1.277-.267 3.011-.417 4.818-.417" fill="#4a4a4a" fill-opacity=".761615"/><path d="M210 8h-1V6c0-2.76-2.24-5-5-5s-5 2.24-5 5v2h-1c-1.1 0-2 .9-2 2v10c0 1.1.9 2 2 2h12c1.1 0 2-.9 2-2V10c0-1.1-.9-2-2-2zm-6 9c-1.1 0-2-.9-2-2s.9-2 2-2 2 .9 2 2-.9 2-2 2zm3.1-9h-6.2V6c0-1.71 1.39-3.1 3.1-3.1 1.71 0 3.1 1.39 3.1 3.1v2z" fill="#000000"/><path d="M204.051 9.051c1.196 0 2.371.066 3.407.191 1.035.125 1.896.304 2.494.521.598.216.912.462.912.712v8.949c0 .377-.718.74-1.995 1.006-1.278.267-3.012.417-4.818.417-1.807 0-3.541-.15-4.818-.417-1.277-.266-1.996-.629-1.996-1.006v-8.949c0-.378.719-.74 1.996-1.007 1.277-.267 3.011-.417 4.818-.417" fill="#646464" fill-opacity=".761615"/><path d="M234 8h-1V6c0-2.76-2.24-5-5-5s-5 2.24-5 5v2h-1c-1.1 0-2 .9-2 2v10c0 1.1.9 2 2 2h12c1.1 0 2-.9 2-2V10c0-1.1-.9-2-2-2zm-6 9c-1.1 0-2-.9-2-2s.9-2 2-2 2 .9 2 2-.9 2-2 2zm3.1-9h-6.2V6c0-1.71 1.39-3.1 3.1-3.1 1.71 0 3.1 1.39 3.1 3.1v2z" fill="#000000"/><path d="M228.051 9.051c1.196 0 2.371.066 3.407.191 1.035.125 1.896.304 2.494.521.598.216.912.462.912.712v8.949c0 .377-.718.74-1.995 1.006-1.278.267-3.012.417-4.818.417-1.807 0-3.541-.15-4.818-.417-1.277-.266-1.996-.629-1.996-1.006v-8.949c0-.378.719-.74 1.996-1.007 1.277-.267 3.011-.417 4.818-.417" fill="#7e7e7e" fill-opacity=".761615"/><path d="M258 8h-1V6c0-2.76-2.24-5-5-5s-5 2.24-5 5v2h-1c-1.1 0-2 .9-2 2v10c0 1.1.9 2 2 2h12c1.1 0 2-.9 2-2V10c0-1.1-.9-2-2-2zm-6 9c-1.1 0-2-.9-2-2s.9-2 2-2 2 .9 2 2-.9 2-2 2zm3.1-9h-6.2V6c0-1.71 1.39-3.1 3.1-3.1 1.71 0 3.1 1.39 3.1 3.1v2z" fill="#000000"/><path d="M252.051 9.051c1.196 0 2.371.066 3.407.191 1.035.125 1.896.304 2.494.521.598.216.912.462.912.712v8.949c0 .377-.718.74-1.995 1.006-1.278.267-3.012.417-4.818.417-1.807 0-3.541-.15-4.818-.417-1.277-.266-1.996-.629-1.996-1.006v-8.949c0-.378.719-.74 1.996-1.007 1.277-.267 3.011-.417 4.818-.417" fill="#959595" fill-opacity=".761615"/><path d="M282 8h-1V6c0-2.76-2.24-5-5-5s-5 2.24-5 5v2h-1c-1.1 0-2 .9-2 2v10c0 1.1.9 2 2 2h12c1.1 0 2-.9 2-2V10c0-1.1-.9-2-2-2zm-6 9c-1.1 0-2-.9-2-2s.9-2 2-2 2 .9 2 2-.9 2-2 2zm3.1-9h-6.2V6c0-1.71 1.39-3.1 3.1-3.1 1.71 0 3.1 1.39 3.1 3.1v2z" fill="#000000"/><path d="M276.051 9.051c1.196 0 2.371.066 3.407.191 1.035.125 1.896.304 2.494.521.598.216.912.462.912.712v8.949c0 .377-.718.74-1.995 1.006-1.278.267-3.012.417-4.818.417-1.807 0-3.541-.15-4.818-.417-1.277-.266-1.996-.629-1.996-1.006v-8.949c0-.378.719-.74 1.996-1.007 1.277-.267 3.011-.417 4.818-.417" fill="#a9a9a9" fill-opacity=".761615"/><path d="M306 8h-1V6c0-2.76-2.24-5-5-5s-5 2.24-5 5v2h-1c-1.1 0-2 .9-2 2v10c0 1.1.9 2 2 2h12c1.1 0 2-.9 2-2V10c0-1.1-.9-2-2-2zm-6 9c-1.1 0-2-.9-2-2s.9-2 2-2 2 .9 2 2-.9 2-2 2zm3.1-9h-6.2V6c0-1.71 1.39-3.1 3.1-3.1 1.71 0 3.1 1.39 3.1 3.1v2z" fill="#000000"/><path d="M300.051 9.051c1.196 0 2.371.066 3.407.191 1.035.125 1.896.304 2.494.521.598.216.912.462.912.712v8.949c0 .377-.718.74-1.995 1.006-1.278.267-3.012.417-4.818.417-1.807 0-3.541-.15-4.818-.417-1.277-.266-1.996-.629-1.996-1.006v-8.949c0-.378.719-.74 1.996-1.007 1.277-.267 3.011-.417 4.818-.417" fill="#b9b9b9" fill-opacity=".761615"/><path d="M330 8h-1V6c0-2.76-2.24-5-5-5s-5 2.24-5 5v2h-1c-1.1 0-2 .9-2 2v10c0 1.1.9 2 2 2h12c1.1 0 2-.9 2-2V10c0-1.1-.9-2-2-2zm-6 9c-1.1 0-2-.9-2-2s.9-2 2-2 2 .9 2 2-.9 2-2 2zm3.1-9h-6.2V6c0-1.71 1.39-3.1 3.1-3.1 1.71 0 3.1 1.39 3.1 3.1v2z" fill="#000000"/><path d="M324.051 9.051c1.196 0 2.371.066 3.407.191 1.035.125 1.896.304 2.494.521.598.216.912.462.912.712v8.949c0 .377-.718.74-1.995 1.006-1.278.267-3.012.417-4.818.417-1.807 0-3.541-.15-4.818-.417-1.277-.266-1.996-.629-1.996-1.006v-8.949c0-.378.719-.74 1.996-1.007 1.277-.267 3.011-.417 4.818-.417" fill="#c7c7c7" fill-opacity=".761615"/><path d="M354 8h-1V6c0-2.76-2.24-5-5-5s-5 2.24-5 5v2h-1c-1.1 0-2 .9-2 2v10c0 1.1.9 2 2 2h12c1.1 0 2-.9 2-2V10c0-1.1-.9-2-2-2zm-6 9c-1.1 0-2-.9-2-2s.9-2 2-2 2 .9 2 2-.9 2-2 2zm3.1-9h-6.2V6c0-1.71 1.39-3.1 3.1-3.1 1.71 0 3.1 1.39 3.1 3.1v2z" fill="#000000"/><path d="M348.051 9.051c1.196 0 2.371.066 3.407.191 1.035.125 1.896.304 2.494.521.598.216.912.462.912.712v8.949c0 .377-.718.74-1.995 1.006-1.278.267-3.012.417-4.818.417-1.807 0-3.541-.15-4.818-.417-1.277-.266-1.996-.629-1.996-1.006v-8.949c0-.378.719-.74 1.996-1.007 1.277-.267 3.011-.417 4.818-.417" fill="#d2d2d2" fill-opacity=".761615"/><path d="M378 8h-1V6c0-2.76-2.24-5-5-5s-5 2.24-5 5v2h-1c-1.1 0-2 .9-2 2v10c0 1.1.9 2 2 2h12c1.1 0 2-.9 2-2V10c0-1.1-.9-2-2-2zm-6 9c-1.1 0-2-.9-2-2s.9-2 2-2 2 .9 2 2-.9 2-2 2zm3.1-9h-6.2V6c0-1.71 1.39-3.1 3.1-3.1 1.71 0 3.1 1.39 3.1 3.1v2z" fill="#000000"/><path d="M372.051 9.051c1.196 0 2.371.066 3.407.191 1.035.125 1.896.304 2.494.521.598.216.912.462.912.712v8.949c0 .377-.718.74-1.995 1.006-1.278.267-3.012.417-4.818.417-1.807 0-3.541-.15-4.818-.417-1.277-.266-1.996-.629-1.996-1.006v-8.949c0-.378.719-.74 1.996-1.007 1.277-.267 3.011-.417 4.818-.417" fill="#dbdbdb" fill-opacity=".761615"/><path d="M402 8h-1V6c0-2.76-2.24-5-5-5s-5 2.24-5 5v2h-1c-1.1 0-2 .9-2 2v10c0 1.1.9 2 2 2h12c1.1 0 2-.9 2-2V10c0-1.1-.9-2-2-2zm-6 9c-1.1 0-2-.9-2-2s.9-2 2-2 2 .9 2 2-.9 2-2 2zm3.1-9h-6.2V6c0-1.71 1.39-3.1 3.1-3.1 1.71 0 3.1 1.39 3.1 3.1v2z" fill="#000000"/><path d="M396.051 9.051c1.196 0 2.371.066 3.407.191 1.035.125 1.896.304 2.494.521.598.216.912.462.912.712v8.949c0 .377-.718.74-1.995 1.006-1.278.267-3.012.417-4.818.417-1.807 0-3.541-.15-4.818-.417-1.277-.266-1.996-.629-1.996-1.006v-8.949c0-.378.719-.74 1.996-1.007 1.277-.267 3.011-.417 4.818-.417" fill="#e3e3e3" fill-opacity=".761615"/><path d="M426 8h-1V6c0-2.76-2.24-5-5-5s-5 2.24-5 5v2h-1c-1.1 0-2 .9-2 2v10c0 1.1.9 2 2 2h12c1.1 0 2-.9 2-2V10c0-1.1-.9-2-2-2zm-6 9c-1.1 0-2-.9-2-2s.9-2 2-2 2 .9 2 2-.9 2-2 2zm3.1-9h-6.2V6c0-1.71 1.39-3.1 3.1-3.1 1.71 0 3.1 1.39 3.1 3.1v2z" fill="#000000"/><path d="M420.051 9.051c1.196 0 2.371.066 3.407.191 1.035.125 1.896.304 2.494.521.598.216.912.462.912.712v8.949c0 .377-.718.74-1.995 1.006-1.278.267-3.012.417-4.818.417-1.807 0-3.541-.15-4.818-.417-1.277-.266-1.996-.629-1.996-1.006v-8.949c0-.378.719-.74 1.996-1.007 1.277-.267 3.011-.417 4.818-.417" fill="#e9e9e9" fill-opacity=".761615"/><path d="M450 8h-1V6c0-2.76-2.24-5-5-5s-5 2.24-5 5v2h-1c-1.1 0-2 .9-2 2v10c0 1.1.9 2 2 2h12c1.1 0 2-.9 2-2V10c0-1.1-.9-2-2-2zm-6 9c-1.1 0-2-.9-2-2s.9-2 2-2 2 .9 2 2-.9 2-2 2zm3.1-9h-6.2V6c0-1.71 1.39-3.1 3.1-3.1 1.71 0 3.1 1.39 3.1 3.1v2z" fill="#000000"/><path d="M444.051 9.051c1.196 0 2.371.066 3.407.191 1.035.125 1.896.304 2.494.521.598.216.912.462.912.712v8.949c0 .377-.718.74-1.995 1.006-1.278.267-3.012.417-4.818.417-1.807 0-3.541-.15-4.818-.417-1.277-.266-1.996-.629-1.996-1.006v-8.949c0-.378.719-.74 1.996-1.007 1.277-.267 3.011-.417 4.818-.417" fill="#efefef" fill-opacity=".761615"/><path d="M474 8h-1V6c0-2.76-2.24-5-5-5s-5 2.24-5 5v2h-1c-1.1 0-2 .9-2 2v10c0 1.1.9 2 2 2h12c1.1 0 2-.9 2-2V10c0-1.1-.9-2-2-2zm-6 9c-1.1 0-2-.9-2-2s.9-2 2-2 2 .9 2 2-.9 2-2 2zm3.1-9h-6.2V6c0-1.71 1.39-3.1 3.1-3.1 1.71 0 3.1 1.39 3.1 3.1v2z" fill="#000000"/><path d="M468.051 9.051c1.196 0 2.371.066 3.407.191 1.035.125 1.896.304 2.494.521.598.216.912.462.912.712v8.949c0 .377-.718.74-1.995 1.006-1.278.267-3.012.417-4.818.417-1.807 0-3.541-.15-4.818-.417-1.277-.266-1.996-.629-1.996-1.006v-8.949c0-.378.719-.74 1.996-1.007 1.277-.267 3.011-.417 4.818-.417" fill="#f3f3f3" fill-opacity=".761615"/><path d="M498 8h-1V6c0-2.76-2.24-5-5-5s-5 2.24-5 5v2h-1c-1.1 0-2 .9-2 2v10c0 1.1.9 2 2 2h12c1.1 0 2-.9 2-2V10c0-1.1-.9-2-2-2zm-6 9c-1.1 0-2-.9-2-2s.9-2 2-2 2 .9 2 2-.9 2-2 2zm3.1-9h-6.2V6c0-1.71 1.39-3.1 3.1-3.1 1.71 0 3.1 1.39 3.1 3.1v2z" fill="#000000"/><path d="M492.051 9.051c1.196 0 2.371.066 3.407.191 1.035.125 1.896.304 2.494.521.598.216.912.462.912.712v8.949c0 .377-.718.74-1.995 1.006-1.278.267-3.012.417-4.818.417-1.807 0-3.541-.15-4.818-.417-1.277-.266-1.996-.629-1.996-1.006v-8.949c0-.378.719-.74 1.996-1.007 1.277-.267 3.011-.417 4.818-.417" fill="#f7f7f7" fill-opacity=".761615"/><path d="M522 8h-1V6c0-2.76-2.24-5-5-5s-5 2.24-5 5v2h-1c-1.1 0-2 .9-2 2v10c0 1.1.9 2 2 2h12c1.1 0 2-.9 2-2V10c0-1.1-.9-2-2-2zm-6 9c-1.1 0-2-.9-2-2s.9-2 2-2 2 .9 2 2-.9 2-2 2zm3.1-9h-6.2V6c0-1.71 1.39-3.1 3.1-3.1 1.71 0 3.1 1.39 3.1 3.1v2z" fill="#000000"/><path d="M516.051 9.051c1.196 0 2.371.066 3.407.191 1.035.125 1.896.304 2.494.521.598.216.912.462.912.712v8.949c0 .377-.718.74-1.995 1.006-1.278.267-3.012.417-4.818.417-1.807 0-3.541-.15-4.818-.417-1.277-.266-1.996-.629-1.996-1.006v-8.949c0-.378.719-.74 1.996-1.007 1.277-.267 3.011-.417 4.818-.417" fill="#f9f9f9" fill-opacity=".761615"/><path d="M546 8h-1V6c0-2.76-2.24-5-5-5s-5 2.24-5 5v2h-1c-1.1 0-2 .9-2 2v10c0 1.1.9 2 2 2h12c1.1 0 2-.9 2-2V10c0-1.1-.9-2-2-2zm-6 9c-1.1 0-2-.9-2-2s.9-2 2-2 2 .9 2 2-.9 2-2 2zm3.1-9h-6.2V6c0-1.71 1.39-3.1 3.1-3.1 1.71 0 3.1 1.39 3.1 3.1v2z" fill="#000000"/><path d="M540.051 9.051c1.196 0 2.371.066 3.407.191 1.035.125 1.896.304 2.494.521.598.216.912.462.912.712v8.949c0 .377-.718.74-1.995 1.006-1.278.267-3.012.417-4.818.417-1.807 0-3.541-.15-4.818-.417-1.277-.266-1.996-.629-1.996-1.006v-8.949c0-.378.719-.74 1.996-1.007 1.277-.267 3.011-.417 4.818-.417" fill="#fcfcfc" fill-opacity=".761615"/><path d="M570 8h-1V6c0-2.76-2.24-5-5-5s-5 2.24-5 5v2h-1c-1.1 0-2 .9-2 2v10c0 1.1.9 2 2 2h12c1.1 0 2-.9 2-2V10c0-1.1-.9-2-2-2zm-6 9c-1.1 0-2-.9-2-2s.9-2 2-2 2 .9 2 2-.9 2-2 2zm3.1-9h-6.2V6c0-1.71 1.39-3.1 3.1-3.1 1.71 0 3.1 1.39 3.1 3.1v2z" fill="#000000"/><path d="M564.051 9.051c1.196 0 2.371.066 3.407.191 1.035.125 1.896.304 2.494.521.598.216.912.462.912.712v8.949c0 .377-.718.74-1.995 1.006-1.278.267-3.012.417-4.818.417-1.807 0-3.541-.15-4.818-.417-1.277-.266-1.996-.629-1.996-1.006v-8.949c0-.378.719-.74 1.996-1.007 1.277-.267 3.011-.417 4.818-.417" fill="#fdfdfd" fill-opacity=".761615"/><path d="M594 8h-1V6c0-2.76-2.24-5-5-5s-5 2.24-5 5v2h-1c-1.1 0-2 .9-2 2v10c0 1.1.9 2 2 2h12c1.1 0 2-.9 2-2V10c0-1.1-.9-2-2-2zm-6 9c-1.1 0-2-.9-2-2s.9-2 2-2 2 .9 2 2-.9 2-2 2zm3.1-9h-6.2V6c0-1.71 1.39-3.1 3.1-3.1 1.71 0 3.1 1.39 3.1 3.1v2z" fill="#000000"/><path d="M588.051 9.051c1.196 0 2.371.066 3.407.191 1.035.125 1.896.304 2.494.521.598.216.912.462.912.712v8.949c0 .377-.718.74-1.995 1.006-1.278.267-3.012.417-4.818.417-1.807 0-3.541-.15-4.818-.417-1.277-.266-1.996-.629-1.996-1.006v-8.949c0-.378.719-.74 1.996-1.007 1.277-.267 3.011-.417 4.818-.417" fill="#fefefe" fill-opacity=".761615"/><path d="M618 8h-1V6c0-2.76-2.24-5-5-5s-5 2.24-5 5v2h-1c-1.1 0-2 .9-2 2v10c0 1.1.9 2 2 2h12c1.1 0 2-.9 2-2V10c0-1.1-.9-2-2-2zm-6 9c-1.1 0-2-.9-2-2s.9-2 2-2 2 .9 2 2-.9 2-2 2zm3.1-9h-6.2V6c0-1.71 1.39-3.1 3.1-3.1 1.71 0 3.1 1.39 3.1 3.1v2z" fill="#000000"/><path d="M612.051 9.051c1.196 0 2.371.066 3.407.191 1.035.125 1.896.304 2.494.521.598.216.912.462.912.712v8.949c0 .377-.718.74-1.995 1.006-1.278.267-3.012.417-4.818.417-1.807 0-3.541-.15-4.818-.417-1.277-.266-1.996-.629-1.996-1.006v-8.949c0-.378.719-.74 1.996-1.007 1.277-.267 3.011-.417 4.818-.417" fill="#ffffff" fill-opacity=".761615"/><path d="M642 8h-1V6c0-2.76-2.24-5-5-5s-5 2.24-5 5v2h-1c-1.1 0-2 .9-2 2v10c0 1.1.9 2 2 2h12c1.1 0 2-.9 2-2V10c0-1.1-.9-2-2-2zm-6 9c-1.1 0-2-.9-2-2s.9-2 2-2 2 .9 2 2-.9 2-2 2zm3.1-9h-6.2V6c0-1.71 1.39-3.1 3.1-3.1 1.71 0 3.1 1.39 3.1 3.1v2z" fill="#000000"/><path d="M636.051 9.051c1.196 0 2.371.066 3.407.191 1.035.125 1.896.304 2.494.521.598.216.912.462.912.712v8.949c0 .377-.718.74-1.995 1.006-1.278.267-3.012.417-4.818.417-1.807 0-3.541-.15-4.818-.417-1.277-.266-1.996-.629-1.996-1.006v-8.949c0-.378.719-.74 1.996-1.007 1.277-.267 3.011-.417 4.818-.417" fill="#ffffff" fill-opacity=".761615"/><path d="M666 8h-1V6c0-2.76-2.24-5-5-5s-5 2.24-5 5v2h-1c-1.1 0-2 .9-2 2v10c0 1.1.9 2 2 2h12c1.1 0 2-.9 2-2V10c0-1.1-.9-2-2-2zm-6 9c-1.1 0-2-.9-2-2s.9-2 2-2 2 .9 2 2-.9 2-2 2zm3.1-9h-6.2V6c0-1.71 1.39-3.1 3.1-3.1 1.71 0 3.1 1.39 3.1 3.1v2z" fill="#000000"/><path d="M660.051 9.051c1.196 0 2.371.066 3.407.191 1.035.125 1.896.304 2.494.521.598.216.912.462.912.712v8.949c0 .377-.718.74-1.995 1.006-1.278.267-3.012.417-4.818.417-1.807 0-3.541-.15-4.818-.417-1.277-.266-1.996-.629-1.996-1.006v-8.949c0-.378.719-.74 1.996-1.007 1.277-.267 3.011-.417 4.818-.417" fill="#ffffff" fill-opacity=".761615"/><path d="M690 8h-1V6c0-2.76-2.24-5-5-5s-5 2.24-5 5v2h-1c-1.1 0-2 .9-2 2v10c0 1.1.9 2 2 2h12c1.1 0 2-.9 2-2V10c0-1.1-.9-2-2-2zm-6 9c-1.1 0-2-.9-2-2s.9-2 2-2 2 .9 2 2-.9 2-2 2zm3.1-9h-6.2V6c0-1.71 1.39-3.1 3.1-3.1 1.71 0 3.1 1.39 3.1 3.1v2z" fill="#000000"/><path d="M684.051 9.051c1.196 0 2.371.066 3.407.191 1.035.125 1.896.304 2.494.521.598.216.912.462.912.712v8.949c0 .377-.718.74-1.995 1.006-1.278.267-3.012.417-4.818.417-1.807 0-3.541-.15-4.818-.417-1.277-.266-1.996-.629-1.996-1.006v-8.949c0-.378.719-.74 1.996-1.007 1.277-.267 3.011-.417 4.818-.417" fill="#ffffff" fill-opacity=".761615"/><path d="M714 8h-1V6c0-2.76-2.24-5-5-5s-5 2.24-5 5v2h-1c-1.1 0-2 .9-2 2v10c0 1.1.9 2 2 2h12c1.1 0 2-.9 2-2V10c0-1.1-.9-2-2-2zm-6 9c-1.1 0-2-.9-2-2s.9-2 2-2 2 .9 2 2-.9 2-2 2zm3.1-9h-6.2V6c0-1.71 1.39-3.1 3.1-3.1 1.71 0 3.1 1.39 3.1 3.1v2z" fill="#000000"/><path d="M708.051 9.051c1.196 0 2.371.066 3.407.191 1.035.125 1.896.304 2.494.521.598.216.912.462.912.712v8.949c0 .377-.718.74-1.995 1.006-1.278.267-3.012.417-4.818.417-1.807 0-3.541-.15-4.818-.417-1.277-.266-1.996-.629-1.996-1.006v-8.949c0-.378.719-.74 1.996-1.007 1.277-.267 3.011-.417 4.818-.417" fill="#ffffff" fill-opacity=".761615"/><path d="M738 8h-1V6c0-2.76-2.24-5-5-5s-5 2.24-5 5v2h-1c-1.1 0-2 .9-2 2v10c0 1.1.9 2 2 2h12c1.1 0 2-.9 2-2V10c0-1.1-.9-2-2-2zm-6 9c-1.1 0-2-.9-2-2s.9-2 2-2 2 .9 2 2-.9 2-2 2zm3.1-9h-6.2V6c0-1.71 1.39-3.1 3.1-3.1 1.71 0 3.1 1.39 3.1 3.1v2z" fill="#000000"/><path d="M732.051 9.051c1.196 0 2.371.066 3.407.191 1.035.125 1.896.304 2.494.521.598.216.912.462.912.712v8.949c0 .377-.718.74-1.995 1.006-1.278.267-3.012.417-4.818.417-1.807 0-3.541-.15-4.818-.417-1.277-.266-1.996-.629-1.996-1.006v-8.949c0-.378.719-.74 1.996-1.007 1.277-.267 3.011-.417 4.818-.417" fill="#ffffff" fill-opacity=".761615"/><path d="M762 8h-1V6c0-2.76-2.24-5-5-5s-5 2.24-5 5v2h-1c-1.1 0-2 .9-2 2v10c0 1.1.9 2 2 2h12c1.1 0 2-.9 2-2V10c0-1.1-.9-2-2-2zm-6 9c-1.1 0-2-.9-2-2s.9-2 2-2 2 .9 2 2-.9 2-2 2zm3.1-9h-6.2V6c0-1.71 1.39-3.1 3.1-3.1 1.71 0 3.1 1.39 3.1 3.1v2z" fill="#000000"/><path d="M756.051 9.051c1.196 0 2.371.066 3.407.191 1.035.125 1.896.304 2.494.521.598.216.912.462.912.712v8.949c0 .377-.718.74-1.995 1.006-1.278.267-3.012.417-4.818.417-1.807 0-3.541-.15-4.818-.417-1.277-.266-1.996-.629-1.996-1.006v-8.949c0-.378.719-.74 1.996-1.007 1.277-.267 3.011-.417 4.818-.417" fill="#ffffff" fill-opacity=".761615"/><path d="M786 8h-1V6c0-2.76-2.24-5-5-5s-5 2.24-5 5v2h-1c-1.1 0-2 .9-2 2v10c0 1.1.9 2 2 2h12c1.1 0 2-.9 2-2V10c0-1.1-.9-2-2-2zm-6 9c-1.1 0-2-.9-2-2s.9-2 2-2 2 .9 2 2-.9 2-2 2zm3.1-9h-6.2V6c0-1.71 1.39-3.1 3.1-3.1 1.71 0 3.1 1.39 3.1 3.1v2z" fill="#000000"/><path d="M780.051 9.051c1.196 0 2.371.066 3.407.191 1.035.125 1.896.304 2.494.521.598.216.912.462.912.712v8.949c0 .377-.718.74-1.995 1.006-1.278.267-3.012.417-4.818.417-1.807 0-3.541-.15-4.818-.417-1.277-.266-1.996-.629-1.996-1.006v-8.949c0-.378.719-.74 1.996-1.007 1.277-.267 3.011-.417 4.818-.417" fill="#ffffff" fill-opacity=".761615"/><path d="M810 8h-1V6c0-2.76-2.24-5-5-5s-5 2.24-5 5v2h-1c-1.1 0-2 .9-2 2v10c0 1.1.9 2 2 2h12c1.1 0 2-.9 2-2V10c0-1.1-.9-2-2-2zm-6 9c-1.1 0-2-.9-2-2s.9-2 2-2 2 .9 2 2-.9 2-2 2zm3.1-9h-6.2V6c0-1.71 1.39-3.1 3.1-3.1 1.71 0 3.1 1.39 3.1 3.1v2z" fill="#000000"/><path d="M804.051 9.051c1.196 0 2.371.066 3.407.191 1.035.125 1.896.304 2.494.521.598.216.912.462.912.712v8.949c0 .377-.718.74-1.995 1.006-1.278.267-3.012.417-4.818.417-1.807 0-3.541-.15-4.818-.417-1.277-.266-1.996-.629-1.996-1.006v-8.949c0-.378.719-.74 1.996-1.007 1.277-.267 3.011-.417 4.818-.417" fill="#ffffff" fill-opacity=".761615"/><path d="M834 8h-1V6c0-2.76-2.24-5-5-5s-5 2.24-5 5v2h-1c-1.1 0-2 .9-2 2v10c0 1.1.9 2 2 2h12c1.1 0 2-.9 2-2V10c0-1.1-.9-2-2-2zm-6 9c-1.1 0-2-.9-2-2s.9-2 2-2 2 .9 2 2-.9 2-2 2zm3.1-9h-6.2V6c0-1.71 1.39-3.1 3.1-3.1 1.71 0 3.1 1.39 3.1 3.1v2z" fill="#000000"/><path d="M828.051 9.051c1.196 0 2.371.066 3.407.191 1.035.125 1.896.304 2.494.521.598.216.912.462.912.712v8.949c0 .377-.718.74-1.995 1.006-1.278.267-3.012.417-4.818.417-1.807 0-3.541-.15-4.818-.417-1.277-.266-1.996-.629-1.996-1.006v-8.949c0-.378.719-.74 1.996-1.007 1.277-.267 3.011-.417 4.818-.417" fill="#ffffff" fill-opacity=".761615"/><path d="M858 8h-1V6c0-2.76-2.24-5-5-5s-5 2.24-5 5v2h-1c-1.1 0-2 .9-2 2v10c0 1.1.9 2 2 2h12c1.1 0 2-.9 2-2V10c0-1.1-.9-2-2-2zm-6 9c-1.1 0-2-.9-2-2s.9-2 2-2 2 .9 2 2-.9 2-2 2zm3.1-9h-6.2V6c0-1.71 1.39-3.1 3.1-3.1 1.71 0 3.1 1.39 3.1 3.1v2z" fill="#000000"/><path d="M852.051 9.051c1.196 0 2.371.066 3.407.191 1.035.125 1.896.304 2.494.521.598.216.912.462.912.712v8.949c0 .377-.718.74-1.995 1.006-1.278.267-3.012.417-4.818.417-1.807 0-3.541-.15-4.818-.417-1.277-.266-1.996-.629-1.996-1.006v-8.949c0-.378.719-.74 1.996-1.007 1.277-.267 3.011-.417 4.818-.417" fill="#ffffff" fill-opacity=".761615"/><path d="M882 8h-1V6c0-2.76-2.24-5-5-5s-5 2.24-5 5v2h-1c-1.1 0-2 .9-2 2v10c0 1.1.9 2 2 2h12c1.1 0 2-.9 2-2V10c0-1.1-.9-2-2-2zm-6 9c-1.1 0-2-.9-2-2s.9-2 2-2 2 .9 2 2-.9 2-2 2zm3.1-9h-6.2V6c0-1.71 1.39-3.1 3.1-3.1 1.71 0 3.1 1.39 3.1 3.1v2z" fill="#000000"/><path d="M876.051 9.051c1.196 0 2.371.066 3.407.191 1.035.125 1.896.304 2.494.521.598.216.912.462.912.712v8.949c0 .377-.718.74-1.995 1.006-1.278.267-3.012.417-4.818.417-1.807 0-3.541-.15-4.818-.417-1.277-.266-1.996-.629-1.996-1.006v-8.949c0-.378.719-.74 1.996-1.007 1.277-.267 3.011-.417 4.818-.417" fill="#ffffff" fill-opacity=".761615"/><path d="M906 8h-1V6c0-2.76-2.24-5-5-5s-5 2.24-5 5v2h-1c-1.1 0-2 .9-2 2v10c0 1.1.9 2 2 2h12c1.1 0 2-.9 2-2V10c0-1.1-.9-2-2-2zm-6 9c-1.1 0-2-.9-2-2s.9-2 2-2 2 .9 2 2-.9 2-2 2zm3.1-9h-6.2V6c0-1.71 1.39-3.1 3.1-3.1 1.71 0 3.1 1.39 3.1 3.1v2z" fill="#000000"/><path d="M900.051 9.051c1.196 0 2.371.066 3.407.191 1.035.125 1.896.304 2.494.521.598.216.912.462.912.712v8.949c0 .377-.718.74-1.995 1.006-1.278.267-3.012.417-4.818.417-1.807 0-3.541-.15-4.818-.417-1.277-.266-1.996-.629-1.996-1.006v-8.949c0-.378.719-.74 1.996-1.007 1.277-.267 3.011-.417 4.818-.417" fill="#ffffff" fill-opacity=".761615"/><path d="M930 8h-1V6c0-2.76-2.24-5-5-5s-5 2.24-5 5v2h-1c-1.1 0-2 .9-2 2v10c0 1.1.9 2 2 2h12c1.1 0 2-.9 2-2V10c0-1.1-.9-2-2-2zm-6 9c-1.1 0-2-.9-2-2s.9-2 2-2 2 .9 2 2-.9 2-2 2zm3.1-9h-6.2V6c0-1.71 1.39-3.1 3.1-3.1 1.71 0 3.1 1.39 3.1 3.1v2z" fill="#000000"/><path d="M924.051 9.051c1.196 0 2.371.066 3.407.191 1.035.125 1.896.304 2.494.521.598.216.912.462.912.712v8.949c0 .377-.718.74-1.995 1.006-1.278.267-3.012.417-4.818.417-1.807 0-3.541-.15-4.818-.417-1.277-.266-1.996-.629-1.996-1.006v-8.949c0-.378.719-.74 1.996-1.007 1.277-.267 3.011-.417 4.818-.417" fill="#ffffff" fill-opacity=".761615"/><path d="M954 8h-1V6c0-2.76-2.24-5-5-5s-5 2.24-5 5v2h-1c-1.1 0-2 .9-2 2v10c0 1.1.9 2 2 2h12c1.1 0 2-.9 2-2V10c0-1.1-.9-2-2-2zm-6 9c-1.1 0-2-.9-2-2s.9-2 2-2 2 .9 2 2-.9 2-2 2zm3.1-9h-6.2V6c0-1.71 1.39-3.1 3.1-3.1 1.71 0 3.1 1.39 3.1 3.1v2z" fill="#000000"/><path d="M948.051 9.051c1.196 0 2.371.066 3.407.191 1.035.125 1.896.304 2.494.521.598.216.912.462.912.712v8.949c0 .377-.718.74-1.995 1.006-1.278.267-3.012.417-4.818.417-1.807 0-3.541-.15-4.818-.417-1.277-.266-1.996-.629-1.996-1.006v-8.949c0-.378.719-.74 1.996-1.007 1.277-.267 3.011-.417 4.818-.417" fill="#ffffff" fill-opacity=".761615"/><g><path d="M978 8h-1V6c0-2.76-2.24-5-5-5s-5 2.24-5 5v2h-1c-1.1 0-2 .9-2 2v10c0 1.1.9 2 2 2h12c1.1 0 2-.9 2-2V10c0-1.1-.9-2-2-2zm-6 9c-1.1 0-2-.9-2-2s.9-2 2-2 2 .9 2 2-.9 2-2 2zm3.1-9h-6.2V6c0-1.71 1.39-3.1 3.1-3.1 1.71 0 3.1 1.39 3.1 3.1v2z" fill="#000000"/><path d="M972.051 9.051c1.196 0 2.371.066 3.407.191 1.035.125 1.896.304 2.494.521.598.216.912.462.912.712v8.949c0 .377-.718.74-1.995 1.006-1.278.267-3.012.417-4.818.417-1.807 0-3.541-.15-4.818-.417-1.277-.266-1.996-.629-1.996-1.006v-8.949c0-.378.719-.74 1.996-1.007 1.277-.267 3.011-.417 4.818-.417" fill="#ffffff" fill-opacity=".761615"/></g><g><path d="M1002 8h-1V6c0-2.76-2.24-5-5-5s-5 2.24-5 5v2h-1c-1.1 0-2 .9-2 2v10c0 1.1.9 2 2 2h12c1.1 0 2-.9 2-2V10c0-1.1-.9-2-2-2zm-6 9c-1.1 0-2-.9-2-2s.9-2 2-2 2 .9 2 2-.9 2-2 2zm3.1-9h-6.2V6c0-1.71 1.39-3.1 3.1-3.1 1.71 0 3.1 1.39 3.1 3.1v2z" fill="#000000"/><path d="M996.051 9.051c1.196 0 2.371.066 3.407.191 1.035.125 1.896.304 2.494.521.598.216.912.462.912.712v8.949c0 .377-.718.74-1.995 1.006-1.278.267-3.012.417-4.818.417-1.807 0-3.541-.15-4.818-.417-1.277-.266-1.996-.629-1.996-1.006v-8.949c0-.378.719-.74 1.996-1.007 1.277-.267 3.011-.417 4.818-.417" fill="#ffffff" fill-opacity=".761615"/></g><g><path d="M1026 8h-1V6c0-2.76-2.24-5-5-5s-5 2.24-5 5v2h-1c-1.1 0-2 .9-2 2v10c0 1.1.9 2 2 2h12c1.1 0 2-.9 2-2V10c0-1.1-.9-2-2-2zm-6 9c-1.1 0-2-.9-2-2s.9-2 2-2 2 .9 2 2-.9 2-2 2zm3.1-9h-6.2V6c0-1.71 1.39-3.1 3.1-3.1 1.71 0 3.1 1.39 3.1 3.1v2z" fill="#000000"/><path d="M1020.051 9.051c1.196 0 2.371.066 3.407.191 1.035.125 1.896.304 2.494.521.598.216.912.462.912.712v8.949c0 .377-.718.74-1.995 1.006-1.278.267-3.012.417-4.818.417-1.807 0-3.541-.15-4.818-.417-1.277-.266-1.996-.629-1.996-1.006v-8.949c0-.378.719-.74 1.996-1.007 1.277-.267 3.011-.417 4.818-.417" fill="#ffffff" fill-opacity=".761615"/></g><g><path d="M1050 8h-1V6c0-2.76-2.24-5-5-5s-5 2.24-5 5v2h-1c-1.1 0-2 .9-2 2v10c0 1.1.9 2 2 2h12c1.1 0 2-.9 2-2V10c0-1.1-.9-2-2-2zm-6 9c-1.1 0-2-.9-2-2s.9-2 2-2 2 .9 2 2-.9 2-2 2zm3.1-9h-6.2V6c0-1.71 1.39-3.1 3.1-3.1 1.71 0 3.1 1.39 3.1 3.1v2z" fill="#000000"/><path d="M1044.051 9.051c1.196 0 2.371.066 3.407.191 1.035.125 1.896.304 2.494.521.598.216.912.462.912.712v8.949c0 .377-.718.74-1.995 1.006-1.278.267-3.012.417-4.818.417-1.807 0-3.541-.15-4.818-.417-1.277-.266-1.996-.629-1.996-1.006v-8.949c0-.378.719-.74 1.996-1.007 1.277-.267 3.011-.417 4.818-.417" fill="#ffffff" fill-opacity=".761615"/></g><g><path d="M1074 8h-1V6c0-2.76-2.24-5-5-5s-5 2.24-5 5v2h-1c-1.1 0-2 .9-2 2v10c0 1.1.9 2 2 2h12c1.1 0 2-.9 2-2V10c0-1.1-.9-2-2-2zm-6 9c-1.1 0-2-.9-2-2s.9-2 2-2 2 .9 2 2-.9 2-2 2zm3.1-9h-6.2V6c0-1.71 1.39-3.1 3.1-3.1 1.71 0 3.1 1.39 3.1 3.1v2z" fill="#000000"/><path d="M1068.051 9.051c1.196 0 2.371.066 3.407.191 1.035.125 1.896.304 2.494.521.598.216.912.462.912.712v8.949c0 .377-.718.74-1.995 1.006-1.278.267-3.012.417-4.818.417-1.807 0-3.541-.15-4.818-.417-1.277-.266-1.996-.629-1.996-1.006v-8.949c0-.378.719-.74 1.996-1.007 1.277-.267 3.011-.417 4.818-.417" fill="#ffffff" fill-opacity=".761615"/></g><g><path d="M1098 8h-1V6c0-2.76-2.24-5-5-5s-5 2.24-5 5v2h-1c-1.1 0-2 .9-2 2v10c0 1.1.9 2 2 2h12c1.1 0 2-.9 2-2V10c0-1.1-.9-2-2-2zm-6 9c-1.1 0-2-.9-2-2s.9-2 2-2 2 .9 2 2-.9 2-2 2zm3.1-9h-6.2V6c0-1.71 1.39-3.1 3.1-3.1 1.71 0 3.1 1.39 3.1 3.1v2z" fill="#000000"/><path d="M1092.051 9.051c1.196 0 2.371.066 3.407.191 1.035.125 1.896.304 2.494.521.598.216.912.462.912.712v8.949c0 .377-.718.74-1.995 1.006-1.278.267-3.012.417-4.818.417-1.807 0-3.541-.15-4.818-.417-1.277-.266-1.996-.629-1.996-1.006v-8.949c0-.378.719-.74 1.996-1.007 1.277-.267 3.011-.417 4.818-.417" fill="#ffffff" fill-opacity=".761615"/></g><g><path d="M1122 8h-1V6c0-2.76-2.24-5-5-5s-5 2.24-5 5v2h-1c-1.1 0-2 .9-2 2v10c0 1.1.9 2 2 2h12c1.1 0 2-.9 2-2V10c0-1.1-.9-2-2-2zm-6 9c-1.1 0-2-.9-2-2s.9-2 2-2 2 .9 2 2-.9 2-2 2zm3.1-9h-6.2V6c0-1.71 1.39-3.1 3.1-3.1 1.71 0 3.1 1.39 3.1 3.1v2z" fill="#000000"/><path d="M1116.051 9.051c1.196 0 2.371.066 3.407.191 1.035.125 1.896.304 2.494.521.598.216.912.462.912.712v8.949c0 .377-.718.74-1.995 1.006-1.278.267-3.012.417-4.818.417-1.807 0-3.541-.15-4.818-.417-1.277-.266-1.996-.629-1.996-1.006v-8.949c0-.378.719-.74 1.996-1.007 1.277-.267 3.011-.417 4.818-.417" fill="#ffffff" fill-opacity=".761615"/></g><g><path d="M1146 8h-1V6c0-2.76-2.24-5-5-5s-5 2.24-5 5v2h-1c-1.1 0-2 .9-2 2v10c0 1.1.9 2 2 2h12c1.1 0 2-.9 2-2V10c0-1.1-.9-2-2-2zm-6 9c-1.1 0-2-.9-2-2s.9-2 2-2 2 .9 2 2-.9 2-2 2zm3.1-9h-6.2V6c0-1.71 1.39-3.1 3.1-3.1 1.71 0 3.1 1.39 3.1 3.1v2z" fill="#000000"/><path d="M1140.051 9.051c1.196 0 2.371.066 3.407.191 1.035.125 1.896.304 2.494.521.598.216.912.462.912.712v8.949c0 .377-.718.74-1.995 1.006-1.278.267-3.012.417-4.818.417-1.807 0-3.541-.15-4.818-.417-1.277-.266-1.996-.629-1.996-1.006v-8.949c0-.378.719-.74 1.996-1.007 1.277-.267 3.011-.417 4.818-.417" fill="#ffffff" fill-opacity=".761615"/></g><g><path d="M1170 8h-1V6c0-2.76-2.24-5-5-5s-5 2.24-5 5v2h-1c-1.1 0-2 .9-2 2v10c0 1.1.9 2 2 2h12c1.1 0 2-.9 2-2V10c0-1.1-.9-2-2-2zm-6 9c-1.1 0-2-.9-2-2s.9-2 2-2 2 .9 2 2-.9 2-2 2zm3.1-9h-6.2V6c0-1.71 1.39-3.1 3.1-3.1 1.71 0 3.1 1.39 3.1 3.1v2z" fill="#000000"/><path d="M1164.051 9.051c1.196 0 2.371.066 3.407.191 1.035.125 1.896.304 2.494.521.598.216.912.462.912.712v8.949c0 .377-.718.74-1.995 1.006-1.278.267-3.012.417-4.818.417-1.807 0-3.541-.15-4.818-.417-1.277-.266-1.996-.629-1.996-1.006v-8.949c0-.378.719-.74 1.996-1.007 1.277-.267 3.011-.417 4.818-.417" fill="#ffffff" fill-opacity=".761615"/></g><g><path d="M1194 8h-1V6c0-2.76-2.24-5-5-5s-5 2.24-5 5v2h-1c-1.1 0-2 .9-2 2v10c0 1.1.9 2 2 2h12c1.1 0 2-.9 2-2V10c0-1.1-.9-2-2-2zm-6 9c-1.1 0-2-.9-2-2s.9-2 2-2 2 .9 2 2-.9 2-2 2zm3.1-9h-6.2V6c0-1.71 1.39-3.1 3.1-3.1 1.71 0 3.1 1.39 3.1 3.1v2z" fill="#000000"/><path d="M1188.051 9.051c1.196 0 2.371.066 3.407.191 1.035.125 1.896.304 2.494.521.598.216.912.462.912.712v8.949c0 .377-.718.74-1.995 1.006-1.278.267-3.012.417-4.818.417-1.807 0-3.541-.15-4.818-.417-1.277-.266-1.996-.629-1.996-1.006v-8.949c0-.378.719-.74 1.996-1.007 1.277-.267 3.011-.417 4.818-.417" fill="#ffffff" fill-opacity=".761615"/></g><g><path d="M1218 8h-1V6c0-2.76-2.24-5-5-5s-5 2.24-5 5v2h-1c-1.1 0-2 .9-2 2v10c0 1.1.9 2 2 2h12c1.1 0 2-.9 2-2V10c0-1.1-.9-2-2-2zm-6 9c-1.1 0-2-.9-2-2s.9-2 2-2 2 .9 2 2-.9 2-2 2zm3.1-9h-6.2V6c0-1.71 1.39-3.1 3.1-3.1 1.71 0 3.1 1.39 3.1 3.1v2z" fill="#000000"/><path d="M1212.051 9.051c1.196 0 2.371.066 3.407.191 1.035.125 1.896.304 2.494.521.598.216.912.462.912.712v8.949c0 .377-.718.74-1.995 1.006-1.278.267-3.012.417-4.818.417-1.807 0-3.541-.15-4.818-.417-1.277-.266-1.996-.629-1.996-1.006v-8.949c0-.378.719-.74 1.996-1.007 1.277-.267 3.011-.417 4.818-.417" fill="#ffffff" fill-opacity=".761615"/></g><g><path d="M1242 8h-1V6c0-2.76-2.24-5-5-5s-5 2.24-5 5v2h-1c-1.1 0-2 .9-2 2v10c0 1.1.9 2 2 2h12c1.1 0 2-.9 2-2V10c0-1.1-.9-2-2-2zm-6 9c-1.1 0-2-.9-2-2s.9-2 2-2 2 .9 2 2-.9 2-2 2zm3.1-9h-6.2V6c0-1.71 1.39-3.1 3.1-3.1 1.71 0 3.1 1.39 3.1 3.1v2z" fill="#000000"/><path d="M1236.051 9.051c1.196 0 2.371.066 3.407.191 1.035.125 1.896.304 2.494.521.598.216.912.462.912.712v8.949c0 .377-.718.74-1.995 1.006-1.278.267-3.012.417-4.818.417-1.807 0-3.541-.15-4.818-.417-1.277-.266-1.996-.629-1.996-1.006v-8.949c0-.378.719-.74 1.996-1.007 1.277-.267 3.011-.417 4.818-.417" fill="#ffffff" fill-opacity=".761615"/></g><g><path d="M1266 8h-1V6c0-2.76-2.24-5-5-5s-5 2.24-5 5v2h-1c-1.1 0-2 .9-2 2v10c0 1.1.9 2 2 2h12c1.1 0 2-.9 2-2V10c0-1.1-.9-2-2-2zm-6 9c-1.1 0-2-.9-2-2s.9-2 2-2 2 .9 2 2-.9 2-2 2zm3.1-9h-6.2V6c0-1.71 1.39-3.1 3.1-3.1 1.71 0 3.1 1.39 3.1 3.1v2z" fill="#000000"/><path d="M1260.051 9.051c1.196 0 2.371.066 3.407.191 1.035.125 1.896.304 2.494.521.598.216.912.462.912.712v8.949c0 .377-.718.74-1.995 1.006-1.278.267-3.012.417-4.818.417-1.807 0-3.541-.15-4.818-.417-1.277-.266-1.996-.629-1.996-1.006v-8.949c0-.378.719-.74 1.996-1.007 1.277-.267 3.011-.417 4.818-.417" fill="#ffffff" fill-opacity=".761615"/></g><g><path d="M1290 8h-1V6c0-2.76-2.24-5-5-5s-5 2.24-5 5v2h-1c-1.1 0-2 .9-2 2v10c0 1.1.9 2 2 2h12c1.1 0 2-.9 2-2V10c0-1.1-.9-2-2-2zm-6 9c-1.1 0-2-.9-2-2s.9-2 2-2 2 .9 2 2-.9 2-2 2zm3.1-9h-6.2V6c0-1.71 1.39-3.1 3.1-3.1 1.71 0 3.1 1.39 3.1 3.1v2z" fill="#000000"/><path d="M1284.051 9.051c1.196 0 2.371.066 3.407.191 1.035.125 1.896.304 2.494.521.598.216.912.462.912.712v8.949c0 .377-.718.74-1.995 1.006-1.278.267-3.012.417-4.818.417-1.807 0-3.541-.15-4.818-.417-1.277-.266-1.996-.629-1.996-1.006v-8.949c0-.378.719-.74 1.996-1.007 1.277-.267 3.011-.417 4.818-.417" fill="#ffffff" fill-opacity=".761615"/></g><g><path d="M1314 8h-1V6c0-2.76-2.24-5-5-5s-5 2.24-5 5v2h-1c-1.1 0-2 .9-2 2v10c0 1.1.9 2 2 2h12c1.1 0 2-.9 2-2V10c0-1.1-.9-2-2-2zm-6 9c-1.1 0-2-.9-2-2s.9-2 2-2 2 .9 2 2-.9 2-2 2zm3.1-9h-6.2V6c0-1.71 1.39-3.1 3.1-3.1 1.71 0 3.1 1.39 3.1 3.1v2z" fill="#000000"/><path d="M1308.051 9.051c1.196 0 2.371.066 3.407.191 1.035.125 1.896.304 2.494.521.598.216.912.462.912.712v8.949c0 .377-.718.74-1.995 1.006-1.278.267-3.012.417-4.818.417-1.807 0-3.541-.15-4.818-.417-1.277-.266-1.996-.629-1.996-1.006v-8.949c0-.378.719-.74 1.996-1.007 1.277-.267 3.011-.417 4.818-.417" fill="#ffffff" fill-opacity=".761615"/></g><g><path d="M1338 8h-1V6c0-2.76-2.24-5-5-5s-5 2.24-5 5v2h-1c-1.1 0-2 .9-2 2v10c0 1.1.9 2 2 2h12c1.1 0 2-.9 2-2V10c0-1.1-.9-2-2-2zm-6 9c-1.1 0-2-.9-2-2s.9-2 2-2 2 .9 2 2-.9 2-2 2zm3.1-9h-6.2V6c0-1.71 1.39-3.1 3.1-3.1 1.71 0 3.1 1.39 3.1 3.1v2z" fill="#000000"/><path d="M1332.051 9.051c1.196 0 2.371.066 3.407.191 1.035.125 1.896.304 2.494.521.598.216.912.462.912.712v8.949c0 .377-.718.74-1.995 1.006-1.278.267-3.012.417-4.818.417-1.807 0-3.541-.15-4.818-.417-1.277-.266-1.996-.629-1.996-1.006v-8.949c0-.378.719-.74 1.996-1.007 1.277-.267 3.011-.417 4.818-.417" fill="#ffffff" fill-opacity=".761615"/></g><g><path d="M1362 8h-1V6c0-2.76-2.24-5-5-5s-5 2.24-5 5v2h-1c-1.1 0-2 .9-2 2v10c0 1.1.9 2 2 2h12c1.1 0 2-.9 2-2V10c0-1.1-.9-2-2-2zm-6 9c-1.1 0-2-.9-2-2s.9-2 2-2 2 .9 2 2-.9 2-2 2zm3.1-9h-6.2V6c0-1.71 1.39-3.1 3.1-3.1 1.71 0 3.1 1.39 3.1 3.1v2z" fill="#000000"/><path d="M1356.051 9.051c1.196 0 2.371.066 3.407.191 1.035.125 1.896.304 2.494.521.598.216.912.462.912.712v8.949c0 .377-.718.74-1.995 1.006-1.278.267-3.012.417-4.818.417-1.807 0-3.541-.15-4.818-.417-1.277-.266-1.996-.629-1.996-1.006v-8.949c0-.378.719-.74 1.996-1.007 1.277-.267 3.011-.417 4.818-.417" fill="#ffffff" fill-opacity=".761615"/></g><g><path d="M1386 8h-1V6c0-2.76-2.24-5-5-5s-5 2.24-5 5v2h-1c-1.1 0-2 .9-2 2v10c0 1.1.9 2 2 2h12c1.1 0 2-.9 2-2V10c0-1.1-.9-2-2-2zm-6 9c-1.1 0-2-.9-2-2s.9-2 2-2 2 .9 2 2-.9 2-2 2zm3.1-9h-6.2V6c0-1.71 1.39-3.1 3.1-3.1 1.71 0 3.1 1.39 3.1 3.1v2z" fill="#000000"/><path d="M1380.051 9.051c1.196 0 2.371.066 3.407.191 1.035.125 1.896.304 2.494.521.598.216.912.462.912.712v8.949c0 .377-.718.74-1.995 1.006-1.278.267-3.012.417-4.818.417-1.807 0-3.541-.15-4.818-.417-1.277-.266-1.996-.629-1.996-1.006v-8.949c0-.378.719-.74 1.996-1.007 1.277-.267 3.011-.417 4.818-.417" fill="#ffffff" fill-opacity=".761615"/></g><g><path d="M1410 8h-1V6c0-2.76-2.24-5-5-5s-5 2.24-5 5v2h-1c-1.1 0-2 .9-2 2v10c0 1.1.9 2 2 2h12c1.1 0 2-.9 2-2V10c0-1.1-.9-2-2-2zm-6 9c-1.1 0-2-.9-2-2s.9-2 2-2 2 .9 2 2-.9 2-2 2zm3.1-9h-6.2V6c0-1.71 1.39-3.1 3.1-3.1 1.71 0 3.1 1.39 3.1 3.1v2z" fill="#000000"/><path d="M1404.051 9.051c1.196 0 2.371.066 3.407.191 1.035.125 1.896.304 2.494.521.598.216.912.462.912.712v8.949c0 .377-.718.74-1.995 1.006-1.278.267-3.012.417-4.818.417-1.807 0-3.541-.15-4.818-.417-1.277-.266-1.996-.629-1.996-1.006v-8.949c0-.378.719-.74 1.996-1.007 1.277-.267 3.011-.417 4.818-.417" fill="#ffffff" fill-opacity=".761615"/></g><g><path d="M1434 8h-1V6c0-2.76-2.24-5-5-5s-5 2.24-5 5v2h-1c-1.1 0-2 .9-2 2v10c0 1.1.9 2 2 2h12c1.1 0 2-.9 2-2V10c0-1.1-.9-2-2-2zm-6 9c-1.1 0-2-.9-2-2s.9-2 2-2 2 .9 2 2-.9 2-2 2zm3.1-9h-6.2V6c0-1.71 1.39-3.1 3.1-3.1 1.71 0 3.1 1.39 3.1 3.1v2z" fill="#000000"/><path d="M1428.051 9.051c1.196 0 2.371.066 3.407.191 1.035.125 1.896.304 2.494.521.598.216.912.462.912.712v8.949c0 .377-.718.74-1.995 1.006-1.278.267-3.012.417-4.818.417-1.807 0-3.541-.15-4.818-.417-1.277-.266-1.996-.629-1.996-1.006v-8.949c0-.378.719-.74 1.996-1.007 1.277-.267 3.011-.417 4.818-.417" fill="#ffffff" fill-opacity=".761615"/></g><g><path d="M1458 8h-1V6c0-2.76-2.24-5-5-5s-5 2.24-5 5v2h-1c-1.1 0-2 .9-2 2v10c0 1.1.9 2 2 2h12c1.1 0 2-.9 2-2V10c0-1.1-.9-2-2-2zm-6 9c-1.1 0-2-.9-2-2s.9-2 2-2 2 .9 2 2-.9 2-2 2zm3.1-9h-6.2V6c0-1.71 1.39-3.1 3.1-3.1 1.71 0 3.1 1.39 3.1 3.1v2z" fill="#000000"/><path d="M1452.051 9.051c1.196 0 2.371.066 3.407.191 1.035.125 1.896.304 2.494.521.598.216.912.462.912.712v8.949c0 .377-.718.74-1.995 1.006-1.278.267-3.012.417-4.818.417-1.807 0-3.541-.15-4.818-.417-1.277-.266-1.996-.629-1.996-1.006v-8.949c0-.378.719-.74 1.996-1.007 1.277-.267 3.011-.417 4.818-.417" fill="#ffffff" fill-opacity=".761615"/></g><g><path d="M1482 8h-1V6c0-2.76-2.24-5-5-5s-5 2.24-5 5v2h-1c-1.1 0-2 .9-2 2v10c0 1.1.9 2 2 2h12c1.1 0 2-.9 2-2V10c0-1.1-.9-2-2-2zm-6 9c-1.1 0-2-.9-2-2s.9-2 2-2 2 .9 2 2-.9 2-2 2zm3.1-9h-6.2V6c0-1.71 1.39-3.1 3.1-3.1 1.71 0 3.1 1.39 3.1 3.1v2z" fill="#000000"/><path d="M1476.051 9.051c1.196 0 2.371.066 3.407.191 1.035.125 1.896.304 2.494.521.598.216.912.462.912.712v8.949c0 .377-.718.74-1.995 1.006-1.278.267-3.012.417-4.818.417-1.807 0-3.541-.15-4.818-.417-1.277-.266-1.996-.629-1.996-1.006v-8.949c0-.378.719-.74 1.996-1.007 1.277-.267 3.011-.417 4.818-.417" fill="#ffffff" fill-opacity=".761615"/></g><g><path d="M1506 8h-1V6c0-2.76-2.24-5-5-5s-5 2.24-5 5v2h-1c-1.1 0-2 .9-2 2v10c0 1.1.9 2 2 2h12c1.1 0 2-.9 2-2V10c0-1.1-.9-2-2-2zm-6 9c-1.1 0-2-.9-2-2s.9-2 2-2 2 .9 2 2-.9 2-2 2zm3.1-9h-6.2V6c0-1.71 1.39-3.1 3.1-3.1 1.71 0 3.1 1.39 3.1 3.1v2z" fill="#000000"/><path d="M1500.051 9.051c1.196 0 2.371.066 3.407.191 1.035.125 1.896.304 2.494.521.598.216.912.462.912.712v8.949c0 .377-.718.74-1.995 1.006-1.278.267-3.012.417-4.818.417-1.807 0-3.541-.15-4.818-.417-1.277-.266-1.996-.629-1.996-1.006v-8.949c0-.378.719-.74 1.996-1.007 1.277-.267 3.011-.417 4.818-.417" fill="#ffffff" fill-opacity=".761615"/></g><g><path d="M1530 8h-1V6c0-2.76-2.24-5-5-5s-5 2.24-5 5v2h-1c-1.1 0-2 .9-2 2v10c0 1.1.9 2 2 2h12c1.1 0 2-.9 2-2V10c0-1.1-.9-2-2-2zm-6 9c-1.1 0-2-.9-2-2s.9-2 2-2 2 .9 2 2-.9 2-2 2zm3.1-9h-6.2V6c0-1.71 1.39-3.1 3.1-3.1 1.71 0 3.1 1.39 3.1 3.1v2z" fill="#000000"/><path d="M1524.051 9.051c1.196 0 2.371.066 3.407.191 1.035.125 1.896.304 2.494.521.598.216.912.462.912.712v8.949c0 .377-.718.74-1.995 1.006-1.278.267-3.012.417-4.818.417-1.807 0-3.541-.15-4.818-.417-1.277-.266-1.996-.629-1.996-1.006v-8.949c0-.378.719-.74 1.996-1.007 1.277-.267 3.011-.417 4.818-.417" fill="#ffffff" fill-opacity=".761615"/></g><g><path d="M1554 8h-1V6c0-2.76-2.24-5-5-5s-5 2.24-5 5v2h-1c-1.1 0-2 .9-2 2v10c0 1.1.9 2 2 2h12c1.1 0 2-.9 2-2V10c0-1.1-.9-2-2-2zm-6 9c-1.1 0-2-.9-2-2s.9-2 2-2 2 .9 2 2-.9 2-2 2zm3.1-9h-6.2V6c0-1.71 1.39-3.1 3.1-3.1 1.71 0 3.1 1.39 3.1 3.1v2z" fill="#000000"/><path d="M1548.051 9.051c1.196 0 2.371.066 3.407.191 1.035.125 1.896.304 2.494.521.598.216.912.462.912.712v8.949c0 .377-.718.74-1.995 1.006-1.278.267-3.012.417-4.818.417-1.807 0-3.541-.15-4.818-.417-1.277-.266-1.996-.629-1.996-1.006v-8.949c0-.378.719-.74 1.996-1.007 1.277-.267 3.011-.417 4.818-.417" fill="#ffffff" fill-opacity=".761615"/></g><g><path d="M1578 8h-1V6c0-2.76-2.24-5-5-5s-5 2.24-5 5v2h-1c-1.1 0-2 .9-2 2v10c0 1.1.9 2 2 2h12c1.1 0 2-.9 2-2V10c0-1.1-.9-2-2-2zm-6 9c-1.1 0-2-.9-2-2s.9-2 2-2 2 .9 2 2-.9 2-2 2zm3.1-9h-6.2V6c0-1.71 1.39-3.1 3.1-3.1 1.71 0 3.1 1.39 3.1 3.1v2z" fill="#000000"/><path d="M1572.051 9.051c1.196 0 2.371.066 3.407.191 1.035.125 1.896.304 2.494.521.598.216.912.462.912.712v8.949c0 .377-.718.74-1.995 1.006-1.278.267-3.012.417-4.818.417-1.807 0-3.541-.15-4.818-.417-1.277-.266-1.996-.629-1.996-1.006v-8.949c0-.378.719-.74 1.996-1.007 1.277-.267 3.011-.417 4.818-.417" fill="#ffffff" fill-opacity=".761615"/></g><g><path d="M1602 8h-1V6c0-2.76-2.24-5-5-5s-5 2.24-5 5v2h-1c-1.1 0-2 .9-2 2v10c0 1.1.9 2 2 2h12c1.1 0 2-.9 2-2V10c0-1.1-.9-2-2-2zm-6 9c-1.1 0-2-.9-2-2s.9-2 2-2 2 .9 2 2-.9 2-2 2zm3.1-9h-6.2V6c0-1.71 1.39-3.1 3.1-3.1 1.71 0 3.1 1.39 3.1 3.1v2z" fill="#000000"/><path d="M1596.051 9.051c1.196 0 2.371.066 3.407.191 1.035.125 1.896.304 2.494.521.598.216.912.462.912.712v8.949c0 .377-.718.74-1.995 1.006-1.278.267-3.012.417-4.818.417-1.807 0-3.541-.15-4.818-.417-1.277-.266-1.996-.629-1.996-1.006v-8.949c0-.378.719-.74 1.996-1.007 1.277-.267 3.011-.417 4.818-.417" fill="#ffffff" fill-opacity=".761615"/></g><g><path d="M1626 8h-1V6c0-2.76-2.24-5-5-5s-5 2.24-5 5v2h-1c-1.1 0-2 .9-2 2v10c0 1.1.9 2 2 2h12c1.1 0 2-.9 2-2V10c0-1.1-.9-2-2-2zm-6 9c-1.1 0-2-.9-2-2s.9-2 2-2 2 .9 2 2-.9 2-2 2zm3.1-9h-6.2V6c0-1.71 1.39-3.1 3.1-3.1 1.71 0 3.1 1.39 3.1 3.1v2z" fill="#000000"/><path d="M1620.051 9.051c1.196 0 2.371.066 3.407.191 1.035.125 1.896.304 2.494.521.598.216.912.462.912.712v8.949c0 .377-.718.74-1.995 1.006-1.278.267-3.012.417-4.818.417-1.807 0-3.541-.15-4.818-.417-1.277-.266-1.996-.629-1.996-1.006v-8.949c0-.378.719-.74 1.996-1.007 1.277-.267 3.011-.417 4.818-.417" fill="#ffffff" fill-opacity=".761615"/></g><g><path d="M1650 8h-1V6c0-2.76-2.24-5-5-5s-5 2.24-5 5v2h-1c-1.1 0-2 .9-2 2v10c0 1.1.9 2 2 2h12c1.1 0 2-.9 2-2V10c0-1.1-.9-2-2-2zm-6 9c-1.1 0-2-.9-2-2s.9-2 2-2 2 .9 2 2-.9 2-2 2zm3.1-9h-6.2V6c0-1.71 1.39-3.1 3.1-3.1 1.71 0 3.1 1.39 3.1 3.1v2z" fill="#000000"/><path d="M1644.051 9.051c1.196 0 2.371.066 3.407.191 1.035.125 1.896.304 2.494.521.598.216.912.462.912.712v8.949c0 .377-.718.74-1.995 1.006-1.278.267-3.012.417-4.818.417-1.807 0-3.541-.15-4.818-.417-1.277-.266-1.996-.629-1.996-1.006v-8.949c0-.378.719-.74 1.996-1.007 1.277-.267 3.011-.417 4.818-.417" fill="#ffffff" fill-opacity=".761615"/></g><g><path d="M1674 8h-1V6c0-2.76-2.24-5-5-5s-5 2.24-5 5v2h-1c-1.1 0-2 .9-2 2v10c0 1.1.9 2 2 2h12c1.1 0 2-.9 2-2V10c0-1.1-.9-2-2-2zm-6 9c-1.1 0-2-.9-2-2s.9-2 2-2 2 .9 2 2-.9 2-2 2zm3.1-9h-6.2V6c0-1.71 1.39-3.1 3.1-3.1 1.71 0 3.1 1.39 3.1 3.1v2z" fill="#000000"/><path d="M1668.051 9.051c1.196 0 2.371.066 3.407.191 1.035.125 1.896.304 2.494.521.598.216.912.462.912.712v8.949c0 .377-.718.74-1.995 1.006-1.278.267-3.012.417-4.818.417-1.807 0-3.541-.15-4.818-.417-1.277-.266-1.996-.629-1.996-1.006v-8.949c0-.378.719-.74 1.996-1.007 1.277-.267 3.011-.417 4.818-.417" fill="#ffffff" fill-opacity=".761615"/></g><g><path d="M1698 8h-1V6c0-2.76-2.24-5-5-5s-5 2.24-5 5v2h-1c-1.1 0-2 .9-2 2v10c0 1.1.9 2 2 2h12c1.1 0 2-.9 2-2V10c0-1.1-.9-2-2-2zm-6 9c-1.1 0-2-.9-2-2s.9-2 2-2 2 .9 2 2-.9 2-2 2zm3.1-9h-6.2V6c0-1.71 1.39-3.1 3.1-3.1 1.71 0 3.1 1.39 3.1 3.1v2z" fill="#000000"/><path d="M1692.051 9.051c1.196 0 2.371.066 3.407.191 1.035.125 1.896.304 2.494.521.598.216.912.462.912.712v8.949c0 .377-.718.74-1.995 1.006-1.278.267-3.012.417-4.818.417-1.807 0-3.541-.15-4.818-.417-1.277-.266-1.996-.629-1.996-1.006v-8.949c0-.378.719-.74 1.996-1.007 1.277-.267 3.011-.417 4.818-.417" fill="#ffffff" fill-opacity=".761615"/></g><g><path d="M1722 8h-1V6c0-2.76-2.24-5-5-5s-5 2.24-5 5v2h-1c-1.1 0-2 .9-2 2v10c0 1.1.9 2 2 2h12c1.1 0 2-.9 2-2V10c0-1.1-.9-2-2-2zm-6 9c-1.1 0-2-.9-2-2s.9-2 2-2 2 .9 2 2-.9 2-2 2zm3.1-9h-6.2V6c0-1.71 1.39-3.1 3.1-3.1 1.71 0 3.1 1.39 3.1 3.1v2z" fill="#000000"/><path d="M1716.051 9.051c1.196 0 2.371.066 3.407.191 1.035.125 1.896.304 2.494.521.598.216.912.462.912.712v8.949c0 .377-.718.74-1.995 1.006-1.278.267-3.012.417-4.818.417-1.807 0-3.541-.15-4.818-.417-1.277-.266-1.996-.629-1.996-1.006v-8.949c0-.378.719-.74 1.996-1.007 1.277-.267 3.011-.417 4.818-.417" fill="#ffffff" fill-opacity=".761615"/></g><g><path d="M1746 8h-1V6c0-2.76-2.24-5-5-5s-5 2.24-5 5v2h-1c-1.1 0-2 .9-2 2v10c0 1.1.9 2 2 2h12c1.1 0 2-.9 2-2V10c0-1.1-.9-2-2-2zm-6 9c-1.1 0-2-.9-2-2s.9-2 2-2 2 .9 2 2-.9 2-2 2zm3.1-9h-6.2V6c0-1.71 1.39-3.1 3.1-3.1 1.71 0 3.1 1.39 3.1 3.1v2z" fill="#000000"/><path d="M1740.051 9.051c1.196 0 2.371.066 3.407.191 1.035.125 1.896.304 2.494.521.598.216.912.462.912.712v8.949c0 .377-.718.74-1.995 1.006-1.278.267-3.012.417-4.818.417-1.807 0-3.541-.15-4.818-.417-1.277-.266-1.996-.629-1.996-1.006v-8.949c0-.378.719-.74 1.996-1.007 1.277-.267 3.011-.417 4.818-.417" fill="#ffffff" fill-opacity=".761615"/></g><g><path d="M1770 8h-1V6c0-2.76-2.24-5-5-5s-5 2.24-5 5v2h-1c-1.1 0-2 .9-2 2v10c0 1.1.9 2 2 2h12c1.1 0 2-.9 2-2V10c0-1.1-.9-2-2-2zm-6 9c-1.1 0-2-.9-2-2s.9-2 2-2 2 .9 2 2-.9 2-2 2zm3.1-9h-6.2V6c0-1.71 1.39-3.1 3.1-3.1 1.71 0 3.1 1.39 3.1 3.1v2z" fill="#000000"/><path d="M1764.051 9.051c1.196 0 2.371.066 3.407.191 1.035.125 1.896.304 2.494.521.598.216.912.462.912.712v8.949c0 .377-.718.74-1.995 1.006-1.278.267-3.012.417-4.818.417-1.807 0-3.541-.15-4.818-.417-1.277-.266-1.996-.629-1.996-1.006v-8.949c0-.378.719-.74 1.996-1.007 1.277-.267 3.011-.417 4.818-.417" fill="#ffffff" fill-opacity=".761615"/></g><g><path d="M1794 8h-1V6c0-2.76-2.24-5-5-5s-5 2.24-5 5v2h-1c-1.1 0-2 .9-2 2v10c0 1.1.9 2 2 2h12c1.1 0 2-.9 2-2V10c0-1.1-.9-2-2-2zm-6 9c-1.1 0-2-.9-2-2s.9-2 2-2 2 .9 2 2-.9 2-2 2zm3.1-9h-6.2V6c0-1.71 1.39-3.1 3.1-3.1 1.71 0 3.1 1.39 3.1 3.1v2z" fill="#000000"/><path d="M1788.051 9.051c1.196 0 2.371.066 3.407.191 1.035.125 1.896.304 2.494.521.598.216.912.462.912.712v8.949c0 .377-.718.74-1.995 1.006-1.278.267-3.012.417-4.818.417-1.807 0-3.541-.15-4.818-.417-1.277-.266-1.996-.629-1.996-1.006v-8.949c0-.378.719-.74 1.996-1.007 1.277-.267 3.011-.417 4.818-.417" fill="#ffffff" fill-opacity=".761615"/></g><g><path d="M1818 8h-1V6c0-2.76-2.24-5-5-5s-5 2.24-5 5v2h-1c-1.1 0-2 .9-2 2v10c0 1.1.9 2 2 2h12c1.1 0 2-.9 2-2V10c0-1.1-.9-2-2-2zm-6 9c-1.1 0-2-.9-2-2s.9-2 2-2 2 .9 2 2-.9 2-2 2zm3.1-9h-6.2V6c0-1.71 1.39-3.1 3.1-3.1 1.71 0 3.1 1.39 3.1 3.1v2z" fill="#000000"/><path d="M1812.051 9.051c1.196 0 2.371.066 3.407.191 1.035.125 1.896.304 2.494.521.598.216.912.462.912.712v8.949c0 .377-.718.74-1.995 1.006-1.278.267-3.012.417-4.818.417-1.807 0-3.541-.15-4.818-.417-1.277-.266-1.996-.629-1.996-1.006v-8.949c0-.378.719-.74 1.996-1.007 1.277-.267 3.011-.417 4.818-.417" fill="#ffffff" fill-opacity=".761615"/></g><g><path d="M1842 8h-1V6c0-2.76-2.24-5-5-5s-5 2.24-5 5v2h-1c-1.1 0-2 .9-2 2v10c0 1.1.9 2 2 2h12c1.1 0 2-.9 2-2V10c0-1.1-.9-2-2-2zm-6 9c-1.1 0-2-.9-2-2s.9-2 2-2 2 .9 2 2-.9 2-2 2zm3.1-9h-6.2V6c0-1.71 1.39-3.1 3.1-3.1 1.71 0 3.1 1.39 3.1 3.1v2z" fill="#000000"/><path d="M1836.051 9.051c1.196 0 2.371.066 3.407.191 1.035.125 1.896.304 2.494.521.598.216.912.462.912.712v8.949c0 .377-.718.74-1.995 1.006-1.278.267-3.012.417-4.818.417-1.807 0-3.541-.15-4.818-.417-1.277-.266-1.996-.629-1.996-1.006v-8.949c0-.378.719-.74 1.996-1.007 1.277-.267 3.011-.417 4.818-.417" fill="#ffffff" fill-opacity=".761615"/></g><g><path d="M1866 8h-1V6c0-2.76-2.24-5-5-5s-5 2.24-5 5v2h-1c-1.1 0-2 .9-2 2v10c0 1.1.9 2 2 2h12c1.1 0 2-.9 2-2V10c0-1.1-.9-2-2-2zm-6 9c-1.1 0-2-.9-2-2s.9-2 2-2 2 .9 2 2-.9 2-2 2zm3.1-9h-6.2V6c0-1.71 1.39-3.1 3.1-3.1 1.71 0 3.1 1.39 3.1 3.1v2z" fill="#000000"/><path d="M1860.051 9.051c1.196 0 2.371.066 3.407.191 1.035.125 1.896.304 2.494.521.598.216.912.462.912.712v8.949c0 .377-.718.74-1.995 1.006-1.278.267-3.012.417-4.818.417-1.807 0-3.541-.15-4.818-.417-1.277-.266-1.996-.629-1.996-1.006v-8.949c0-.378.719-.74 1.996-1.007 1.277-.267 3.011-.417 4.818-.417" fill="#ffffff" fill-opacity=".761615"/></g><g><path d="M1890 8h-1V6c0-2.76-2.24-5-5-5s-5 2.24-5 5v2h-1c-1.1 0-2 .9-2 2v10c0 1.1.9 2 2 2h12c1.1 0 2-.9 2-2V10c0-1.1-.9-2-2-2zm-6 9c-1.1 0-2-.9-2-2s.9-2 2-2 2 .9 2 2-.9 2-2 2zm3.1-9h-6.2V6c0-1.71 1.39-3.1 3.1-3.1 1.71 0 3.1 1.39 3.1 3.1v2z" fill="#000000"/><path d="M1884.051 9.051c1.196 0 2.371.066 3.407.191 1.035.125 1.896.304 2.494.521.598.216.912.462.912.712v8.949c0 .377-.718.74-1.995 1.006-1.278.267-3.012.417-4.818.417-1.807 0-3.541-.15-4.818-.417-1.277-.266-1.996-.629-1.996-1.006v-8.949c0-.378.719-.74 1.996-1.007 1.277-.267 3.011-.417 4.818-.417" fill="#ffffff" fill-opacity=".761615"/></g></svg>