<svg xmlns="http://www.w3.org/2000/svg" viewBox="0 0 1896 24" width="1896" height="24"><path d="M12 5.9c1.16 0 2.1.94 2.1 2.1 0 1.16-.94 2.1-2.1 2.1-1.16 0-2.1-.94-2.1-2.1 0-1.16.94-2.1 2.1-2.1m0 9c2.97 0 6.1 1.46 6.1 2.1v1.1H5.9V17c0-.64 3.13-2.1 6.1-2.1M12 4C9.79 4 8 5.79 8 8s1.79 4 4 4 4-1.79 4-4-1.79-4-4-4zm0 9c-2.67 0-8 1.34-8 4v3h16v-3c0-2.66-5.33-4-8-4zM36 5.9c1.16 0 2.1.94 2.1 2.1 0 1.16-.94 2.1-2.1 2.1-1.16 0-2.1-.94-2.1-2.1 0-1.16.94-2.1 2.1-2.1m0 9c2.97 0 6.1 1.46 6.1 2.1v1.1H29.9V17c0-.64 3.13-2.1 6.1-2.1M36 4c-2.21 0-4 1.79-4 4s1.79 4 4 4 4-1.79 4-4-1.79-4-4-4zm0 9c-2.67 0-8 1.34-8 4v3h16v-3c0-2.66-5.33-4-8-4zM60 5.9c1.16 0 2.1.94 2.1 2.1 0 1.16-.94 2.1-2.1 2.1-1.16 0-2.1-.94-2.1-2.1 0-1.16.94-2.1 2.1-2.1m0 9c2.97 0 6.1 1.46 6.1 2.1v1.1H53.9V17c0-.64 3.13-2.1 6.1-2.1M60 4c-2.21 0-4 1.79-4 4s1.79 4 4 4 4-1.79 4-4-1.79-4-4-4zm0 9c-2.67 0-8 1.34-8 4v3h16v-3c0-2.66-5.33-4-8-4zM84 5.9c1.16 0 2.1.94 2.1 2.1 0 1.16-.94 2.1-2.1 2.1-1.16 0-2.1-.94-2.1-2.1 0-1.16.94-2.1 2.1-2.1m0 9c2.97 0 6.1 1.46 6.1 2.1v1.1H77.9V17c0-.64 3.13-2.1 6.1-2.1M84 4c-2.21 0-4 1.79-4 4s1.79 4 4 4 4-1.79 4-4-1.79-4-4-4zm0 9c-2.67 0-8 1.34-8 4v3h16v-3c0-2.66-5.33-4-8-4zM108 5.9c1.16 0 2.1.94 2.1 2.1 0 1.16-.94 2.1-2.1 2.1-1.16 0-2.1-.94-2.1-2.1 0-1.16.94-2.1 2.1-2.1m0 9c2.97 0 6.1 1.46 6.1 2.1v1.1h-12.2V17c0-.64 3.13-2.1 6.1-2.1M108 4c-2.21 0-4 1.79-4 4s1.79 4 4 4 4-1.79 4-4-1.79-4-4-4zm0 9c-2.67 0-8 1.34-8 4v3h16v-3c0-2.66-5.33-4-8-4zM132 5.9c1.16 0 2.1.94 2.1 2.1 0 1.16-.94 2.1-2.1 2.1-1.16 0-2.1-.94-2.1-2.1 0-1.16.94-2.1 2.1-2.1m0 9c2.97 0 6.1 1.46 6.1 2.1v1.1h-12.2V17c0-.64 3.13-2.1 6.1-2.1M132 4c-2.21 0-4 1.79-4 4s1.79 4 4 4 4-1.79 4-4-1.79-4-4-4zm0 9c-2.67 0-8 1.34-8 4v3h16v-3c0-2.66-5.33-4-8-4zM156 5.9c1.16 0 2.1.94 2.1 2.1 0 1.16-.94 2.1-2.1 2.1-1.16 0-2.1-.94-2.1-2.1 0-1.16.94-2.1 2.1-2.1m0 9c2.97 0 6.1 1.46 6.1 2.1v1.1h-12.2V17c0-.64 3.13-2.1 6.1-2.1M156 4c-2.21 0-4 1.79-4 4s1.79 4 4 4 4-1.79 4-4-1.79-4-4-4zm0 9c-2.67 0-8 1.34-8 4v3h16v-3c0-2.66-5.33-4-8-4zM180 5.9c1.16 0 2.1.94 2.1 2.1 0 1.16-.94 2.1-2.1 2.1-1.16 0-2.1-.94-2.1-2.1 0-1.16.94-2.1 2.1-2.1m0 9c2.97 0 6.1 1.46 6.1 2.1v1.1h-12.2V17c0-.64 3.13-2.1 6.1-2.1M180 4c-2.21 0-4 1.79-4 4s1.79 4 4 4 4-1.79 4-4-1.79-4-4-4zm0 9c-2.67 0-8 1.34-8 4v3h16v-3c0-2.66-5.33-4-8-4zM204 5.9c1.16 0 2.1.94 2.1 2.1 0 1.16-.94 2.1-2.1 2.1-1.16 0-2.1-.94-2.1-2.1 0-1.16.94-2.1 2.1-2.1m0 9c2.97 0 6.1 1.46 6.1 2.1v1.1h-12.2V17c0-.64 3.13-2.1 6.1-2.1M204 4c-2.21 0-4 1.79-4 4s1.79 4 4 4 4-1.79 4-4-1.79-4-4-4zm0 9c-2.67 0-8 1.34-8 4v3h16v-3c0-2.66-5.33-4-8-4zM228 5.9c1.16 0 2.1.94 2.1 2.1 0 1.16-.94 2.1-2.1 2.1-1.16 0-2.1-.94-2.1-2.1 0-1.16.94-2.1 2.1-2.1m0 9c2.97 0 6.1 1.46 6.1 2.1v1.1h-12.2V17c0-.64 3.13-2.1 6.1-2.1M228 4c-2.21 0-4 1.79-4 4s1.79 4 4 4 4-1.79 4-4-1.79-4-4-4zm0 9c-2.67 0-8 1.34-8 4v3h16v-3c0-2.66-5.33-4-8-4zM252 5.9c1.16 0 2.1.94 2.1 2.1 0 1.16-.94 2.1-2.1 2.1-1.16 0-2.1-.94-2.1-2.1 0-1.16.94-2.1 2.1-2.1m0 9c2.97 0 6.1 1.46 6.1 2.1v1.1h-12.2V17c0-.64 3.13-2.1 6.1-2.1M252 4c-2.21 0-4 1.79-4 4s1.79 4 4 4 4-1.79 4-4-1.79-4-4-4zm0 9c-2.67 0-8 1.34-8 4v3h16v-3c0-2.66-5.33-4-8-4zM276 5.9c1.16 0 2.1.94 2.1 2.1 0 1.16-.94 2.1-2.1 2.1-1.16 0-2.1-.94-2.1-2.1 0-1.16.94-2.1 2.1-2.1m0 9c2.97 0 6.1 1.46 6.1 2.1v1.1h-12.2V17c0-.64 3.13-2.1 6.1-2.1M276 4c-2.21 0-4 1.79-4 4s1.79 4 4 4 4-1.79 4-4-1.79-4-4-4zm0 9c-2.67 0-8 1.34-8 4v3h16v-3c0-2.66-5.33-4-8-4zM300 5.9c1.16 0 2.1.94 2.1 2.1 0 1.16-.94 2.1-2.1 2.1-1.16 0-2.1-.94-2.1-2.1 0-1.16.94-2.1 2.1-2.1m0 9c2.97 0 6.1 1.46 6.1 2.1v1.1h-12.2V17c0-.64 3.13-2.1 6.1-2.1M300 4c-2.21 0-4 1.79-4 4s1.79 4 4 4 4-1.79 4-4-1.79-4-4-4zm0 9c-2.67 0-8 1.34-8 4v3h16v-3c0-2.66-5.33-4-8-4zM324 5.9c1.16 0 2.1.94 2.1 2.1 0 1.16-.94 2.1-2.1 2.1-1.16 0-2.1-.94-2.1-2.1 0-1.16.94-2.1 2.1-2.1m0 9c2.97 0 6.1 1.46 6.1 2.1v1.1h-12.2V17c0-.64 3.13-2.1 6.1-2.1M324 4c-2.21 0-4 1.79-4 4s1.79 4 4 4 4-1.79 4-4-1.79-4-4-4zm0 9c-2.67 0-8 1.34-8 4v3h16v-3c0-2.66-5.33-4-8-4zM348 5.9c1.16 0 2.1.94 2.1 2.1 0 1.16-.94 2.1-2.1 2.1-1.16 0-2.1-.94-2.1-2.1 0-1.16.94-2.1 2.1-2.1m0 9c2.97 0 6.1 1.46 6.1 2.1v1.1h-12.2V17c0-.64 3.13-2.1 6.1-2.1M348 4c-2.21 0-4 1.79-4 4s1.79 4 4 4 4-1.79 4-4-1.79-4-4-4zm0 9c-2.67 0-8 1.34-8 4v3h16v-3c0-2.66-5.33-4-8-4zM372 5.9c1.16 0 2.1.94 2.1 2.1 0 1.16-.94 2.1-2.1 2.1-1.16 0-2.1-.94-2.1-2.1 0-1.16.94-2.1 2.1-2.1m0 9c2.97 0 6.1 1.46 6.1 2.1v1.1h-12.2V17c0-.64 3.13-2.1 6.1-2.1M372 4c-2.21 0-4 1.79-4 4s1.79 4 4 4 4-1.79 4-4-1.79-4-4-4zm0 9c-2.67 0-8 1.34-8 4v3h16v-3c0-2.66-5.33-4-8-4zM396 5.9c1.16 0 2.1.94 2.1 2.1 0 1.16-.94 2.1-2.1 2.1-1.16 0-2.1-.94-2.1-2.1 0-1.16.94-2.1 2.1-2.1m0 9c2.97 0 6.1 1.46 6.1 2.1v1.1h-12.2V17c0-.64 3.13-2.1 6.1-2.1M396 4c-2.21 0-4 1.79-4 4s1.79 4 4 4 4-1.79 4-4-1.79-4-4-4zm0 9c-2.67 0-8 1.34-8 4v3h16v-3c0-2.66-5.33-4-8-4zM420 5.9c1.16 0 2.1.94 2.1 2.1 0 1.16-.94 2.1-2.1 2.1-1.16 0-2.1-.94-2.1-2.1 0-1.16.94-2.1 2.1-2.1m0 9c2.97 0 6.1 1.46 6.1 2.1v1.1h-12.2V17c0-.64 3.13-2.1 6.1-2.1M420 4c-2.21 0-4 1.79-4 4s1.79 4 4 4 4-1.79 4-4-1.79-4-4-4zm0 9c-2.67 0-8 1.34-8 4v3h16v-3c0-2.66-5.33-4-8-4zM444 5.9c1.16 0 2.1.94 2.1 2.1 0 1.16-.94 2.1-2.1 2.1-1.16 0-2.1-.94-2.1-2.1 0-1.16.94-2.1 2.1-2.1m0 9c2.97 0 6.1 1.46 6.1 2.1v1.1h-12.2V17c0-.64 3.13-2.1 6.1-2.1M444 4c-2.21 0-4 1.79-4 4s1.79 4 4 4 4-1.79 4-4-1.79-4-4-4zm0 9c-2.67 0-8 1.34-8 4v3h16v-3c0-2.66-5.33-4-8-4zM468 5.9c1.16 0 2.1.94 2.1 2.1 0 1.16-.94 2.1-2.1 2.1-1.16 0-2.1-.94-2.1-2.1 0-1.16.94-2.1 2.1-2.1m0 9c2.97 0 6.1 1.46 6.1 2.1v1.1h-12.2V17c0-.64 3.13-2.1 6.1-2.1M468 4c-2.21 0-4 1.79-4 4s1.79 4 4 4 4-1.79 4-4-1.79-4-4-4zm0 9c-2.67 0-8 1.34-8 4v3h16v-3c0-2.66-5.33-4-8-4z" fill="#000000"/><g fill="#000000"><path d="M492 5.9c1.16 0 2.1.94 2.1 2.1 0 1.16-.94 2.1-2.1 2.1-1.16 0-2.1-.94-2.1-2.1 0-1.16.94-2.1 2.1-2.1m0 9c2.97 0 6.1 1.46 6.1 2.1v1.1h-12.2V17c0-.64 3.13-2.1 6.1-2.1M492 4c-2.21 0-4 1.79-4 4s1.79 4 4 4 4-1.79 4-4-1.79-4-4-4zm0 9c-2.67 0-8 1.34-8 4v3h16v-3c0-2.66-5.33-4-8-4z"/><path d="M491.305 14.339c-1.937 0-3.796.298-5.165.829-1.37.531-2.14 1.251-2.14 2.001 0 .751.77 1.471 2.14 2.002 1.369.531 3.228.829 5.165.829 1.937 0 3.796-.298 5.166-.829 1.369-.531 2.139-1.251 2.139-2.002 0-.75-.77-1.47-2.139-2.001-1.37-.531-3.229-.829-5.166-.829zM492 5.39c-.566 0-1.11.289-1.51.804-.4.515-.626 1.214-.626 1.942s.226 1.426.626 1.941c.4.515.944.804 1.51.804.566 0 1.11-.289 1.51-.804.4-.515.626-1.213.626-1.941s-.226-1.427-.626-1.942c-.4-.515-.944-.804-1.51-.804z"/></g><g fill="#000000"><path d="M516 5.9c1.16 0 2.1.94 2.1 2.1 0 1.16-.94 2.1-2.1 2.1-1.16 0-2.1-.94-2.1-2.1 0-1.16.94-2.1 2.1-2.1m0 9c2.97 0 6.1 1.46 6.1 2.1v1.1h-12.2V17c0-.64 3.13-2.1 6.1-2.1M516 4c-2.21 0-4 1.79-4 4s1.79 4 4 4 4-1.79 4-4-1.79-4-4-4zm0 9c-2.67 0-8 1.34-8 4v3h16v-3c0-2.66-5.33-4-8-4z"/><path d="M515.305 14.339c-1.937 0-3.796.298-5.165.829-1.37.531-2.14 1.251-2.14 2.001 0 .751.77 1.471 2.14 2.002 1.369.531 3.228.829 5.165.829 1.937 0 3.796-.298 5.166-.829 1.369-.531 2.139-1.251 2.139-2.002 0-.75-.77-1.47-2.139-2.001-1.37-.531-3.229-.829-5.166-.829zM516 5.39c-.566 0-1.11.289-1.51.804-.4.515-.626 1.214-.626 1.942s.226 1.426.626 1.941c.4.515.944.804 1.51.804.566 0 1.11-.289 1.51-.804.4-.515.626-1.213.626-1.941s-.226-1.427-.626-1.942c-.4-.515-.944-.804-1.51-.804z"/></g><g fill="#000000"><path d="M540 5.9c1.16 0 2.1.94 2.1 2.1 0 1.16-.94 2.1-2.1 2.1-1.16 0-2.1-.94-2.1-2.1 0-1.16.94-2.1 2.1-2.1m0 9c2.97 0 6.1 1.46 6.1 2.1v1.1h-12.2V17c0-.64 3.13-2.1 6.1-2.1M540 4c-2.21 0-4 1.79-4 4s1.79 4 4 4 4-1.79 4-4-1.79-4-4-4zm0 9c-2.67 0-8 1.34-8 4v3h16v-3c0-2.66-5.33-4-8-4z"/><path d="M539.305 14.339c-1.937 0-3.796.298-5.165.829-1.37.531-2.14 1.251-2.14 2.001 0 .751.77 1.471 2.14 2.002 1.369.531 3.228.829 5.165.829 1.937 0 3.796-.298 5.166-.829 1.369-.531 2.139-1.251 2.139-2.002 0-.75-.77-1.47-2.139-2.001-1.37-.531-3.229-.829-5.166-.829zM540 5.39c-.566 0-1.11.289-1.51.804-.4.515-.626 1.214-.626 1.942s.226 1.426.626 1.941c.4.515.944.804 1.51.804.566 0 1.11-.289 1.51-.804.4-.515.626-1.213.626-1.941s-.226-1.427-.626-1.942c-.4-.515-.944-.804-1.51-.804z"/></g><g fill="#000000"><path d="M564 5.9c1.16 0 2.1.94 2.1 2.1 0 1.16-.94 2.1-2.1 2.1-1.16 0-2.1-.94-2.1-2.1 0-1.16.94-2.1 2.1-2.1m0 9c2.97 0 6.1 1.46 6.1 2.1v1.1h-12.2V17c0-.64 3.13-2.1 6.1-2.1M564 4c-2.21 0-4 1.79-4 4s1.79 4 4 4 4-1.79 4-4-1.79-4-4-4zm0 9c-2.67 0-8 1.34-8 4v3h16v-3c0-2.66-5.33-4-8-4z"/><path d="M563.305 14.339c-1.937 0-3.796.298-5.165.829-1.37.531-2.14 1.251-2.14 2.001 0 .751.77 1.471 2.14 2.002 1.369.531 3.228.829 5.165.829 1.937 0 3.796-.298 5.166-.829 1.369-.531 2.139-1.251 2.139-2.002 0-.75-.77-1.47-2.139-2.001-1.37-.531-3.229-.829-5.166-.829zM564 5.39c-.566 0-1.11.289-1.51.804-.4.515-.626 1.214-.626 1.942s.226 1.426.626 1.941c.4.515.944.804 1.51.804.566 0 1.11-.289 1.51-.804.4-.515.626-1.213.626-1.941s-.226-1.427-.626-1.942c-.4-.515-.944-.804-1.51-.804z"/></g><g fill="#000000"><path d="M588 5.9c1.16 0 2.1.94 2.1 2.1 0 1.16-.94 2.1-2.1 2.1-1.16 0-2.1-.94-2.1-2.1 0-1.16.94-2.1 2.1-2.1m0 9c2.97 0 6.1 1.46 6.1 2.1v1.1h-12.2V17c0-.64 3.13-2.1 6.1-2.1M588 4c-2.21 0-4 1.79-4 4s1.79 4 4 4 4-1.79 4-4-1.79-4-4-4zm0 9c-2.67 0-8 1.34-8 4v3h16v-3c0-2.66-5.33-4-8-4z"/><path d="M587.305 14.339c-1.937 0-3.796.298-5.165.829-1.37.531-2.14 1.251-2.14 2.001 0 .751.77 1.471 2.14 2.002 1.369.531 3.228.829 5.165.829 1.937 0 3.796-.298 5.166-.829 1.369-.531 2.139-1.251 2.139-2.002 0-.75-.77-1.47-2.139-2.001-1.37-.531-3.229-.829-5.166-.829zM588 5.39c-.566 0-1.11.289-1.51.804-.4.515-.626 1.214-.626 1.942s.226 1.426.626 1.941c.4.515.944.804 1.51.804.566 0 1.11-.289 1.51-.804.4-.515.626-1.213.626-1.941s-.226-1.427-.626-1.942c-.4-.515-.944-.804-1.51-.804z"/></g><g fill="#000000"><path d="M612 5.9c1.16 0 2.1.94 2.1 2.1 0 1.16-.94 2.1-2.1 2.1-1.16 0-2.1-.94-2.1-2.1 0-1.16.94-2.1 2.1-2.1m0 9c2.97 0 6.1 1.46 6.1 2.1v1.1h-12.2V17c0-.64 3.13-2.1 6.1-2.1M612 4c-2.21 0-4 1.79-4 4s1.79 4 4 4 4-1.79 4-4-1.79-4-4-4zm0 9c-2.67 0-8 1.34-8 4v3h16v-3c0-2.66-5.33-4-8-4z"/><path d="M611.305 14.339c-1.937 0-3.796.298-5.165.829-1.37.531-2.14 1.251-2.14 2.001 0 .751.77 1.471 2.14 2.002 1.369.531 3.228.829 5.165.829 1.937 0 3.796-.298 5.166-.829 1.369-.531 2.139-1.251 2.139-2.002 0-.75-.77-1.47-2.139-2.001-1.37-.531-3.229-.829-5.166-.829zM612 5.39c-.566 0-1.11.289-1.51.804-.4.515-.626 1.214-.626 1.942s.226 1.426.626 1.941c.4.515.944.804 1.51.804.566 0 1.11-.289 1.51-.804.4-.515.626-1.213.626-1.941s-.226-1.427-.626-1.942c-.4-.515-.944-.804-1.51-.804z"/></g><g fill="#000000"><path d="M636 5.9c1.16 0 2.1.94 2.1 2.1 0 1.16-.94 2.1-2.1 2.1-1.16 0-2.1-.94-2.1-2.1 0-1.16.94-2.1 2.1-2.1m0 9c2.97 0 6.1 1.46 6.1 2.1v1.1h-12.2V17c0-.64 3.13-2.1 6.1-2.1M636 4c-2.21 0-4 1.79-4 4s1.79 4 4 4 4-1.79 4-4-1.79-4-4-4zm0 9c-2.67 0-8 1.34-8 4v3h16v-3c0-2.66-5.33-4-8-4z"/><path d="M635.305 14.339c-1.937 0-3.796.298-5.165.829-1.37.531-2.14 1.251-2.14 2.001 0 .751.77 1.471 2.14 2.002 1.369.531 3.228.829 5.165.829 1.937 0 3.796-.298 5.166-.829 1.369-.531 2.139-1.251 2.139-2.002 0-.75-.77-1.47-2.139-2.001-1.37-.531-3.229-.829-5.166-.829zM636 5.39c-.566 0-1.11.289-1.51.804-.4.515-.626 1.214-.626 1.942s.226 1.426.626 1.941c.4.515.944.804 1.51.804.566 0 1.11-.289 1.51-.804.4-.515.626-1.213.626-1.941s-.226-1.427-.626-1.942c-.4-.515-.944-.804-1.51-.804z"/></g><g fill="#000000"><path d="M660 5.9c1.16 0 2.1.94 2.1 2.1 0 1.16-.94 2.1-2.1 2.1-1.16 0-2.1-.94-2.1-2.1 0-1.16.94-2.1 2.1-2.1m0 9c2.97 0 6.1 1.46 6.1 2.1v1.1h-12.2V17c0-.64 3.13-2.1 6.1-2.1M660 4c-2.21 0-4 1.79-4 4s1.79 4 4 4 4-1.79 4-4-1.79-4-4-4zm0 9c-2.67 0-8 1.34-8 4v3h16v-3c0-2.66-5.33-4-8-4z"/><path d="M659.305 14.339c-1.937 0-3.796.298-5.165.829-1.37.531-2.14 1.251-2.14 2.001 0 .751.77 1.471 2.14 2.002 1.369.531 3.228.829 5.165.829 1.937 0 3.796-.298 5.166-.829 1.369-.531 2.139-1.251 2.139-2.002 0-.75-.77-1.47-2.139-2.001-1.37-.531-3.229-.829-5.166-.829zM660 5.39c-.566 0-1.11.289-1.51.804-.4.515-.626 1.214-.626 1.942s.226 1.426.626 1.941c.4.515.944.804 1.51.804.566 0 1.11-.289 1.51-.804.4-.515.626-1.213.626-1.941s-.226-1.427-.626-1.942c-.4-.515-.944-.804-1.51-.804z"/></g><g fill="#000000"><path d="M684 5.9c1.16 0 2.1.94 2.1 2.1 0 1.16-.94 2.1-2.1 2.1-1.16 0-2.1-.94-2.1-2.1 0-1.16.94-2.1 2.1-2.1m0 9c2.97 0 6.1 1.46 6.1 2.1v1.1h-12.2V17c0-.64 3.13-2.1 6.1-2.1M684 4c-2.21 0-4 1.79-4 4s1.79 4 4 4 4-1.79 4-4-1.79-4-4-4zm0 9c-2.67 0-8 1.34-8 4v3h16v-3c0-2.66-5.33-4-8-4z"/><path d="M683.305 14.339c-1.937 0-3.796.298-5.165.829-1.37.531-2.14 1.251-2.14 2.001 0 .751.77 1.471 2.14 2.002 1.369.531 3.228.829 5.165.829 1.937 0 3.796-.298 5.166-.829 1.369-.531 2.139-1.251 2.139-2.002 0-.75-.77-1.47-2.139-2.001-1.37-.531-3.229-.829-5.166-.829zM684 5.39c-.566 0-1.11.289-1.51.804-.4.515-.626 1.214-.626 1.942s.226 1.426.626 1.941c.4.515.944.804 1.51.804.566 0 1.11-.289 1.51-.804.4-.515.626-1.213.626-1.941s-.226-1.427-.626-1.942c-.4-.515-.944-.804-1.51-.804z"/></g><g fill="#000000"><path d="M708 5.9c1.16 0 2.1.94 2.1 2.1 0 1.16-.94 2.1-2.1 2.1-1.16 0-2.1-.94-2.1-2.1 0-1.16.94-2.1 2.1-2.1m0 9c2.97 0 6.1 1.46 6.1 2.1v1.1h-12.2V17c0-.64 3.13-2.1 6.1-2.1M708 4c-2.21 0-4 1.79-4 4s1.79 4 4 4 4-1.79 4-4-1.79-4-4-4zm0 9c-2.67 0-8 1.34-8 4v3h16v-3c0-2.66-5.33-4-8-4z"/><path d="M707.305 14.339c-1.937 0-3.796.298-5.165.829-1.37.531-2.14 1.251-2.14 2.001 0 .751.77 1.471 2.14 2.002 1.369.531 3.228.829 5.165.829 1.937 0 3.796-.298 5.166-.829 1.369-.531 2.139-1.251 2.139-2.002 0-.75-.77-1.47-2.139-2.001-1.37-.531-3.229-.829-5.166-.829zM708 5.39c-.566 0-1.11.289-1.51.804-.4.515-.626 1.214-.626 1.942s.226 1.426.626 1.941c.4.515.944.804 1.51.804.566 0 1.11-.289 1.51-.804.4-.515.626-1.213.626-1.941s-.226-1.427-.626-1.942c-.4-.515-.944-.804-1.51-.804z"/></g><g fill="#000000"><path d="M732 5.9c1.16 0 2.1.94 2.1 2.1 0 1.16-.94 2.1-2.1 2.1-1.16 0-2.1-.94-2.1-2.1 0-1.16.94-2.1 2.1-2.1m0 9c2.97 0 6.1 1.46 6.1 2.1v1.1h-12.2V17c0-.64 3.13-2.1 6.1-2.1M732 4c-2.21 0-4 1.79-4 4s1.79 4 4 4 4-1.79 4-4-1.79-4-4-4zm0 9c-2.67 0-8 1.34-8 4v3h16v-3c0-2.66-5.33-4-8-4z"/><path d="M731.305 14.339c-1.937 0-3.796.298-5.165.829-1.37.531-2.14 1.251-2.14 2.001 0 .751.77 1.471 2.14 2.002 1.369.531 3.228.829 5.165.829 1.937 0 3.796-.298 5.166-.829 1.369-.531 2.139-1.251 2.139-2.002 0-.75-.77-1.47-2.139-2.001-1.37-.531-3.229-.829-5.166-.829zM732 5.39c-.566 0-1.11.289-1.51.804-.4.515-.626 1.214-.626 1.942s.226 1.426.626 1.941c.4.515.944.804 1.51.804.566 0 1.11-.289 1.51-.804.4-.515.626-1.213.626-1.941s-.226-1.427-.626-1.942c-.4-.515-.944-.804-1.51-.804z"/></g><g fill="#000000"><path d="M756 5.9c1.16 0 2.1.94 2.1 2.1 0 1.16-.94 2.1-2.1 2.1-1.16 0-2.1-.94-2.1-2.1 0-1.16.94-2.1 2.1-2.1m0 9c2.97 0 6.1 1.46 6.1 2.1v1.1h-12.2V17c0-.64 3.13-2.1 6.1-2.1M756 4c-2.21 0-4 1.79-4 4s1.79 4 4 4 4-1.79 4-4-1.79-4-4-4zm0 9c-2.67 0-8 1.34-8 4v3h16v-3c0-2.66-5.33-4-8-4z"/><path d="M755.305 14.339c-1.937 0-3.796.298-5.165.829-1.37.531-2.14 1.251-2.14 2.001 0 .751.77 1.471 2.14 2.002 1.369.531 3.228.829 5.165.829 1.937 0 3.796-.298 5.166-.829 1.369-.531 2.139-1.251 2.139-2.002 0-.75-.77-1.47-2.139-2.001-1.37-.531-3.229-.829-5.166-.829zM756 5.39c-.566 0-1.11.289-1.51.804-.4.515-.626 1.214-.626 1.942s.226 1.426.626 1.941c.4.515.944.804 1.51.804.566 0 1.11-.289 1.51-.804.4-.515.626-1.213.626-1.941s-.226-1.427-.626-1.942c-.4-.515-.944-.804-1.51-.804z"/></g><g fill="#000000"><path d="M780 5.9c1.16 0 2.1.94 2.1 2.1 0 1.16-.94 2.1-2.1 2.1-1.16 0-2.1-.94-2.1-2.1 0-1.16.94-2.1 2.1-2.1m0 9c2.97 0 6.1 1.46 6.1 2.1v1.1h-12.2V17c0-.64 3.13-2.1 6.1-2.1M780 4c-2.21 0-4 1.79-4 4s1.79 4 4 4 4-1.79 4-4-1.79-4-4-4zm0 9c-2.67 0-8 1.34-8 4v3h16v-3c0-2.66-5.33-4-8-4z"/><path d="M779.305 14.339c-1.937 0-3.796.298-5.165.829-1.37.531-2.14 1.251-2.14 2.001 0 .751.77 1.471 2.14 2.002 1.369.531 3.228.829 5.165.829 1.937 0 3.796-.298 5.166-.829 1.369-.531 2.139-1.251 2.139-2.002 0-.75-.77-1.47-2.139-2.001-1.37-.531-3.229-.829-5.166-.829zM780 5.39c-.566 0-1.11.289-1.51.804-.4.515-.626 1.214-.626 1.942s.226 1.426.626 1.941c.4.515.944.804 1.51.804.566 0 1.11-.289 1.51-.804.4-.515.626-1.213.626-1.941s-.226-1.427-.626-1.942c-.4-.515-.944-.804-1.51-.804z"/></g><g fill="#000000"><path d="M804 5.9c1.16 0 2.1.94 2.1 2.1 0 1.16-.94 2.1-2.1 2.1-1.16 0-2.1-.94-2.1-2.1 0-1.16.94-2.1 2.1-2.1m0 9c2.97 0 6.1 1.46 6.1 2.1v1.1h-12.2V17c0-.64 3.13-2.1 6.1-2.1M804 4c-2.21 0-4 1.79-4 4s1.79 4 4 4 4-1.79 4-4-1.79-4-4-4zm0 9c-2.67 0-8 1.34-8 4v3h16v-3c0-2.66-5.33-4-8-4z"/><path d="M803.305 14.339c-1.937 0-3.796.298-5.165.829-1.37.531-2.14 1.251-2.14 2.001 0 .751.77 1.471 2.14 2.002 1.369.531 3.228.829 5.165.829 1.937 0 3.796-.298 5.166-.829 1.369-.531 2.139-1.251 2.139-2.002 0-.75-.77-1.47-2.139-2.001-1.37-.531-3.229-.829-5.166-.829zM804 5.39c-.566 0-1.11.289-1.51.804-.4.515-.626 1.214-.626 1.942s.226 1.426.626 1.941c.4.515.944.804 1.51.804.566 0 1.11-.289 1.51-.804.4-.515.626-1.213.626-1.941s-.226-1.427-.626-1.942c-.4-.515-.944-.804-1.51-.804z"/></g><g fill="#000000"><path d="M828 5.9c1.16 0 2.1.94 2.1 2.1 0 1.16-.94 2.1-2.1 2.1-1.16 0-2.1-.94-2.1-2.1 0-1.16.94-2.1 2.1-2.1m0 9c2.97 0 6.1 1.46 6.1 2.1v1.1h-12.2V17c0-.64 3.13-2.1 6.1-2.1M828 4c-2.21 0-4 1.79-4 4s1.79 4 4 4 4-1.79 4-4-1.79-4-4-4zm0 9c-2.67 0-8 1.34-8 4v3h16v-3c0-2.66-5.33-4-8-4z"/><path d="M827.305 14.339c-1.937 0-3.796.298-5.165.829-1.37.531-2.14 1.251-2.14 2.001 0 .751.77 1.471 2.14 2.002 1.369.531 3.228.829 5.165.829 1.937 0 3.796-.298 5.166-.829 1.369-.531 2.139-1.251 2.139-2.002 0-.75-.77-1.47-2.139-2.001-1.37-.531-3.229-.829-5.166-.829zM828 5.39c-.566 0-1.11.289-1.51.804-.4.515-.626 1.214-.626 1.942s.226 1.426.626 1.941c.4.515.944.804 1.51.804.566 0 1.11-.289 1.51-.804.4-.515.626-1.213.626-1.941s-.226-1.427-.626-1.942c-.4-.515-.944-.804-1.51-.804z"/></g><g fill="#000000"><path d="M852 5.9c1.16 0 2.1.94 2.1 2.1 0 1.16-.94 2.1-2.1 2.1-1.16 0-2.1-.94-2.1-2.1 0-1.16.94-2.1 2.1-2.1m0 9c2.97 0 6.1 1.46 6.1 2.1v1.1h-12.2V17c0-.64 3.13-2.1 6.1-2.1M852 4c-2.21 0-4 1.79-4 4s1.79 4 4 4 4-1.79 4-4-1.79-4-4-4zm0 9c-2.67 0-8 1.34-8 4v3h16v-3c0-2.66-5.33-4-8-4z"/><path d="M851.305 14.339c-1.937 0-3.796.298-5.165.829-1.37.531-2.14 1.251-2.14 2.001 0 .751.77 1.471 2.14 2.002 1.369.531 3.228.829 5.165.829 1.937 0 3.796-.298 5.166-.829 1.369-.531 2.139-1.251 2.139-2.002 0-.75-.77-1.47-2.139-2.001-1.37-.531-3.229-.829-5.166-.829zM852 5.39c-.566 0-1.11.289-1.51.804-.4.515-.626 1.214-.626 1.942s.226 1.426.626 1.941c.4.515.944.804 1.51.804.566 0 1.11-.289 1.51-.804.4-.515.626-1.213.626-1.941s-.226-1.427-.626-1.942c-.4-.515-.944-.804-1.51-.804z"/></g><g fill="#000000"><path d="M876 5.9c1.16 0 2.1.94 2.1 2.1 0 1.16-.94 2.1-2.1 2.1-1.16 0-2.1-.94-2.1-2.1 0-1.16.94-2.1 2.1-2.1m0 9c2.97 0 6.1 1.46 6.1 2.1v1.1h-12.2V17c0-.64 3.13-2.1 6.1-2.1M876 4c-2.21 0-4 1.79-4 4s1.79 4 4 4 4-1.79 4-4-1.79-4-4-4zm0 9c-2.67 0-8 1.34-8 4v3h16v-3c0-2.66-5.33-4-8-4z"/><path d="M875.305 14.339c-1.937 0-3.796.298-5.165.829-1.37.531-2.14 1.251-2.14 2.001 0 .751.77 1.471 2.14 2.002 1.369.531 3.228.829 5.165.829 1.937 0 3.796-.298 5.166-.829 1.369-.531 2.139-1.251 2.139-2.002 0-.75-.77-1.47-2.139-2.001-1.37-.531-3.229-.829-5.166-.829zM876 5.39c-.566 0-1.11.289-1.51.804-.4.515-.626 1.214-.626 1.942s.226 1.426.626 1.941c.4.515.944.804 1.51.804.566 0 1.11-.289 1.51-.804.4-.515.626-1.213.626-1.941s-.226-1.427-.626-1.942c-.4-.515-.944-.804-1.51-.804z"/></g><g fill="#000000"><path d="M900 5.9c1.16 0 2.1.94 2.1 2.1 0 1.16-.94 2.1-2.1 2.1-1.16 0-2.1-.94-2.1-2.1 0-1.16.94-2.1 2.1-2.1m0 9c2.97 0 6.1 1.46 6.1 2.1v1.1h-12.2V17c0-.64 3.13-2.1 6.1-2.1M900 4c-2.21 0-4 1.79-4 4s1.79 4 4 4 4-1.79 4-4-1.79-4-4-4zm0 9c-2.67 0-8 1.34-8 4v3h16v-3c0-2.66-5.33-4-8-4z"/><path d="M899.305 14.339c-1.937 0-3.796.298-5.165.829-1.37.531-2.14 1.251-2.14 2.001 0 .751.77 1.471 2.14 2.002 1.369.531 3.228.829 5.165.829 1.937 0 3.796-.298 5.166-.829 1.369-.531 2.139-1.251 2.139-2.002 0-.75-.77-1.47-2.139-2.001-1.37-.531-3.229-.829-5.166-.829zM900 5.39c-.566 0-1.11.289-1.51.804-.4.515-.626 1.214-.626 1.942s.226 1.426.626 1.941c.4.515.944.804 1.51.804.566 0 1.11-.289 1.51-.804.4-.515.626-1.213.626-1.941s-.226-1.427-.626-1.942c-.4-.515-.944-.804-1.51-.804z"/></g><g fill="#000000"><path d="M924 5.9c1.16 0 2.1.94 2.1 2.1 0 1.16-.94 2.1-2.1 2.1-1.16 0-2.1-.94-2.1-2.1 0-1.16.94-2.1 2.1-2.1m0 9c2.97 0 6.1 1.46 6.1 2.1v1.1h-12.2V17c0-.64 3.13-2.1 6.1-2.1M924 4c-2.21 0-4 1.79-4 4s1.79 4 4 4 4-1.79 4-4-1.79-4-4-4zm0 9c-2.67 0-8 1.34-8 4v3h16v-3c0-2.66-5.33-4-8-4z"/><path d="M923.305 14.339c-1.937 0-3.796.298-5.165.829-1.37.531-2.14 1.251-2.14 2.001 0 .751.77 1.471 2.14 2.002 1.369.531 3.228.829 5.165.829 1.937 0 3.796-.298 5.166-.829 1.369-.531 2.139-1.251 2.139-2.002 0-.75-.77-1.47-2.139-2.001-1.37-.531-3.229-.829-5.166-.829zM924 5.39c-.566 0-1.11.289-1.51.804-.4.515-.626 1.214-.626 1.942s.226 1.426.626 1.941c.4.515.944.804 1.51.804.566 0 1.11-.289 1.51-.804.4-.515.626-1.213.626-1.941s-.226-1.427-.626-1.942c-.4-.515-.944-.804-1.51-.804z"/></g><g fill="#000000"><path d="M948 5.9c1.16 0 2.1.94 2.1 2.1 0 1.16-.94 2.1-2.1 2.1-1.16 0-2.1-.94-2.1-2.1 0-1.16.94-2.1 2.1-2.1m0 9c2.97 0 6.1 1.46 6.1 2.1v1.1h-12.2V17c0-.64 3.13-2.1 6.1-2.1M948 4c-2.21 0-4 1.79-4 4s1.79 4 4 4 4-1.79 4-4-1.79-4-4-4zm0 9c-2.67 0-8 1.34-8 4v3h16v-3c0-2.66-5.33-4-8-4z"/><path d="M947.305 14.339c-1.937 0-3.796.298-5.165.829-1.37.531-2.14 1.251-2.14 2.001 0 .751.77 1.471 2.14 2.002 1.369.531 3.228.829 5.165.829 1.937 0 3.796-.298 5.166-.829 1.369-.531 2.139-1.251 2.139-2.002 0-.75-.77-1.47-2.139-2.001-1.37-.531-3.229-.829-5.166-.829zM948 5.39c-.566 0-1.11.289-1.51.804-.4.515-.626 1.214-.626 1.942s.226 1.426.626 1.941c.4.515.944.804 1.51.804.566 0 1.11-.289 1.51-.804.4-.515.626-1.213.626-1.941s-.226-1.427-.626-1.942c-.4-.515-.944-.804-1.51-.804z"/></g><g fill="#000000"><path d="M972 5.9c1.16 0 2.1.94 2.1 2.1 0 1.16-.94 2.1-2.1 2.1-1.16 0-2.1-.94-2.1-2.1 0-1.16.94-2.1 2.1-2.1m0 9c2.97 0 6.1 1.46 6.1 2.1v1.1h-12.2V17c0-.64 3.13-2.1 6.1-2.1M972 4c-2.21 0-4 1.79-4 4s1.79 4 4 4 4-1.79 4-4-1.79-4-4-4zm0 9c-2.67 0-8 1.34-8 4v3h16v-3c0-2.66-5.33-4-8-4z"/><path d="M971.305 14.339c-1.937 0-3.796.298-5.165.829-1.37.531-2.14 1.251-2.14 2.001 0 .751.77 1.471 2.14 2.002 1.369.531 3.228.829 5.165.829 1.937 0 3.796-.298 5.166-.829 1.369-.531 2.139-1.251 2.139-2.002 0-.75-.77-1.47-2.139-2.001-1.37-.531-3.229-.829-5.166-.829zM972 5.39c-.566 0-1.11.289-1.51.804-.4.515-.626 1.214-.626 1.942s.226 1.426.626 1.941c.4.515.944.804 1.51.804.566 0 1.11-.289 1.51-.804.4-.515.626-1.213.626-1.941s-.226-1.427-.626-1.942c-.4-.515-.944-.804-1.51-.804z"/></g><g fill="#000000"><path d="M996 5.9c1.16 0 2.1.94 2.1 2.1 0 1.16-.94 2.1-2.1 2.1-1.16 0-2.1-.94-2.1-2.1 0-1.16.94-2.1 2.1-2.1m0 9c2.97 0 6.1 1.46 6.1 2.1v1.1h-12.2V17c0-.64 3.13-2.1 6.1-2.1M996 4c-2.21 0-4 1.79-4 4s1.79 4 4 4 4-1.79 4-4-1.79-4-4-4zm0 9c-2.67 0-8 1.34-8 4v3h16v-3c0-2.66-5.33-4-8-4z"/><path d="M995.305 14.339c-1.937 0-3.796.298-5.165.829-1.37.531-2.14 1.251-2.14 2.001 0 .751.77 1.471 2.14 2.002 1.369.531 3.228.829 5.165.829 1.937 0 3.796-.298 5.166-.829 1.369-.531 2.139-1.251 2.139-2.002 0-.75-.77-1.47-2.139-2.001-1.37-.531-3.229-.829-5.166-.829zM996 5.39c-.566 0-1.11.289-1.51.804-.4.515-.626 1.214-.626 1.942s.226 1.426.626 1.941c.4.515.944.804 1.51.804.566 0 1.11-.289 1.51-.804.4-.515.626-1.213.626-1.941s-.226-1.427-.626-1.942c-.4-.515-.944-.804-1.51-.804z"/></g><g fill="#000000"><path d="M1020 5.9c1.16 0 2.1.94 2.1 2.1 0 1.16-.94 2.1-2.1 2.1-1.16 0-2.1-.94-2.1-2.1 0-1.16.94-2.1 2.1-2.1m0 9c2.97 0 6.1 1.46 6.1 2.1v1.1h-12.2V17c0-.64 3.13-2.1 6.1-2.1m0-10.9c-2.21 0-4 1.79-4 4s1.79 4 4 4 4-1.79 4-4-1.79-4-4-4zm0 9c-2.67 0-8 1.34-8 4v3h16v-3c0-2.66-5.33-4-8-4z"/><path d="M1019.305 14.339c-1.937 0-3.796.298-5.165.829-1.37.531-2.14 1.251-2.14 2.001 0 .751.77 1.471 2.14 2.002 1.369.531 3.228.829 5.165.829 1.937 0 3.796-.298 5.166-.829 1.369-.531 2.139-1.251 2.139-2.002 0-.75-.77-1.47-2.139-2.001-1.37-.531-3.229-.829-5.166-.829zM1020 5.39c-.566 0-1.11.289-1.51.804-.4.515-.626 1.214-.626 1.942s.226 1.426.626 1.941c.4.515.944.804 1.51.804.566 0 1.11-.289 1.51-.804.4-.515.626-1.213.626-1.941s-.226-1.427-.626-1.942c-.4-.515-.944-.804-1.51-.804z"/></g><g fill="#000000"><path d="M1044 5.9c1.16 0 2.1.94 2.1 2.1 0 1.16-.94 2.1-2.1 2.1-1.16 0-2.1-.94-2.1-2.1 0-1.16.94-2.1 2.1-2.1m0 9c2.97 0 6.1 1.46 6.1 2.1v1.1h-12.2V17c0-.64 3.13-2.1 6.1-2.1m0-10.9c-2.21 0-4 1.79-4 4s1.79 4 4 4 4-1.79 4-4-1.79-4-4-4zm0 9c-2.67 0-8 1.34-8 4v3h16v-3c0-2.66-5.33-4-8-4z"/><path d="M1043.305 14.339c-1.937 0-3.796.298-5.165.829-1.37.531-2.14 1.251-2.14 2.001 0 .751.77 1.471 2.14 2.002 1.369.531 3.228.829 5.165.829 1.937 0 3.796-.298 5.166-.829 1.369-.531 2.139-1.251 2.139-2.002 0-.75-.77-1.47-2.139-2.001-1.37-.531-3.229-.829-5.166-.829zM1044 5.39c-.566 0-1.11.289-1.51.804-.4.515-.626 1.214-.626 1.942s.226 1.426.626 1.941c.4.515.944.804 1.51.804.566 0 1.11-.289 1.51-.804.4-.515.626-1.213.626-1.941s-.226-1.427-.626-1.942c-.4-.515-.944-.804-1.51-.804z"/></g><g fill="#000000"><path d="M1068 5.9c1.16 0 2.1.94 2.1 2.1 0 1.16-.94 2.1-2.1 2.1-1.16 0-2.1-.94-2.1-2.1 0-1.16.94-2.1 2.1-2.1m0 9c2.97 0 6.1 1.46 6.1 2.1v1.1h-12.2V17c0-.64 3.13-2.1 6.1-2.1m0-10.9c-2.21 0-4 1.79-4 4s1.79 4 4 4 4-1.79 4-4-1.79-4-4-4zm0 9c-2.67 0-8 1.34-8 4v3h16v-3c0-2.66-5.33-4-8-4z"/><path d="M1067.305 14.339c-1.937 0-3.796.298-5.165.829-1.37.531-2.14 1.251-2.14 2.001 0 .751.77 1.471 2.14 2.002 1.369.531 3.228.829 5.165.829 1.937 0 3.796-.298 5.166-.829 1.369-.531 2.139-1.251 2.139-2.002 0-.75-.77-1.47-2.139-2.001-1.37-.531-3.229-.829-5.166-.829zM1068 5.39c-.566 0-1.11.289-1.51.804-.4.515-.626 1.214-.626 1.942s.226 1.426.626 1.941c.4.515.944.804 1.51.804.566 0 1.11-.289 1.51-.804.4-.515.626-1.213.626-1.941s-.226-1.427-.626-1.942c-.4-.515-.944-.804-1.51-.804z"/></g><g fill="#000000"><path d="M1092 5.9c1.16 0 2.1.94 2.1 2.1 0 1.16-.94 2.1-2.1 2.1-1.16 0-2.1-.94-2.1-2.1 0-1.16.94-2.1 2.1-2.1m0 9c2.97 0 6.1 1.46 6.1 2.1v1.1h-12.2V17c0-.64 3.13-2.1 6.1-2.1m0-10.9c-2.21 0-4 1.79-4 4s1.79 4 4 4 4-1.79 4-4-1.79-4-4-4zm0 9c-2.67 0-8 1.34-8 4v3h16v-3c0-2.66-5.33-4-8-4z"/><path d="M1091.305 14.339c-1.937 0-3.796.298-5.165.829-1.37.531-2.14 1.251-2.14 2.001 0 .751.77 1.471 2.14 2.002 1.369.531 3.228.829 5.165.829 1.937 0 3.796-.298 5.166-.829 1.369-.531 2.139-1.251 2.139-2.002 0-.75-.77-1.47-2.139-2.001-1.37-.531-3.229-.829-5.166-.829zM1092 5.39c-.566 0-1.11.289-1.51.804-.4.515-.626 1.214-.626 1.942s.226 1.426.626 1.941c.4.515.944.804 1.51.804.566 0 1.11-.289 1.51-.804.4-.515.626-1.213.626-1.941s-.226-1.427-.626-1.942c-.4-.515-.944-.804-1.51-.804z"/></g><g fill="#000000"><path d="M1116 5.9c1.16 0 2.1.94 2.1 2.1 0 1.16-.94 2.1-2.1 2.1-1.16 0-2.1-.94-2.1-2.1 0-1.16.94-2.1 2.1-2.1m0 9c2.97 0 6.1 1.46 6.1 2.1v1.1h-12.2V17c0-.64 3.13-2.1 6.1-2.1m0-10.9c-2.21 0-4 1.79-4 4s1.79 4 4 4 4-1.79 4-4-1.79-4-4-4zm0 9c-2.67 0-8 1.34-8 4v3h16v-3c0-2.66-5.33-4-8-4z"/><path d="M1115.305 14.339c-1.937 0-3.796.298-5.165.829-1.37.531-2.14 1.251-2.14 2.001 0 .751.77 1.471 2.14 2.002 1.369.531 3.228.829 5.165.829 1.937 0 3.796-.298 5.166-.829 1.369-.531 2.139-1.251 2.139-2.002 0-.75-.77-1.47-2.139-2.001-1.37-.531-3.229-.829-5.166-.829zM1116 5.39c-.566 0-1.11.289-1.51.804-.4.515-.626 1.214-.626 1.942s.226 1.426.626 1.941c.4.515.944.804 1.51.804.566 0 1.11-.289 1.51-.804.4-.515.626-1.213.626-1.941s-.226-1.427-.626-1.942c-.4-.515-.944-.804-1.51-.804z"/></g><g fill="#000000"><path d="M1140 5.9c1.16 0 2.1.94 2.1 2.1 0 1.16-.94 2.1-2.1 2.1-1.16 0-2.1-.94-2.1-2.1 0-1.16.94-2.1 2.1-2.1m0 9c2.97 0 6.1 1.46 6.1 2.1v1.1h-12.2V17c0-.64 3.13-2.1 6.1-2.1m0-10.9c-2.21 0-4 1.79-4 4s1.79 4 4 4 4-1.79 4-4-1.79-4-4-4zm0 9c-2.67 0-8 1.34-8 4v3h16v-3c0-2.66-5.33-4-8-4z"/><path d="M1139.305 14.339c-1.937 0-3.796.298-5.165.829-1.37.531-2.14 1.251-2.14 2.001 0 .751.77 1.471 2.14 2.002 1.369.531 3.228.829 5.165.829 1.937 0 3.796-.298 5.166-.829 1.369-.531 2.139-1.251 2.139-2.002 0-.75-.77-1.47-2.139-2.001-1.37-.531-3.229-.829-5.166-.829zM1140 5.39c-.566 0-1.11.289-1.51.804-.4.515-.626 1.214-.626 1.942s.226 1.426.626 1.941c.4.515.944.804 1.51.804.566 0 1.11-.289 1.51-.804.4-.515.626-1.213.626-1.941s-.226-1.427-.626-1.942c-.4-.515-.944-.804-1.51-.804z"/></g><g fill="#000000"><path d="M1164 5.9c1.16 0 2.1.94 2.1 2.1 0 1.16-.94 2.1-2.1 2.1-1.16 0-2.1-.94-2.1-2.1 0-1.16.94-2.1 2.1-2.1m0 9c2.97 0 6.1 1.46 6.1 2.1v1.1h-12.2V17c0-.64 3.13-2.1 6.1-2.1m0-10.9c-2.21 0-4 1.79-4 4s1.79 4 4 4 4-1.79 4-4-1.79-4-4-4zm0 9c-2.67 0-8 1.34-8 4v3h16v-3c0-2.66-5.33-4-8-4z"/><path d="M1163.305 14.339c-1.937 0-3.796.298-5.165.829-1.37.531-2.14 1.251-2.14 2.001 0 .751.77 1.471 2.14 2.002 1.369.531 3.228.829 5.165.829 1.937 0 3.796-.298 5.166-.829 1.369-.531 2.139-1.251 2.139-2.002 0-.75-.77-1.47-2.139-2.001-1.37-.531-3.229-.829-5.166-.829zM1164 5.39c-.566 0-1.11.289-1.51.804-.4.515-.626 1.214-.626 1.942s.226 1.426.626 1.941c.4.515.944.804 1.51.804.566 0 1.11-.289 1.51-.804.4-.515.626-1.213.626-1.941s-.226-1.427-.626-1.942c-.4-.515-.944-.804-1.51-.804z"/></g><g fill="#000000"><path d="M1188 5.9c1.16 0 2.1.94 2.1 2.1 0 1.16-.94 2.1-2.1 2.1-1.16 0-2.1-.94-2.1-2.1 0-1.16.94-2.1 2.1-2.1m0 9c2.97 0 6.1 1.46 6.1 2.1v1.1h-12.2V17c0-.64 3.13-2.1 6.1-2.1m0-10.9c-2.21 0-4 1.79-4 4s1.79 4 4 4 4-1.79 4-4-1.79-4-4-4zm0 9c-2.67 0-8 1.34-8 4v3h16v-3c0-2.66-5.33-4-8-4z"/><path d="M1187.305 14.339c-1.937 0-3.796.298-5.165.829-1.37.531-2.14 1.251-2.14 2.001 0 .751.77 1.471 2.14 2.002 1.369.531 3.228.829 5.165.829 1.937 0 3.796-.298 5.166-.829 1.369-.531 2.139-1.251 2.139-2.002 0-.75-.77-1.47-2.139-2.001-1.37-.531-3.229-.829-5.166-.829zM1188 5.39c-.566 0-1.11.289-1.51.804-.4.515-.626 1.214-.626 1.942s.226 1.426.626 1.941c.4.515.944.804 1.51.804.566 0 1.11-.289 1.51-.804.4-.515.626-1.213.626-1.941s-.226-1.427-.626-1.942c-.4-.515-.944-.804-1.51-.804z"/></g><g fill="#000000"><path d="M1212 5.9c1.16 0 2.1.94 2.1 2.1 0 1.16-.94 2.1-2.1 2.1-1.16 0-2.1-.94-2.1-2.1 0-1.16.94-2.1 2.1-2.1m0 9c2.97 0 6.1 1.46 6.1 2.1v1.1h-12.2V17c0-.64 3.13-2.1 6.1-2.1m0-10.9c-2.21 0-4 1.79-4 4s1.79 4 4 4 4-1.79 4-4-1.79-4-4-4zm0 9c-2.67 0-8 1.34-8 4v3h16v-3c0-2.66-5.33-4-8-4z"/><path d="M1211.305 14.339c-1.937 0-3.796.298-5.165.829-1.37.531-2.14 1.251-2.14 2.001 0 .751.77 1.471 2.14 2.002 1.369.531 3.228.829 5.165.829 1.937 0 3.796-.298 5.166-.829 1.369-.531 2.139-1.251 2.139-2.002 0-.75-.77-1.47-2.139-2.001-1.37-.531-3.229-.829-5.166-.829zM1212 5.39c-.566 0-1.11.289-1.51.804-.4.515-.626 1.214-.626 1.942s.226 1.426.626 1.941c.4.515.944.804 1.51.804.566 0 1.11-.289 1.51-.804.4-.515.626-1.213.626-1.941s-.226-1.427-.626-1.942c-.4-.515-.944-.804-1.51-.804z"/></g><g fill="#000000"><path d="M1236 5.9c1.16 0 2.1.94 2.1 2.1 0 1.16-.94 2.1-2.1 2.1-1.16 0-2.1-.94-2.1-2.1 0-1.16.94-2.1 2.1-2.1m0 9c2.97 0 6.1 1.46 6.1 2.1v1.1h-12.2V17c0-.64 3.13-2.1 6.1-2.1m0-10.9c-2.21 0-4 1.79-4 4s1.79 4 4 4 4-1.79 4-4-1.79-4-4-4zm0 9c-2.67 0-8 1.34-8 4v3h16v-3c0-2.66-5.33-4-8-4z"/><path d="M1235.305 14.339c-1.937 0-3.796.298-5.165.829-1.37.531-2.14 1.251-2.14 2.001 0 .751.77 1.471 2.14 2.002 1.369.531 3.228.829 5.165.829 1.937 0 3.796-.298 5.166-.829 1.369-.531 2.139-1.251 2.139-2.002 0-.75-.77-1.47-2.139-2.001-1.37-.531-3.229-.829-5.166-.829zM1236 5.39c-.566 0-1.11.289-1.51.804-.4.515-.626 1.214-.626 1.942s.226 1.426.626 1.941c.4.515.944.804 1.51.804.566 0 1.11-.289 1.51-.804.4-.515.626-1.213.626-1.941s-.226-1.427-.626-1.942c-.4-.515-.944-.804-1.51-.804z"/></g><g fill="#000000"><path d="M1260 5.9c1.16 0 2.1.94 2.1 2.1 0 1.16-.94 2.1-2.1 2.1-1.16 0-2.1-.94-2.1-2.1 0-1.16.94-2.1 2.1-2.1m0 9c2.97 0 6.1 1.46 6.1 2.1v1.1h-12.2V17c0-.64 3.13-2.1 6.1-2.1m0-10.9c-2.21 0-4 1.79-4 4s1.79 4 4 4 4-1.79 4-4-1.79-4-4-4zm0 9c-2.67 0-8 1.34-8 4v3h16v-3c0-2.66-5.33-4-8-4z"/><path d="M1259.305 14.339c-1.937 0-3.796.298-5.165.829-1.37.531-2.14 1.251-2.14 2.001 0 .751.77 1.471 2.14 2.002 1.369.531 3.228.829 5.165.829 1.937 0 3.796-.298 5.166-.829 1.369-.531 2.139-1.251 2.139-2.002 0-.75-.77-1.47-2.139-2.001-1.37-.531-3.229-.829-5.166-.829zM1260 5.39c-.566 0-1.11.289-1.51.804-.4.515-.626 1.214-.626 1.942s.226 1.426.626 1.941c.4.515.944.804 1.51.804.566 0 1.11-.289 1.51-.804.4-.515.626-1.213.626-1.941s-.226-1.427-.626-1.942c-.4-.515-.944-.804-1.51-.804z"/></g><g fill="#000000"><path d="M1284 5.9c1.16 0 2.1.94 2.1 2.1 0 1.16-.94 2.1-2.1 2.1-1.16 0-2.1-.94-2.1-2.1 0-1.16.94-2.1 2.1-2.1m0 9c2.97 0 6.1 1.46 6.1 2.1v1.1h-12.2V17c0-.64 3.13-2.1 6.1-2.1m0-10.9c-2.21 0-4 1.79-4 4s1.79 4 4 4 4-1.79 4-4-1.79-4-4-4zm0 9c-2.67 0-8 1.34-8 4v3h16v-3c0-2.66-5.33-4-8-4z"/><path d="M1283.305 14.339c-1.937 0-3.796.298-5.165.829-1.37.531-2.14 1.251-2.14 2.001 0 .751.77 1.471 2.14 2.002 1.369.531 3.228.829 5.165.829 1.937 0 3.796-.298 5.166-.829 1.369-.531 2.139-1.251 2.139-2.002 0-.75-.77-1.47-2.139-2.001-1.37-.531-3.229-.829-5.166-.829zM1284 5.39c-.566 0-1.11.289-1.51.804-.4.515-.626 1.214-.626 1.942s.226 1.426.626 1.941c.4.515.944.804 1.51.804.566 0 1.11-.289 1.51-.804.4-.515.626-1.213.626-1.941s-.226-1.427-.626-1.942c-.4-.515-.944-.804-1.51-.804z"/></g><g fill="#000000"><path d="M1308 5.9c1.16 0 2.1.94 2.1 2.1 0 1.16-.94 2.1-2.1 2.1-1.16 0-2.1-.94-2.1-2.1 0-1.16.94-2.1 2.1-2.1m0 9c2.97 0 6.1 1.46 6.1 2.1v1.1h-12.2V17c0-.64 3.13-2.1 6.1-2.1m0-10.9c-2.21 0-4 1.79-4 4s1.79 4 4 4 4-1.79 4-4-1.79-4-4-4zm0 9c-2.67 0-8 1.34-8 4v3h16v-3c0-2.66-5.33-4-8-4z"/><path d="M1307.305 14.339c-1.937 0-3.796.298-5.165.829-1.37.531-2.14 1.251-2.14 2.001 0 .751.77 1.471 2.14 2.002 1.369.531 3.228.829 5.165.829 1.937 0 3.796-.298 5.166-.829 1.369-.531 2.139-1.251 2.139-2.002 0-.75-.77-1.47-2.139-2.001-1.37-.531-3.229-.829-5.166-.829zM1308 5.39c-.566 0-1.11.289-1.51.804-.4.515-.626 1.214-.626 1.942s.226 1.426.626 1.941c.4.515.944.804 1.51.804.566 0 1.11-.289 1.51-.804.4-.515.626-1.213.626-1.941s-.226-1.427-.626-1.942c-.4-.515-.944-.804-1.51-.804z"/></g><g fill="#000000"><path d="M1332 5.9c1.16 0 2.1.94 2.1 2.1 0 1.16-.94 2.1-2.1 2.1-1.16 0-2.1-.94-2.1-2.1 0-1.16.94-2.1 2.1-2.1m0 9c2.97 0 6.1 1.46 6.1 2.1v1.1h-12.2V17c0-.64 3.13-2.1 6.1-2.1m0-10.9c-2.21 0-4 1.79-4 4s1.79 4 4 4 4-1.79 4-4-1.79-4-4-4zm0 9c-2.67 0-8 1.34-8 4v3h16v-3c0-2.66-5.33-4-8-4z"/><path d="M1331.305 14.339c-1.937 0-3.796.298-5.165.829-1.37.531-2.14 1.251-2.14 2.001 0 .751.77 1.471 2.14 2.002 1.369.531 3.228.829 5.165.829 1.937 0 3.796-.298 5.166-.829 1.369-.531 2.139-1.251 2.139-2.002 0-.75-.77-1.47-2.139-2.001-1.37-.531-3.229-.829-5.166-.829zM1332 5.39c-.566 0-1.11.289-1.51.804-.4.515-.626 1.214-.626 1.942s.226 1.426.626 1.941c.4.515.944.804 1.51.804.566 0 1.11-.289 1.51-.804.4-.515.626-1.213.626-1.941s-.226-1.427-.626-1.942c-.4-.515-.944-.804-1.51-.804z"/></g><g fill="#000000"><path d="M1356 5.9c1.16 0 2.1.94 2.1 2.1 0 1.16-.94 2.1-2.1 2.1-1.16 0-2.1-.94-2.1-2.1 0-1.16.94-2.1 2.1-2.1m0 9c2.97 0 6.1 1.46 6.1 2.1v1.1h-12.2V17c0-.64 3.13-2.1 6.1-2.1m0-10.9c-2.21 0-4 1.79-4 4s1.79 4 4 4 4-1.79 4-4-1.79-4-4-4zm0 9c-2.67 0-8 1.34-8 4v3h16v-3c0-2.66-5.33-4-8-4z"/><path d="M1355.305 14.339c-1.937 0-3.796.298-5.165.829-1.37.531-2.14 1.251-2.14 2.001 0 .751.77 1.471 2.14 2.002 1.369.531 3.228.829 5.165.829 1.937 0 3.796-.298 5.166-.829 1.369-.531 2.139-1.251 2.139-2.002 0-.75-.77-1.47-2.139-2.001-1.37-.531-3.229-.829-5.166-.829zM1356 5.39c-.566 0-1.11.289-1.51.804-.4.515-.626 1.214-.626 1.942s.226 1.426.626 1.941c.4.515.944.804 1.51.804.566 0 1.11-.289 1.51-.804.4-.515.626-1.213.626-1.941s-.226-1.427-.626-1.942c-.4-.515-.944-.804-1.51-.804z"/></g><g fill="#000000"><path d="M1380 5.9c1.16 0 2.1.94 2.1 2.1 0 1.16-.94 2.1-2.1 2.1-1.16 0-2.1-.94-2.1-2.1 0-1.16.94-2.1 2.1-2.1m0 9c2.97 0 6.1 1.46 6.1 2.1v1.1h-12.2V17c0-.64 3.13-2.1 6.1-2.1m0-10.9c-2.21 0-4 1.79-4 4s1.79 4 4 4 4-1.79 4-4-1.79-4-4-4zm0 9c-2.67 0-8 1.34-8 4v3h16v-3c0-2.66-5.33-4-8-4z"/><path d="M1379.305 14.339c-1.937 0-3.796.298-5.165.829-1.37.531-2.14 1.251-2.14 2.001 0 .751.77 1.471 2.14 2.002 1.369.531 3.228.829 5.165.829 1.937 0 3.796-.298 5.166-.829 1.369-.531 2.139-1.251 2.139-2.002 0-.75-.77-1.47-2.139-2.001-1.37-.531-3.229-.829-5.166-.829zM1380 5.39c-.566 0-1.11.289-1.51.804-.4.515-.626 1.214-.626 1.942s.226 1.426.626 1.941c.4.515.944.804 1.51.804.566 0 1.11-.289 1.51-.804.4-.515.626-1.213.626-1.941s-.226-1.427-.626-1.942c-.4-.515-.944-.804-1.51-.804z"/></g><g fill="#000000"><path d="M1404 5.9c1.16 0 2.1.94 2.1 2.1 0 1.16-.94 2.1-2.1 2.1-1.16 0-2.1-.94-2.1-2.1 0-1.16.94-2.1 2.1-2.1m0 9c2.97 0 6.1 1.46 6.1 2.1v1.1h-12.2V17c0-.64 3.13-2.1 6.1-2.1m0-10.9c-2.21 0-4 1.79-4 4s1.79 4 4 4 4-1.79 4-4-1.79-4-4-4zm0 9c-2.67 0-8 1.34-8 4v3h16v-3c0-2.66-5.33-4-8-4z"/><path d="M1403.305 14.339c-1.937 0-3.796.298-5.165.829-1.37.531-2.14 1.251-2.14 2.001 0 .751.77 1.471 2.14 2.002 1.369.531 3.228.829 5.165.829 1.937 0 3.796-.298 5.166-.829 1.369-.531 2.139-1.251 2.139-2.002 0-.75-.77-1.47-2.139-2.001-1.37-.531-3.229-.829-5.166-.829zM1404 5.39c-.566 0-1.11.289-1.51.804-.4.515-.626 1.214-.626 1.942s.226 1.426.626 1.941c.4.515.944.804 1.51.804.566 0 1.11-.289 1.51-.804.4-.515.626-1.213.626-1.941s-.226-1.427-.626-1.942c-.4-.515-.944-.804-1.51-.804z"/></g><g fill="#000000"><path d="M1428 5.9c1.16 0 2.1.94 2.1 2.1 0 1.16-.94 2.1-2.1 2.1-1.16 0-2.1-.94-2.1-2.1 0-1.16.94-2.1 2.1-2.1m0 9c2.97 0 6.1 1.46 6.1 2.1v1.1h-12.2V17c0-.64 3.13-2.1 6.1-2.1m0-10.9c-2.21 0-4 1.79-4 4s1.79 4 4 4 4-1.79 4-4-1.79-4-4-4zm0 9c-2.67 0-8 1.34-8 4v3h16v-3c0-2.66-5.33-4-8-4z"/><path d="M1427.305 14.339c-1.937 0-3.796.298-5.165.829-1.37.531-2.14 1.251-2.14 2.001 0 .751.77 1.471 2.14 2.002 1.369.531 3.228.829 5.165.829 1.937 0 3.796-.298 5.166-.829 1.369-.531 2.139-1.251 2.139-2.002 0-.75-.77-1.47-2.139-2.001-1.37-.531-3.229-.829-5.166-.829zM1428 5.39c-.566 0-1.11.289-1.51.804-.4.515-.626 1.214-.626 1.942s.226 1.426.626 1.941c.4.515.944.804 1.51.804.566 0 1.11-.289 1.51-.804.4-.515.626-1.213.626-1.941s-.226-1.427-.626-1.942c-.4-.515-.944-.804-1.51-.804z"/></g><g fill="#000000"><path d="M1452 5.9c1.16 0 2.1.94 2.1 2.1 0 1.16-.94 2.1-2.1 2.1-1.16 0-2.1-.94-2.1-2.1 0-1.16.94-2.1 2.1-2.1m0 9c2.97 0 6.1 1.46 6.1 2.1v1.1h-12.2V17c0-.64 3.13-2.1 6.1-2.1m0-10.9c-2.21 0-4 1.79-4 4s1.79 4 4 4 4-1.79 4-4-1.79-4-4-4zm0 9c-2.67 0-8 1.34-8 4v3h16v-3c0-2.66-5.33-4-8-4z"/><path d="M1451.305 14.339c-1.937 0-3.796.298-5.165.829-1.37.531-2.14 1.251-2.14 2.001 0 .751.77 1.471 2.14 2.002 1.369.531 3.228.829 5.165.829 1.937 0 3.796-.298 5.166-.829 1.369-.531 2.139-1.251 2.139-2.002 0-.75-.77-1.47-2.139-2.001-1.37-.531-3.229-.829-5.166-.829zM1452 5.39c-.566 0-1.11.289-1.51.804-.4.515-.626 1.214-.626 1.942s.226 1.426.626 1.941c.4.515.944.804 1.51.804.566 0 1.11-.289 1.51-.804.4-.515.626-1.213.626-1.941s-.226-1.427-.626-1.942c-.4-.515-.944-.804-1.51-.804z"/></g><g fill="#000000"><path d="M1476 5.9c1.16 0 2.1.94 2.1 2.1 0 1.16-.94 2.1-2.1 2.1-1.16 0-2.1-.94-2.1-2.1 0-1.16.94-2.1 2.1-2.1m0 9c2.97 0 6.1 1.46 6.1 2.1v1.1h-12.2V17c0-.64 3.13-2.1 6.1-2.1m0-10.9c-2.21 0-4 1.79-4 4s1.79 4 4 4 4-1.79 4-4-1.79-4-4-4zm0 9c-2.67 0-8 1.34-8 4v3h16v-3c0-2.66-5.33-4-8-4z"/><path d="M1475.305 14.339c-1.937 0-3.796.298-5.165.829-1.37.531-2.14 1.251-2.14 2.001 0 .751.77 1.471 2.14 2.002 1.369.531 3.228.829 5.165.829 1.937 0 3.796-.298 5.166-.829 1.369-.531 2.139-1.251 2.139-2.002 0-.75-.77-1.47-2.139-2.001-1.37-.531-3.229-.829-5.166-.829zM1476 5.39c-.566 0-1.11.289-1.51.804-.4.515-.626 1.214-.626 1.942s.226 1.426.626 1.941c.4.515.944.804 1.51.804.566 0 1.11-.289 1.51-.804.4-.515.626-1.213.626-1.941s-.226-1.427-.626-1.942c-.4-.515-.944-.804-1.51-.804z"/></g><g fill="#000000"><path d="M1500 5.9c1.16 0 2.1.94 2.1 2.1 0 1.16-.94 2.1-2.1 2.1-1.16 0-2.1-.94-2.1-2.1 0-1.16.94-2.1 2.1-2.1m0 9c2.97 0 6.1 1.46 6.1 2.1v1.1h-12.2V17c0-.64 3.13-2.1 6.1-2.1m0-10.9c-2.21 0-4 1.79-4 4s1.79 4 4 4 4-1.79 4-4-1.79-4-4-4zm0 9c-2.67 0-8 1.34-8 4v3h16v-3c0-2.66-5.33-4-8-4z"/><path d="M1499.305 14.339c-1.937 0-3.796.298-5.165.829-1.37.531-2.14 1.251-2.14 2.001 0 .751.77 1.471 2.14 2.002 1.369.531 3.228.829 5.165.829 1.937 0 3.796-.298 5.166-.829 1.369-.531 2.139-1.251 2.139-2.002 0-.75-.77-1.47-2.139-2.001-1.37-.531-3.229-.829-5.166-.829zM1500 5.39c-.566 0-1.11.289-1.51.804-.4.515-.626 1.214-.626 1.942s.226 1.426.626 1.941c.4.515.944.804 1.51.804.566 0 1.11-.289 1.51-.804.4-.515.626-1.213.626-1.941s-.226-1.427-.626-1.942c-.4-.515-.944-.804-1.51-.804z"/></g><g fill="#000000"><path d="M1524 5.9c1.16 0 2.1.94 2.1 2.1 0 1.16-.94 2.1-2.1 2.1-1.16 0-2.1-.94-2.1-2.1 0-1.16.94-2.1 2.1-2.1m0 9c2.97 0 6.1 1.46 6.1 2.1v1.1h-12.2V17c0-.64 3.13-2.1 6.1-2.1m0-10.9c-2.21 0-4 1.79-4 4s1.79 4 4 4 4-1.79 4-4-1.79-4-4-4zm0 9c-2.67 0-8 1.34-8 4v3h16v-3c0-2.66-5.33-4-8-4z"/><path d="M1523.305 14.339c-1.937 0-3.796.298-5.165.829-1.37.531-2.14 1.251-2.14 2.001 0 .751.77 1.471 2.14 2.002 1.369.531 3.228.829 5.165.829 1.937 0 3.796-.298 5.166-.829 1.369-.531 2.139-1.251 2.139-2.002 0-.75-.77-1.47-2.139-2.001-1.37-.531-3.229-.829-5.166-.829zM1524 5.39c-.566 0-1.11.289-1.51.804-.4.515-.626 1.214-.626 1.942s.226 1.426.626 1.941c.4.515.944.804 1.51.804.566 0 1.11-.289 1.51-.804.4-.515.626-1.213.626-1.941s-.226-1.427-.626-1.942c-.4-.515-.944-.804-1.51-.804z"/></g><g fill="#000000"><path d="M1548 5.9c1.16 0 2.1.94 2.1 2.1 0 1.16-.94 2.1-2.1 2.1-1.16 0-2.1-.94-2.1-2.1 0-1.16.94-2.1 2.1-2.1m0 9c2.97 0 6.1 1.46 6.1 2.1v1.1h-12.2V17c0-.64 3.13-2.1 6.1-2.1m0-10.9c-2.21 0-4 1.79-4 4s1.79 4 4 4 4-1.79 4-4-1.79-4-4-4zm0 9c-2.67 0-8 1.34-8 4v3h16v-3c0-2.66-5.33-4-8-4z"/><path d="M1547.305 14.339c-1.937 0-3.796.298-5.165.829-1.37.531-2.14 1.251-2.14 2.001 0 .751.77 1.471 2.14 2.002 1.369.531 3.228.829 5.165.829 1.937 0 3.796-.298 5.166-.829 1.369-.531 2.139-1.251 2.139-2.002 0-.75-.77-1.47-2.139-2.001-1.37-.531-3.229-.829-5.166-.829zM1548 5.39c-.566 0-1.11.289-1.51.804-.4.515-.626 1.214-.626 1.942s.226 1.426.626 1.941c.4.515.944.804 1.51.804.566 0 1.11-.289 1.51-.804.4-.515.626-1.213.626-1.941s-.226-1.427-.626-1.942c-.4-.515-.944-.804-1.51-.804z"/></g><g fill="#000000"><path d="M1572 5.9c1.16 0 2.1.94 2.1 2.1 0 1.16-.94 2.1-2.1 2.1-1.16 0-2.1-.94-2.1-2.1 0-1.16.94-2.1 2.1-2.1m0 9c2.97 0 6.1 1.46 6.1 2.1v1.1h-12.2V17c0-.64 3.13-2.1 6.1-2.1m0-10.9c-2.21 0-4 1.79-4 4s1.79 4 4 4 4-1.79 4-4-1.79-4-4-4zm0 9c-2.67 0-8 1.34-8 4v3h16v-3c0-2.66-5.33-4-8-4z"/><path d="M1571.305 14.339c-1.937 0-3.796.298-5.165.829-1.37.531-2.14 1.251-2.14 2.001 0 .751.77 1.471 2.14 2.002 1.369.531 3.228.829 5.165.829 1.937 0 3.796-.298 5.166-.829 1.369-.531 2.139-1.251 2.139-2.002 0-.75-.77-1.47-2.139-2.001-1.37-.531-3.229-.829-5.166-.829zM1572 5.39c-.566 0-1.11.289-1.51.804-.4.515-.626 1.214-.626 1.942s.226 1.426.626 1.941c.4.515.944.804 1.51.804.566 0 1.11-.289 1.51-.804.4-.515.626-1.213.626-1.941s-.226-1.427-.626-1.942c-.4-.515-.944-.804-1.51-.804z"/></g><g fill="#000000"><path d="M1596 5.9c1.16 0 2.1.94 2.1 2.1 0 1.16-.94 2.1-2.1 2.1-1.16 0-2.1-.94-2.1-2.1 0-1.16.94-2.1 2.1-2.1m0 9c2.97 0 6.1 1.46 6.1 2.1v1.1h-12.2V17c0-.64 3.13-2.1 6.1-2.1m0-10.9c-2.21 0-4 1.79-4 4s1.79 4 4 4 4-1.79 4-4-1.79-4-4-4zm0 9c-2.67 0-8 1.34-8 4v3h16v-3c0-2.66-5.33-4-8-4z"/><path d="M1595.305 14.339c-1.937 0-3.796.298-5.165.829-1.37.531-2.14 1.251-2.14 2.001 0 .751.77 1.471 2.14 2.002 1.369.531 3.228.829 5.165.829 1.937 0 3.796-.298 5.166-.829 1.369-.531 2.139-1.251 2.139-2.002 0-.75-.77-1.47-2.139-2.001-1.37-.531-3.229-.829-5.166-.829zM1596 5.39c-.566 0-1.11.289-1.51.804-.4.515-.626 1.214-.626 1.942s.226 1.426.626 1.941c.4.515.944.804 1.51.804.566 0 1.11-.289 1.51-.804.4-.515.626-1.213.626-1.941s-.226-1.427-.626-1.942c-.4-.515-.944-.804-1.51-.804z"/></g><g fill="#000000"><path d="M1620 5.9c1.16 0 2.1.94 2.1 2.1 0 1.16-.94 2.1-2.1 2.1-1.16 0-2.1-.94-2.1-2.1 0-1.16.94-2.1 2.1-2.1m0 9c2.97 0 6.1 1.46 6.1 2.1v1.1h-12.2V17c0-.64 3.13-2.1 6.1-2.1m0-10.9c-2.21 0-4 1.79-4 4s1.79 4 4 4 4-1.79 4-4-1.79-4-4-4zm0 9c-2.67 0-8 1.34-8 4v3h16v-3c0-2.66-5.33-4-8-4z"/><path d="M1619.305 14.339c-1.937 0-3.796.298-5.165.829-1.37.531-2.14 1.251-2.14 2.001 0 .751.77 1.471 2.14 2.002 1.369.531 3.228.829 5.165.829 1.937 0 3.796-.298 5.166-.829 1.369-.531 2.139-1.251 2.139-2.002 0-.75-.77-1.47-2.139-2.001-1.37-.531-3.229-.829-5.166-.829zM1620 5.39c-.566 0-1.11.289-1.51.804-.4.515-.626 1.214-.626 1.942s.226 1.426.626 1.941c.4.515.944.804 1.51.804.566 0 1.11-.289 1.51-.804.4-.515.626-1.213.626-1.941s-.226-1.427-.626-1.942c-.4-.515-.944-.804-1.51-.804z"/></g><g fill="#000000"><path d="M1644 5.9c1.16 0 2.1.94 2.1 2.1 0 1.16-.94 2.1-2.1 2.1-1.16 0-2.1-.94-2.1-2.1 0-1.16.94-2.1 2.1-2.1m0 9c2.97 0 6.1 1.46 6.1 2.1v1.1h-12.2V17c0-.64 3.13-2.1 6.1-2.1m0-10.9c-2.21 0-4 1.79-4 4s1.79 4 4 4 4-1.79 4-4-1.79-4-4-4zm0 9c-2.67 0-8 1.34-8 4v3h16v-3c0-2.66-5.33-4-8-4z"/><path d="M1643.305 14.339c-1.937 0-3.796.298-5.165.829-1.37.531-2.14 1.251-2.14 2.001 0 .751.77 1.471 2.14 2.002 1.369.531 3.228.829 5.165.829 1.937 0 3.796-.298 5.166-.829 1.369-.531 2.139-1.251 2.139-2.002 0-.75-.77-1.47-2.139-2.001-1.37-.531-3.229-.829-5.166-.829zM1644 5.39c-.566 0-1.11.289-1.51.804-.4.515-.626 1.214-.626 1.942s.226 1.426.626 1.941c.4.515.944.804 1.51.804.566 0 1.11-.289 1.51-.804.4-.515.626-1.213.626-1.941s-.226-1.427-.626-1.942c-.4-.515-.944-.804-1.51-.804z"/></g><g fill="#000000"><path d="M1668 5.9c1.16 0 2.1.94 2.1 2.1 0 1.16-.94 2.1-2.1 2.1-1.16 0-2.1-.94-2.1-2.1 0-1.16.94-2.1 2.1-2.1m0 9c2.97 0 6.1 1.46 6.1 2.1v1.1h-12.2V17c0-.64 3.13-2.1 6.1-2.1m0-10.9c-2.21 0-4 1.79-4 4s1.79 4 4 4 4-1.79 4-4-1.79-4-4-4zm0 9c-2.67 0-8 1.34-8 4v3h16v-3c0-2.66-5.33-4-8-4z"/><path d="M1667.305 14.339c-1.937 0-3.796.298-5.165.829-1.37.531-2.14 1.251-2.14 2.001 0 .751.77 1.471 2.14 2.002 1.369.531 3.228.829 5.165.829 1.937 0 3.796-.298 5.166-.829 1.369-.531 2.139-1.251 2.139-2.002 0-.75-.77-1.47-2.139-2.001-1.37-.531-3.229-.829-5.166-.829zM1668 5.39c-.566 0-1.11.289-1.51.804-.4.515-.626 1.214-.626 1.942s.226 1.426.626 1.941c.4.515.944.804 1.51.804.566 0 1.11-.289 1.51-.804.4-.515.626-1.213.626-1.941s-.226-1.427-.626-1.942c-.4-.515-.944-.804-1.51-.804z"/></g><g fill="#000000"><path d="M1692 5.9c1.16 0 2.1.94 2.1 2.1 0 1.16-.94 2.1-2.1 2.1-1.16 0-2.1-.94-2.1-2.1 0-1.16.94-2.1 2.1-2.1m0 9c2.97 0 6.1 1.46 6.1 2.1v1.1h-12.2V17c0-.64 3.13-2.1 6.1-2.1m0-10.9c-2.21 0-4 1.79-4 4s1.79 4 4 4 4-1.79 4-4-1.79-4-4-4zm0 9c-2.67 0-8 1.34-8 4v3h16v-3c0-2.66-5.33-4-8-4z"/><path d="M1691.305 14.339c-1.937 0-3.796.298-5.165.829-1.37.531-2.14 1.251-2.14 2.001 0 .751.77 1.471 2.14 2.002 1.369.531 3.228.829 5.165.829 1.937 0 3.796-.298 5.166-.829 1.369-.531 2.139-1.251 2.139-2.002 0-.75-.77-1.47-2.139-2.001-1.37-.531-3.229-.829-5.166-.829zM1692 5.39c-.566 0-1.11.289-1.51.804-.4.515-.626 1.214-.626 1.942s.226 1.426.626 1.941c.4.515.944.804 1.51.804.566 0 1.11-.289 1.51-.804.4-.515.626-1.213.626-1.941s-.226-1.427-.626-1.942c-.4-.515-.944-.804-1.51-.804z"/></g><g fill="#000000"><path d="M1716 5.9c1.16 0 2.1.94 2.1 2.1 0 1.16-.94 2.1-2.1 2.1-1.16 0-2.1-.94-2.1-2.1 0-1.16.94-2.1 2.1-2.1m0 9c2.97 0 6.1 1.46 6.1 2.1v1.1h-12.2V17c0-.64 3.13-2.1 6.1-2.1m0-10.9c-2.21 0-4 1.79-4 4s1.79 4 4 4 4-1.79 4-4-1.79-4-4-4zm0 9c-2.67 0-8 1.34-8 4v3h16v-3c0-2.66-5.33-4-8-4z"/><path d="M1715.305 14.339c-1.937 0-3.796.298-5.165.829-1.37.531-2.14 1.251-2.14 2.001 0 .751.77 1.471 2.14 2.002 1.369.531 3.228.829 5.165.829 1.937 0 3.796-.298 5.166-.829 1.369-.531 2.139-1.251 2.139-2.002 0-.75-.77-1.47-2.139-2.001-1.37-.531-3.229-.829-5.166-.829zM1716 5.39c-.566 0-1.11.289-1.51.804-.4.515-.626 1.214-.626 1.942s.226 1.426.626 1.941c.4.515.944.804 1.51.804.566 0 1.11-.289 1.51-.804.4-.515.626-1.213.626-1.941s-.226-1.427-.626-1.942c-.4-.515-.944-.804-1.51-.804z"/></g><g fill="#000000"><path d="M1740 5.9c1.16 0 2.1.94 2.1 2.1 0 1.16-.94 2.1-2.1 2.1-1.16 0-2.1-.94-2.1-2.1 0-1.16.94-2.1 2.1-2.1m0 9c2.97 0 6.1 1.46 6.1 2.1v1.1h-12.2V17c0-.64 3.13-2.1 6.1-2.1m0-10.9c-2.21 0-4 1.79-4 4s1.79 4 4 4 4-1.79 4-4-1.79-4-4-4zm0 9c-2.67 0-8 1.34-8 4v3h16v-3c0-2.66-5.33-4-8-4z"/><path d="M1739.305 14.339c-1.937 0-3.796.298-5.165.829-1.37.531-2.14 1.251-2.14 2.001 0 .751.77 1.471 2.14 2.002 1.369.531 3.228.829 5.165.829 1.937 0 3.796-.298 5.166-.829 1.369-.531 2.139-1.251 2.139-2.002 0-.75-.77-1.47-2.139-2.001-1.37-.531-3.229-.829-5.166-.829zM1740 5.39c-.566 0-1.11.289-1.51.804-.4.515-.626 1.214-.626 1.942s.226 1.426.626 1.941c.4.515.944.804 1.51.804.566 0 1.11-.289 1.51-.804.4-.515.626-1.213.626-1.941s-.226-1.427-.626-1.942c-.4-.515-.944-.804-1.51-.804z"/></g><g fill="#000000"><path d="M1764 5.9c1.16 0 2.1.94 2.1 2.1 0 1.16-.94 2.1-2.1 2.1-1.16 0-2.1-.94-2.1-2.1 0-1.16.94-2.1 2.1-2.1m0 9c2.97 0 6.1 1.46 6.1 2.1v1.1h-12.2V17c0-.64 3.13-2.1 6.1-2.1m0-10.9c-2.21 0-4 1.79-4 4s1.79 4 4 4 4-1.79 4-4-1.79-4-4-4zm0 9c-2.67 0-8 1.34-8 4v3h16v-3c0-2.66-5.33-4-8-4z"/><path d="M1763.305 14.339c-1.937 0-3.796.298-5.165.829-1.37.531-2.14 1.251-2.14 2.001 0 .751.77 1.471 2.14 2.002 1.369.531 3.228.829 5.165.829 1.937 0 3.796-.298 5.166-.829 1.369-.531 2.139-1.251 2.139-2.002 0-.75-.77-1.47-2.139-2.001-1.37-.531-3.229-.829-5.166-.829zM1764 5.39c-.566 0-1.11.289-1.51.804-.4.515-.626 1.214-.626 1.942s.226 1.426.626 1.941c.4.515.944.804 1.51.804.566 0 1.11-.289 1.51-.804.4-.515.626-1.213.626-1.941s-.226-1.427-.626-1.942c-.4-.515-.944-.804-1.51-.804z"/></g><g fill="#000000"><path d="M1788 5.9c1.16 0 2.1.94 2.1 2.1 0 1.16-.94 2.1-2.1 2.1-1.16 0-2.1-.94-2.1-2.1 0-1.16.94-2.1 2.1-2.1m0 9c2.97 0 6.1 1.46 6.1 2.1v1.1h-12.2V17c0-.64 3.13-2.1 6.1-2.1m0-10.9c-2.21 0-4 1.79-4 4s1.79 4 4 4 4-1.79 4-4-1.79-4-4-4zm0 9c-2.67 0-8 1.34-8 4v3h16v-3c0-2.66-5.33-4-8-4z"/><path d="M1787.305 14.339c-1.937 0-3.796.298-5.165.829-1.37.531-2.14 1.251-2.14 2.001 0 .751.77 1.471 2.14 2.002 1.369.531 3.228.829 5.165.829 1.937 0 3.796-.298 5.166-.829 1.369-.531 2.139-1.251 2.139-2.002 0-.75-.77-1.47-2.139-2.001-1.37-.531-3.229-.829-5.166-.829zM1788 5.39c-.566 0-1.11.289-1.51.804-.4.515-.626 1.214-.626 1.942s.226 1.426.626 1.941c.4.515.944.804 1.51.804.566 0 1.11-.289 1.51-.804.4-.515.626-1.213.626-1.941s-.226-1.427-.626-1.942c-.4-.515-.944-.804-1.51-.804z"/></g><g fill="#000000"><path d="M1812 5.9c1.16 0 2.1.94 2.1 2.1 0 1.16-.94 2.1-2.1 2.1-1.16 0-2.1-.94-2.1-2.1 0-1.16.94-2.1 2.1-2.1m0 9c2.97 0 6.1 1.46 6.1 2.1v1.1h-12.2V17c0-.64 3.13-2.1 6.1-2.1m0-10.9c-2.21 0-4 1.79-4 4s1.79 4 4 4 4-1.79 4-4-1.79-4-4-4zm0 9c-2.67 0-8 1.34-8 4v3h16v-3c0-2.66-5.33-4-8-4z"/><path d="M1811.305 14.339c-1.937 0-3.796.298-5.165.829-1.37.531-2.14 1.251-2.14 2.001 0 .751.77 1.471 2.14 2.002 1.369.531 3.228.829 5.165.829 1.937 0 3.796-.298 5.166-.829 1.369-.531 2.139-1.251 2.139-2.002 0-.75-.77-1.47-2.139-2.001-1.37-.531-3.229-.829-5.166-.829zM1812 5.39c-.566 0-1.11.289-1.51.804-.4.515-.626 1.214-.626 1.942s.226 1.426.626 1.941c.4.515.944.804 1.51.804.566 0 1.11-.289 1.51-.804.4-.515.626-1.213.626-1.941s-.226-1.427-.626-1.942c-.4-.515-.944-.804-1.51-.804z"/></g><g fill="#000000"><path d="M1836 5.9c1.16 0 2.1.94 2.1 2.1 0 1.16-.94 2.1-2.1 2.1-1.16 0-2.1-.94-2.1-2.1 0-1.16.94-2.1 2.1-2.1m0 9c2.97 0 6.1 1.46 6.1 2.1v1.1h-12.2V17c0-.64 3.13-2.1 6.1-2.1m0-10.9c-2.21 0-4 1.79-4 4s1.79 4 4 4 4-1.79 4-4-1.79-4-4-4zm0 9c-2.67 0-8 1.34-8 4v3h16v-3c0-2.66-5.33-4-8-4z"/><path d="M1835.305 14.339c-1.937 0-3.796.298-5.165.829-1.37.531-2.14 1.251-2.14 2.001 0 .751.77 1.471 2.14 2.002 1.369.531 3.228.829 5.165.829 1.937 0 3.796-.298 5.166-.829 1.369-.531 2.139-1.251 2.139-2.002 0-.75-.77-1.47-2.139-2.001-1.37-.531-3.229-.829-5.166-.829zM1836 5.39c-.566 0-1.11.289-1.51.804-.4.515-.626 1.214-.626 1.942s.226 1.426.626 1.941c.4.515.944.804 1.51.804.566 0 1.11-.289 1.51-.804.4-.515.626-1.213.626-1.941s-.226-1.427-.626-1.942c-.4-.515-.944-.804-1.51-.804z"/></g><g fill="#000000"><path d="M1860 5.9c1.16 0 2.1.94 2.1 2.1 0 1.16-.94 2.1-2.1 2.1-1.16 0-2.1-.94-2.1-2.1 0-1.16.94-2.1 2.1-2.1m0 9c2.97 0 6.1 1.46 6.1 2.1v1.1h-12.2V17c0-.64 3.13-2.1 6.1-2.1m0-10.9c-2.21 0-4 1.79-4 4s1.79 4 4 4 4-1.79 4-4-1.79-4-4-4zm0 9c-2.67 0-8 1.34-8 4v3h16v-3c0-2.66-5.33-4-8-4z"/><path d="M1859.305 14.339c-1.937 0-3.796.298-5.165.829-1.37.531-2.14 1.251-2.14 2.001 0 .751.77 1.471 2.14 2.002 1.369.531 3.228.829 5.165.829 1.937 0 3.796-.298 5.166-.829 1.369-.531 2.139-1.251 2.139-2.002 0-.75-.77-1.47-2.139-2.001-1.37-.531-3.229-.829-5.166-.829zM1860 5.39c-.566 0-1.11.289-1.51.804-.4.515-.626 1.214-.626 1.942s.226 1.426.626 1.941c.4.515.944.804 1.51.804.566 0 1.11-.289 1.51-.804.4-.515.626-1.213.626-1.941s-.226-1.427-.626-1.942c-.4-.515-.944-.804-1.51-.804z"/></g><g fill="#000000"><path d="M1884 5.9c1.16 0 2.1.94 2.1 2.1 0 1.16-.94 2.1-2.1 2.1-1.16 0-2.1-.94-2.1-2.1 0-1.16.94-2.1 2.1-2.1m0 9c2.97 0 6.1 1.46 6.1 2.1v1.1h-12.2V17c0-.64 3.13-2.1 6.1-2.1m0-10.9c-2.21 0-4 1.79-4 4s1.79 4 4 4 4-1.79 4-4-1.79-4-4-4zm0 9c-2.67 0-8 1.34-8 4v3h16v-3c0-2.66-5.33-4-8-4z"/><path d="M1883.305 14.339c-1.937 0-3.796.298-5.165.829-1.37.531-2.14 1.251-2.14 2.001 0 .751.77 1.471 2.14 2.002 1.369.531 3.228.829 5.165.829 1.937 0 3.796-.298 5.166-.829 1.369-.531 2.139-1.251 2.139-2.002 0-.75-.77-1.47-2.139-2.001-1.37-.531-3.229-.829-5.166-.829zM1884 5.39c-.566 0-1.11.289-1.51.804-.4.515-.626 1.214-.626 1.942s.226 1.426.626 1.941c.4.515.944.804 1.51.804.566 0 1.11-.289 1.51-.804.4-.515.626-1.213.626-1.941s-.226-1.427-.626-1.942c-.4-.515-.944-.804-1.51-.804z"/></g></svg>